<mxfile host="Electron" modified="2022-09-02T19:43:53.650Z" agent="5.0 (Windows NT 10.0; Win64; x64) AppleWebKit/537.36 (KHTML, like Gecko) draw.io/19.0.3 Chrome/102.0.5005.63 Electron/19.0.3 Safari/537.36" etag="Nsh0hQPrJITHXmi1iThF" compressed="false" version="19.0.3" type="device">
  <diagram id="Hc4Gmkii04qw24Uicppk" name="Page-1">
    <mxGraphModel dx="1422" dy="865" grid="1" gridSize="10" guides="1" tooltips="1" connect="1" arrows="1" fold="1" page="1" pageScale="1" pageWidth="1169" pageHeight="827" math="0" shadow="0">
      <root>
        <mxCell id="0" />
        <mxCell id="1" parent="0" />
        <mxCell id="ysA1bHsgNW33P3yiqPTN-22" value="Parallel GC" style="swimlane;horizontal=0;fontSize=16;startSize=50;" parent="1" vertex="1">
          <mxGeometry x="20" y="214" width="1130" height="200" as="geometry" />
        </mxCell>
        <mxCell id="ysA1bHsgNW33P3yiqPTN-33" value="" style="swimlane;startSize=0;fontSize=12;" parent="ysA1bHsgNW33P3yiqPTN-22" vertex="1">
          <mxGeometry x="380" width="440" height="200" as="geometry" />
        </mxCell>
        <mxCell id="OsPYvItqaUhdvfqM2pUW-268" value="&lt;span style=&quot;font-size: 12px;&quot;&gt;&lt;font face=&quot;Arial, Helvetica, sans-serif&quot; style=&quot;font-size: 12px;&quot;&gt;&lt;span style=&quot;font-size: 12px;&quot;&gt;minor&amp;nbsp;&lt;/span&gt;&lt;/font&gt;&lt;/span&gt;&lt;span style=&quot;background-color: initial; font-size: 12px;&quot;&gt;GC&lt;/span&gt;&lt;span style=&quot;font-size: 12px;&quot;&gt;&lt;font face=&quot;Arial, Helvetica, sans-serif&quot; style=&quot;font-size: 12px;&quot;&gt;&lt;span style=&quot;font-size: 12px;&quot;&gt;&lt;br style=&quot;font-size: 12px;&quot;&gt;&lt;/span&gt;&lt;/font&gt;&lt;/span&gt;" style="text;html=1;strokeColor=none;fillColor=none;align=center;verticalAlign=middle;whiteSpace=wrap;rounded=0;fontSize=12;fontStyle=0" parent="ysA1bHsgNW33P3yiqPTN-33" vertex="1">
          <mxGeometry x="135" y="136" width="70" height="24" as="geometry" />
        </mxCell>
        <mxCell id="OsPYvItqaUhdvfqM2pUW-269" value="" style="endArrow=none;html=1;rounded=0;fontSize=12;fontColor=default;strokeColor=#D5E8D4;strokeWidth=4;exitX=0.159;exitY=0.68;exitDx=0;exitDy=0;exitPerimeter=0;entryX=0.273;entryY=0.68;entryDx=0;entryDy=0;entryPerimeter=0;" parent="ysA1bHsgNW33P3yiqPTN-33" edge="1">
          <mxGeometry width="50" height="50" relative="1" as="geometry">
            <mxPoint x="145.00000000000014" y="136" as="sourcePoint" />
            <mxPoint x="195.16" y="136" as="targetPoint" />
          </mxGeometry>
        </mxCell>
        <mxCell id="OsPYvItqaUhdvfqM2pUW-270" value="" style="endArrow=none;html=1;rounded=0;fontSize=12;fontColor=default;strokeColor=#FFE6CC;strokeWidth=4;" parent="ysA1bHsgNW33P3yiqPTN-33" edge="1">
          <mxGeometry width="50" height="50" relative="1" as="geometry">
            <mxPoint x="145" y="166" as="sourcePoint" />
            <mxPoint x="195" y="166" as="targetPoint" />
          </mxGeometry>
        </mxCell>
        <mxCell id="OsPYvItqaUhdvfqM2pUW-271" value="&lt;span style=&quot;font-size: 12px;&quot;&gt;major GC&lt;br style=&quot;font-size: 12px;&quot;&gt;&lt;/span&gt;" style="text;html=1;strokeColor=none;fillColor=none;align=center;verticalAlign=middle;whiteSpace=wrap;rounded=0;fontSize=12;fontStyle=0" parent="ysA1bHsgNW33P3yiqPTN-33" vertex="1">
          <mxGeometry x="135" y="166" width="70" height="24" as="geometry" />
        </mxCell>
        <mxCell id="OsPYvItqaUhdvfqM2pUW-244" value="" style="group;fontSize=12;" parent="ysA1bHsgNW33P3yiqPTN-33" vertex="1" connectable="0">
          <mxGeometry x="245" y="30" width="50" height="95" as="geometry" />
        </mxCell>
        <mxCell id="OsPYvItqaUhdvfqM2pUW-245" value="" style="html=1;shadow=0;dashed=0;align=center;verticalAlign=middle;shape=mxgraph.arrows2.arrow;dy=0.6;dx=25;notch=0;fontSize=12;fillColor=#f8cecc;strokeColor=none;" parent="OsPYvItqaUhdvfqM2pUW-244" vertex="1">
          <mxGeometry y="60" width="50" height="15" as="geometry" />
        </mxCell>
        <mxCell id="OsPYvItqaUhdvfqM2pUW-246" value="" style="html=1;shadow=0;dashed=0;align=center;verticalAlign=middle;shape=mxgraph.arrows2.arrow;dy=0.6;dx=25;notch=0;fontSize=12;fillColor=#f8cecc;strokeColor=none;" parent="OsPYvItqaUhdvfqM2pUW-244" vertex="1">
          <mxGeometry width="50" height="15" as="geometry" />
        </mxCell>
        <mxCell id="OsPYvItqaUhdvfqM2pUW-247" value="" style="html=1;shadow=0;dashed=0;align=center;verticalAlign=middle;shape=mxgraph.arrows2.arrow;dy=0.6;dx=25;notch=0;fontSize=12;fillColor=#f8cecc;strokeColor=none;" parent="OsPYvItqaUhdvfqM2pUW-244" vertex="1">
          <mxGeometry y="20" width="50" height="15" as="geometry" />
        </mxCell>
        <mxCell id="OsPYvItqaUhdvfqM2pUW-248" value="" style="html=1;shadow=0;dashed=0;align=center;verticalAlign=middle;shape=mxgraph.arrows2.arrow;dy=0.6;dx=25;notch=0;fontSize=12;fillColor=#f8cecc;strokeColor=none;" parent="OsPYvItqaUhdvfqM2pUW-244" vertex="1">
          <mxGeometry y="40" width="50" height="15" as="geometry" />
        </mxCell>
        <mxCell id="OsPYvItqaUhdvfqM2pUW-249" value="" style="html=1;shadow=0;dashed=0;align=center;verticalAlign=middle;shape=mxgraph.arrows2.arrow;dy=0.6;dx=25;notch=0;fontSize=12;fillColor=#f8cecc;strokeColor=none;" parent="OsPYvItqaUhdvfqM2pUW-244" vertex="1">
          <mxGeometry y="80" width="50" height="15" as="geometry" />
        </mxCell>
        <mxCell id="OsPYvItqaUhdvfqM2pUW-250" value="" style="group;fontSize=12;" parent="ysA1bHsgNW33P3yiqPTN-33" vertex="1" connectable="0">
          <mxGeometry x="145" y="30" width="50" height="95" as="geometry" />
        </mxCell>
        <mxCell id="OsPYvItqaUhdvfqM2pUW-251" value="" style="html=1;shadow=0;dashed=0;align=center;verticalAlign=middle;shape=mxgraph.arrows2.arrow;dy=0.6;dx=25;notch=0;fontSize=12;fillColor=#f8cecc;strokeColor=none;" parent="OsPYvItqaUhdvfqM2pUW-250" vertex="1">
          <mxGeometry y="60" width="50" height="15" as="geometry" />
        </mxCell>
        <mxCell id="OsPYvItqaUhdvfqM2pUW-252" value="" style="html=1;shadow=0;dashed=0;align=center;verticalAlign=middle;shape=mxgraph.arrows2.arrow;dy=0.6;dx=25;notch=0;fontSize=12;fillColor=#f8cecc;strokeColor=none;" parent="OsPYvItqaUhdvfqM2pUW-250" vertex="1">
          <mxGeometry width="50" height="15" as="geometry" />
        </mxCell>
        <mxCell id="OsPYvItqaUhdvfqM2pUW-253" value="" style="html=1;shadow=0;dashed=0;align=center;verticalAlign=middle;shape=mxgraph.arrows2.arrow;dy=0.6;dx=25;notch=0;fontSize=12;fillColor=#f8cecc;strokeColor=none;" parent="OsPYvItqaUhdvfqM2pUW-250" vertex="1">
          <mxGeometry y="20" width="50" height="15" as="geometry" />
        </mxCell>
        <mxCell id="OsPYvItqaUhdvfqM2pUW-254" value="" style="html=1;shadow=0;dashed=0;align=center;verticalAlign=middle;shape=mxgraph.arrows2.arrow;dy=0.6;dx=25;notch=0;fontSize=12;fillColor=#f8cecc;strokeColor=none;" parent="OsPYvItqaUhdvfqM2pUW-250" vertex="1">
          <mxGeometry y="40" width="50" height="15" as="geometry" />
        </mxCell>
        <mxCell id="OsPYvItqaUhdvfqM2pUW-255" value="" style="html=1;shadow=0;dashed=0;align=center;verticalAlign=middle;shape=mxgraph.arrows2.arrow;dy=0.6;dx=25;notch=0;fontSize=12;fillColor=#f8cecc;strokeColor=none;" parent="OsPYvItqaUhdvfqM2pUW-250" vertex="1">
          <mxGeometry y="80" width="50" height="15" as="geometry" />
        </mxCell>
        <mxCell id="OsPYvItqaUhdvfqM2pUW-256" value="" style="group;fontSize=12;" parent="ysA1bHsgNW33P3yiqPTN-33" vertex="1" connectable="0">
          <mxGeometry x="95" y="30" width="50" height="95" as="geometry" />
        </mxCell>
        <mxCell id="OsPYvItqaUhdvfqM2pUW-257" value="" style="html=1;shadow=0;dashed=0;align=center;verticalAlign=middle;shape=mxgraph.arrows2.arrow;dy=0.6;dx=25;notch=0;fontSize=12;fillColor=#d5e8d4;strokeColor=none;" parent="OsPYvItqaUhdvfqM2pUW-256" vertex="1">
          <mxGeometry width="50" height="15" as="geometry" />
        </mxCell>
        <mxCell id="OsPYvItqaUhdvfqM2pUW-258" value="" style="html=1;shadow=0;dashed=0;align=center;verticalAlign=middle;shape=mxgraph.arrows2.arrow;dy=0.6;dx=25;notch=0;fontSize=12;fillColor=#d5e8d4;strokeColor=none;" parent="OsPYvItqaUhdvfqM2pUW-256" vertex="1">
          <mxGeometry y="20" width="50" height="15" as="geometry" />
        </mxCell>
        <mxCell id="OsPYvItqaUhdvfqM2pUW-259" value="" style="html=1;shadow=0;dashed=0;align=center;verticalAlign=middle;shape=mxgraph.arrows2.arrow;dy=0.6;dx=25;notch=0;fontSize=12;fillColor=#d5e8d4;strokeColor=none;" parent="OsPYvItqaUhdvfqM2pUW-256" vertex="1">
          <mxGeometry y="60" width="50" height="15" as="geometry" />
        </mxCell>
        <mxCell id="OsPYvItqaUhdvfqM2pUW-260" value="" style="html=1;shadow=0;dashed=0;align=center;verticalAlign=middle;shape=mxgraph.arrows2.arrow;dy=0.6;dx=25;notch=0;fontSize=12;fillColor=#d5e8d4;strokeColor=none;" parent="OsPYvItqaUhdvfqM2pUW-256" vertex="1">
          <mxGeometry y="40" width="50" height="15" as="geometry" />
        </mxCell>
        <mxCell id="OsPYvItqaUhdvfqM2pUW-261" value="" style="html=1;shadow=0;dashed=0;align=center;verticalAlign=middle;shape=mxgraph.arrows2.arrow;dy=0.6;dx=25;notch=0;fontSize=12;fillColor=#d5e8d4;strokeColor=none;" parent="OsPYvItqaUhdvfqM2pUW-256" vertex="1">
          <mxGeometry y="80" width="50" height="15" as="geometry" />
        </mxCell>
        <mxCell id="OsPYvItqaUhdvfqM2pUW-262" value="" style="group;fontSize=12;" parent="ysA1bHsgNW33P3yiqPTN-33" vertex="1" connectable="0">
          <mxGeometry x="195" y="30" width="50" height="95" as="geometry" />
        </mxCell>
        <mxCell id="OsPYvItqaUhdvfqM2pUW-263" value="" style="html=1;shadow=0;dashed=0;align=center;verticalAlign=middle;shape=mxgraph.arrows2.arrow;dy=0.6;dx=25;notch=0;fontSize=12;fillColor=#d5e8d4;strokeColor=none;" parent="OsPYvItqaUhdvfqM2pUW-262" vertex="1">
          <mxGeometry width="50" height="15" as="geometry" />
        </mxCell>
        <mxCell id="OsPYvItqaUhdvfqM2pUW-264" value="" style="html=1;shadow=0;dashed=0;align=center;verticalAlign=middle;shape=mxgraph.arrows2.arrow;dy=0.6;dx=25;notch=0;fontSize=12;fillColor=#d5e8d4;strokeColor=none;" parent="OsPYvItqaUhdvfqM2pUW-262" vertex="1">
          <mxGeometry y="20" width="50" height="15" as="geometry" />
        </mxCell>
        <mxCell id="OsPYvItqaUhdvfqM2pUW-265" value="" style="html=1;shadow=0;dashed=0;align=center;verticalAlign=middle;shape=mxgraph.arrows2.arrow;dy=0.6;dx=25;notch=0;fontSize=12;fillColor=#d5e8d4;strokeColor=none;" parent="OsPYvItqaUhdvfqM2pUW-262" vertex="1">
          <mxGeometry y="60" width="50" height="15" as="geometry" />
        </mxCell>
        <mxCell id="OsPYvItqaUhdvfqM2pUW-266" value="" style="html=1;shadow=0;dashed=0;align=center;verticalAlign=middle;shape=mxgraph.arrows2.arrow;dy=0.6;dx=25;notch=0;fontSize=12;fillColor=#d5e8d4;strokeColor=none;" parent="OsPYvItqaUhdvfqM2pUW-262" vertex="1">
          <mxGeometry y="40" width="50" height="15" as="geometry" />
        </mxCell>
        <mxCell id="OsPYvItqaUhdvfqM2pUW-267" value="" style="html=1;shadow=0;dashed=0;align=center;verticalAlign=middle;shape=mxgraph.arrows2.arrow;dy=0.6;dx=25;notch=0;fontSize=12;fillColor=#d5e8d4;strokeColor=none;" parent="OsPYvItqaUhdvfqM2pUW-262" vertex="1">
          <mxGeometry y="80" width="50" height="15" as="geometry" />
        </mxCell>
        <mxCell id="OsPYvItqaUhdvfqM2pUW-272" value="" style="group;fontSize=12;" parent="ysA1bHsgNW33P3yiqPTN-33" vertex="1" connectable="0">
          <mxGeometry x="295" y="30" width="50" height="95" as="geometry" />
        </mxCell>
        <mxCell id="OsPYvItqaUhdvfqM2pUW-273" value="" style="html=1;shadow=0;dashed=0;align=center;verticalAlign=middle;shape=mxgraph.arrows2.arrow;dy=0.6;dx=25;notch=0;fontSize=12;fillColor=#d5e8d4;strokeColor=none;" parent="OsPYvItqaUhdvfqM2pUW-272" vertex="1">
          <mxGeometry width="50" height="15" as="geometry" />
        </mxCell>
        <mxCell id="OsPYvItqaUhdvfqM2pUW-274" value="" style="html=1;shadow=0;dashed=0;align=center;verticalAlign=middle;shape=mxgraph.arrows2.arrow;dy=0.6;dx=25;notch=0;fontSize=12;fillColor=#d5e8d4;strokeColor=none;" parent="OsPYvItqaUhdvfqM2pUW-272" vertex="1">
          <mxGeometry y="20" width="50" height="15" as="geometry" />
        </mxCell>
        <mxCell id="OsPYvItqaUhdvfqM2pUW-275" value="" style="html=1;shadow=0;dashed=0;align=center;verticalAlign=middle;shape=mxgraph.arrows2.arrow;dy=0.6;dx=25;notch=0;fontSize=12;fillColor=#d5e8d4;strokeColor=none;" parent="OsPYvItqaUhdvfqM2pUW-272" vertex="1">
          <mxGeometry y="60" width="50" height="15" as="geometry" />
        </mxCell>
        <mxCell id="OsPYvItqaUhdvfqM2pUW-276" value="" style="html=1;shadow=0;dashed=0;align=center;verticalAlign=middle;shape=mxgraph.arrows2.arrow;dy=0.6;dx=25;notch=0;fontSize=12;fillColor=#d5e8d4;strokeColor=none;" parent="OsPYvItqaUhdvfqM2pUW-272" vertex="1">
          <mxGeometry y="40" width="50" height="15" as="geometry" />
        </mxCell>
        <mxCell id="OsPYvItqaUhdvfqM2pUW-277" value="" style="html=1;shadow=0;dashed=0;align=center;verticalAlign=middle;shape=mxgraph.arrows2.arrow;dy=0.6;dx=25;notch=0;fontSize=12;fillColor=#d5e8d4;strokeColor=none;" parent="OsPYvItqaUhdvfqM2pUW-272" vertex="1">
          <mxGeometry y="80" width="50" height="15" as="geometry" />
        </mxCell>
        <mxCell id="OsPYvItqaUhdvfqM2pUW-279" value="&lt;span style=&quot;font-size: 12px;&quot;&gt;&lt;font face=&quot;Arial, Helvetica, sans-serif&quot; style=&quot;font-size: 12px;&quot;&gt;&lt;span style=&quot;font-size: 12px;&quot;&gt;minor&amp;nbsp;&lt;/span&gt;&lt;/font&gt;&lt;/span&gt;&lt;span style=&quot;background-color: initial; font-size: 12px;&quot;&gt;GC&lt;/span&gt;&lt;span style=&quot;font-size: 12px;&quot;&gt;&lt;font face=&quot;Arial, Helvetica, sans-serif&quot; style=&quot;font-size: 12px;&quot;&gt;&lt;span style=&quot;font-size: 12px;&quot;&gt;&lt;br style=&quot;font-size: 12px;&quot;&gt;&lt;/span&gt;&lt;/font&gt;&lt;/span&gt;" style="text;html=1;strokeColor=none;fillColor=none;align=center;verticalAlign=middle;whiteSpace=wrap;rounded=0;fontSize=12;fontStyle=0" parent="ysA1bHsgNW33P3yiqPTN-33" vertex="1">
          <mxGeometry x="235" y="136" width="70" height="24" as="geometry" />
        </mxCell>
        <mxCell id="OsPYvItqaUhdvfqM2pUW-280" value="" style="endArrow=none;html=1;rounded=0;fontSize=12;fontColor=default;strokeColor=#D5E8D4;strokeWidth=4;exitX=0.159;exitY=0.68;exitDx=0;exitDy=0;exitPerimeter=0;entryX=0.273;entryY=0.68;entryDx=0;entryDy=0;entryPerimeter=0;" parent="ysA1bHsgNW33P3yiqPTN-33" edge="1">
          <mxGeometry width="50" height="50" relative="1" as="geometry">
            <mxPoint x="245.00000000000045" y="136" as="sourcePoint" />
            <mxPoint x="295.1600000000003" y="136" as="targetPoint" />
          </mxGeometry>
        </mxCell>
        <mxCell id="OsPYvItqaUhdvfqM2pUW-281" value="" style="endArrow=none;html=1;rounded=0;fontSize=12;fontColor=default;strokeColor=#FFE6CC;strokeWidth=4;" parent="ysA1bHsgNW33P3yiqPTN-33" edge="1">
          <mxGeometry width="50" height="50" relative="1" as="geometry">
            <mxPoint x="245" y="166" as="sourcePoint" />
            <mxPoint x="295" y="166" as="targetPoint" />
          </mxGeometry>
        </mxCell>
        <mxCell id="OsPYvItqaUhdvfqM2pUW-282" value="&lt;span style=&quot;font-size: 12px;&quot;&gt;major GC&lt;br style=&quot;font-size: 12px;&quot;&gt;&lt;/span&gt;" style="text;html=1;strokeColor=none;fillColor=none;align=center;verticalAlign=middle;whiteSpace=wrap;rounded=0;fontSize=12;fontStyle=0" parent="ysA1bHsgNW33P3yiqPTN-33" vertex="1">
          <mxGeometry x="235" y="166" width="70" height="24" as="geometry" />
        </mxCell>
        <mxCell id="ysA1bHsgNW33P3yiqPTN-56" value="&lt;font style=&quot;font-size: 12px;&quot;&gt;+ multiple threads GS&lt;br style=&quot;font-size: 12px;&quot;&gt;+ automatic performance tuning&lt;br style=&quot;font-size: 12px;&quot;&gt;&lt;/font&gt;" style="text;html=1;strokeColor=none;fillColor=none;align=left;verticalAlign=top;whiteSpace=wrap;rounded=0;fontSize=12;fontColor=#97D077;fontStyle=0;spacingTop=0;spacing=0;spacingLeft=8;spacingRight=8;" parent="ysA1bHsgNW33P3yiqPTN-22" vertex="1">
          <mxGeometry x="820" width="310" height="100" as="geometry" />
        </mxCell>
        <mxCell id="ysA1bHsgNW33P3yiqPTN-57" value="&lt;font style=&quot;font-size: 12px;&quot;&gt;- always full app stop for GC&lt;br style=&quot;font-size: 12px;&quot;&gt;- memory fragmentation&lt;br style=&quot;font-size: 12px;&quot;&gt;&lt;/font&gt;" style="text;html=1;strokeColor=none;fillColor=none;align=left;verticalAlign=top;whiteSpace=wrap;rounded=0;fontSize=12;fontColor=#EA6B66;fontStyle=0;spacingTop=0;spacing=0;spacingLeft=8;spacingRight=8;" parent="ysA1bHsgNW33P3yiqPTN-22" vertex="1">
          <mxGeometry x="820" y="100" width="310" height="100" as="geometry" />
        </mxCell>
        <mxCell id="OsPYvItqaUhdvfqM2pUW-354" value="" style="group" parent="ysA1bHsgNW33P3yiqPTN-22" vertex="1" connectable="0">
          <mxGeometry x="60" y="80" width="310" height="40" as="geometry" />
        </mxCell>
        <mxCell id="OsPYvItqaUhdvfqM2pUW-346" value="" style="rounded=0;whiteSpace=wrap;html=1;fontSize=16;horizontal=0;fillColor=#d5e8d4;strokeColor=none;" parent="OsPYvItqaUhdvfqM2pUW-354" vertex="1">
          <mxGeometry width="40" height="40" as="geometry" />
        </mxCell>
        <mxCell id="OsPYvItqaUhdvfqM2pUW-347" value="" style="rounded=0;whiteSpace=wrap;html=1;fontSize=16;horizontal=0;fillColor=#dae8fc;strokeColor=none;" parent="OsPYvItqaUhdvfqM2pUW-354" vertex="1">
          <mxGeometry x="50" width="20" height="40" as="geometry" />
        </mxCell>
        <mxCell id="OsPYvItqaUhdvfqM2pUW-348" value="" style="rounded=0;whiteSpace=wrap;html=1;fontSize=16;horizontal=0;fillColor=#dae8fc;strokeColor=none;" parent="OsPYvItqaUhdvfqM2pUW-354" vertex="1">
          <mxGeometry x="80" width="20" height="40" as="geometry" />
        </mxCell>
        <mxCell id="OsPYvItqaUhdvfqM2pUW-349" value="" style="rounded=0;whiteSpace=wrap;html=1;fontSize=16;horizontal=0;fillColor=#ffe6cc;strokeColor=none;" parent="OsPYvItqaUhdvfqM2pUW-354" vertex="1">
          <mxGeometry x="110" width="200" height="40" as="geometry" />
        </mxCell>
        <mxCell id="ysA1bHsgNW33P3yiqPTN-38" value="Concurrent Mark Sweep&#xa;(CMS GC)" style="swimlane;horizontal=0;fontSize=16;startSize=50;" parent="1" vertex="1">
          <mxGeometry x="20" y="414" width="1130" height="200" as="geometry" />
        </mxCell>
        <mxCell id="ysA1bHsgNW33P3yiqPTN-49" value="" style="swimlane;startSize=0;fontSize=12;" parent="ysA1bHsgNW33P3yiqPTN-38" vertex="1">
          <mxGeometry x="380" width="440" height="200" as="geometry" />
        </mxCell>
        <mxCell id="ysA1bHsgNW33P3yiqPTN-60" value="&lt;span style=&quot;font-size: 12px;&quot;&gt;initial mark&lt;/span&gt;" style="text;html=1;strokeColor=none;fillColor=none;align=center;verticalAlign=middle;whiteSpace=wrap;rounded=0;fontSize=12;fontStyle=0" parent="ysA1bHsgNW33P3yiqPTN-49" vertex="1">
          <mxGeometry x="170" y="140" width="50" height="30" as="geometry" />
        </mxCell>
        <mxCell id="ysA1bHsgNW33P3yiqPTN-61" value="&lt;span style=&quot;font-size: 12px;&quot;&gt;remark&lt;/span&gt;" style="text;html=1;strokeColor=none;fillColor=none;align=center;verticalAlign=middle;whiteSpace=wrap;rounded=0;fontSize=12;fontStyle=0" parent="ysA1bHsgNW33P3yiqPTN-49" vertex="1">
          <mxGeometry x="270" y="140" width="50" height="30" as="geometry" />
        </mxCell>
        <mxCell id="ysA1bHsgNW33P3yiqPTN-107" value="&lt;span style=&quot;font-size: 12px;&quot;&gt;concurrent&lt;br style=&quot;font-size: 12px;&quot;&gt;mark&lt;/span&gt;" style="text;html=1;strokeColor=none;fillColor=none;align=center;verticalAlign=middle;whiteSpace=wrap;rounded=0;fontSize=12;fontStyle=0" parent="ysA1bHsgNW33P3yiqPTN-49" vertex="1">
          <mxGeometry x="215" y="116" width="60" height="30" as="geometry" />
        </mxCell>
        <mxCell id="ysA1bHsgNW33P3yiqPTN-113" value="&lt;span style=&quot;font-size: 12px;&quot;&gt;concurrent&lt;br style=&quot;font-size: 12px;&quot;&gt;sweep&lt;br style=&quot;font-size: 12px;&quot;&gt;&lt;/span&gt;" style="text;html=1;strokeColor=none;fillColor=none;align=center;verticalAlign=middle;whiteSpace=wrap;rounded=0;fontSize=12;fontStyle=0" parent="ysA1bHsgNW33P3yiqPTN-49" vertex="1">
          <mxGeometry x="315" y="116" width="60" height="30" as="geometry" />
        </mxCell>
        <mxCell id="OsPYvItqaUhdvfqM2pUW-167" value="" style="group;fontSize=12;" parent="ysA1bHsgNW33P3yiqPTN-49" vertex="1" connectable="0">
          <mxGeometry x="320" y="16" width="50" height="95" as="geometry" />
        </mxCell>
        <mxCell id="OsPYvItqaUhdvfqM2pUW-168" value="" style="html=1;shadow=0;dashed=0;align=center;verticalAlign=middle;shape=mxgraph.arrows2.arrow;dy=0.6;dx=25;notch=0;fontSize=12;fillColor=#d5e8d4;strokeColor=none;" parent="OsPYvItqaUhdvfqM2pUW-167" vertex="1">
          <mxGeometry width="50" height="15" as="geometry" />
        </mxCell>
        <mxCell id="OsPYvItqaUhdvfqM2pUW-169" value="" style="html=1;shadow=0;dashed=0;align=center;verticalAlign=middle;shape=mxgraph.arrows2.arrow;dy=0.6;dx=25;notch=0;fontSize=12;fillColor=#d5e8d4;strokeColor=none;" parent="OsPYvItqaUhdvfqM2pUW-167" vertex="1">
          <mxGeometry y="20" width="50" height="15" as="geometry" />
        </mxCell>
        <mxCell id="OsPYvItqaUhdvfqM2pUW-170" value="" style="html=1;shadow=0;dashed=0;align=center;verticalAlign=middle;shape=mxgraph.arrows2.arrow;dy=0.6;dx=25;notch=0;fontSize=12;fillColor=#f8cecc;strokeColor=none;" parent="OsPYvItqaUhdvfqM2pUW-167" vertex="1">
          <mxGeometry y="60" width="50" height="15" as="geometry" />
        </mxCell>
        <mxCell id="OsPYvItqaUhdvfqM2pUW-171" value="" style="html=1;shadow=0;dashed=0;align=center;verticalAlign=middle;shape=mxgraph.arrows2.arrow;dy=0.6;dx=25;notch=0;fontSize=12;fillColor=#d5e8d4;strokeColor=none;" parent="OsPYvItqaUhdvfqM2pUW-167" vertex="1">
          <mxGeometry y="40" width="50" height="15" as="geometry" />
        </mxCell>
        <mxCell id="OsPYvItqaUhdvfqM2pUW-172" value="" style="html=1;shadow=0;dashed=0;align=center;verticalAlign=middle;shape=mxgraph.arrows2.arrow;dy=0.6;dx=25;notch=0;fontSize=12;fillColor=#f8cecc;strokeColor=none;" parent="OsPYvItqaUhdvfqM2pUW-167" vertex="1">
          <mxGeometry y="80" width="50" height="15" as="geometry" />
        </mxCell>
        <mxCell id="OsPYvItqaUhdvfqM2pUW-173" value="" style="group;fontSize=12;" parent="ysA1bHsgNW33P3yiqPTN-49" vertex="1" connectable="0">
          <mxGeometry x="270" y="16" width="50" height="95" as="geometry" />
        </mxCell>
        <mxCell id="OsPYvItqaUhdvfqM2pUW-174" value="" style="html=1;shadow=0;dashed=0;align=center;verticalAlign=middle;shape=mxgraph.arrows2.arrow;dy=0.6;dx=25;notch=0;fontSize=12;fillColor=#f8cecc;strokeColor=none;" parent="OsPYvItqaUhdvfqM2pUW-173" vertex="1">
          <mxGeometry y="60" width="50" height="15" as="geometry" />
        </mxCell>
        <mxCell id="OsPYvItqaUhdvfqM2pUW-175" value="" style="html=1;shadow=0;dashed=0;align=center;verticalAlign=middle;shape=mxgraph.arrows2.arrow;dy=0.6;dx=25;notch=0;fontSize=12;fillColor=#f8cecc;strokeColor=none;" parent="OsPYvItqaUhdvfqM2pUW-173" vertex="1">
          <mxGeometry width="50" height="15" as="geometry" />
        </mxCell>
        <mxCell id="OsPYvItqaUhdvfqM2pUW-176" value="" style="html=1;shadow=0;dashed=0;align=center;verticalAlign=middle;shape=mxgraph.arrows2.arrow;dy=0.6;dx=25;notch=0;fontSize=12;fillColor=#f8cecc;strokeColor=none;" parent="OsPYvItqaUhdvfqM2pUW-173" vertex="1">
          <mxGeometry y="20" width="50" height="15" as="geometry" />
        </mxCell>
        <mxCell id="OsPYvItqaUhdvfqM2pUW-177" value="" style="html=1;shadow=0;dashed=0;align=center;verticalAlign=middle;shape=mxgraph.arrows2.arrow;dy=0.6;dx=25;notch=0;fontSize=12;fillColor=#f8cecc;strokeColor=none;" parent="OsPYvItqaUhdvfqM2pUW-173" vertex="1">
          <mxGeometry y="40" width="50" height="15" as="geometry" />
        </mxCell>
        <mxCell id="OsPYvItqaUhdvfqM2pUW-178" value="" style="html=1;shadow=0;dashed=0;align=center;verticalAlign=middle;shape=mxgraph.arrows2.arrow;dy=0.6;dx=25;notch=0;fontSize=12;fillColor=#f8cecc;strokeColor=none;" parent="OsPYvItqaUhdvfqM2pUW-173" vertex="1">
          <mxGeometry y="80" width="50" height="15" as="geometry" />
        </mxCell>
        <mxCell id="OsPYvItqaUhdvfqM2pUW-179" value="" style="group;fontSize=12;" parent="ysA1bHsgNW33P3yiqPTN-49" vertex="1" connectable="0">
          <mxGeometry x="220" y="16" width="50" height="95" as="geometry" />
        </mxCell>
        <mxCell id="OsPYvItqaUhdvfqM2pUW-180" value="" style="html=1;shadow=0;dashed=0;align=center;verticalAlign=middle;shape=mxgraph.arrows2.arrow;dy=0.6;dx=25;notch=0;fontSize=12;fillColor=#d5e8d4;strokeColor=none;" parent="OsPYvItqaUhdvfqM2pUW-179" vertex="1">
          <mxGeometry width="50" height="15" as="geometry" />
        </mxCell>
        <mxCell id="OsPYvItqaUhdvfqM2pUW-181" value="" style="html=1;shadow=0;dashed=0;align=center;verticalAlign=middle;shape=mxgraph.arrows2.arrow;dy=0.6;dx=25;notch=0;fontSize=12;fillColor=#d5e8d4;strokeColor=none;" parent="OsPYvItqaUhdvfqM2pUW-179" vertex="1">
          <mxGeometry y="20" width="50" height="15" as="geometry" />
        </mxCell>
        <mxCell id="OsPYvItqaUhdvfqM2pUW-182" value="" style="html=1;shadow=0;dashed=0;align=center;verticalAlign=middle;shape=mxgraph.arrows2.arrow;dy=0.6;dx=25;notch=0;fontSize=12;fillColor=#f8cecc;strokeColor=none;" parent="OsPYvItqaUhdvfqM2pUW-179" vertex="1">
          <mxGeometry y="60" width="50" height="15" as="geometry" />
        </mxCell>
        <mxCell id="OsPYvItqaUhdvfqM2pUW-183" value="" style="html=1;shadow=0;dashed=0;align=center;verticalAlign=middle;shape=mxgraph.arrows2.arrow;dy=0.6;dx=25;notch=0;fontSize=12;fillColor=#d5e8d4;strokeColor=none;" parent="OsPYvItqaUhdvfqM2pUW-179" vertex="1">
          <mxGeometry y="40" width="50" height="15" as="geometry" />
        </mxCell>
        <mxCell id="OsPYvItqaUhdvfqM2pUW-184" value="" style="html=1;shadow=0;dashed=0;align=center;verticalAlign=middle;shape=mxgraph.arrows2.arrow;dy=0.6;dx=25;notch=0;fontSize=12;fillColor=#f8cecc;strokeColor=none;" parent="OsPYvItqaUhdvfqM2pUW-179" vertex="1">
          <mxGeometry y="80" width="50" height="15" as="geometry" />
        </mxCell>
        <mxCell id="OsPYvItqaUhdvfqM2pUW-185" value="" style="group;fontSize=12;" parent="ysA1bHsgNW33P3yiqPTN-49" vertex="1" connectable="0">
          <mxGeometry x="170" y="16" width="50" height="95" as="geometry" />
        </mxCell>
        <mxCell id="OsPYvItqaUhdvfqM2pUW-186" value="" style="html=1;shadow=0;dashed=0;align=center;verticalAlign=middle;shape=mxgraph.arrows2.arrow;dy=0.6;dx=25;notch=0;fontSize=12;fillColor=#f8cecc;strokeColor=none;" parent="OsPYvItqaUhdvfqM2pUW-185" vertex="1">
          <mxGeometry y="60" width="50" height="15" as="geometry" />
        </mxCell>
        <mxCell id="OsPYvItqaUhdvfqM2pUW-187" value="" style="html=1;shadow=0;dashed=0;align=center;verticalAlign=middle;shape=mxgraph.arrows2.arrow;dy=0.6;dx=25;notch=0;fontSize=12;fillColor=#f8cecc;strokeColor=none;" parent="OsPYvItqaUhdvfqM2pUW-185" vertex="1">
          <mxGeometry width="50" height="15" as="geometry" />
        </mxCell>
        <mxCell id="OsPYvItqaUhdvfqM2pUW-188" value="" style="html=1;shadow=0;dashed=0;align=center;verticalAlign=middle;shape=mxgraph.arrows2.arrow;dy=0.6;dx=25;notch=0;fontSize=12;fillColor=#f8cecc;strokeColor=none;" parent="OsPYvItqaUhdvfqM2pUW-185" vertex="1">
          <mxGeometry y="20" width="50" height="15" as="geometry" />
        </mxCell>
        <mxCell id="OsPYvItqaUhdvfqM2pUW-189" value="" style="html=1;shadow=0;dashed=0;align=center;verticalAlign=middle;shape=mxgraph.arrows2.arrow;dy=0.6;dx=25;notch=0;fontSize=12;fillColor=#f8cecc;strokeColor=none;" parent="OsPYvItqaUhdvfqM2pUW-185" vertex="1">
          <mxGeometry y="40" width="50" height="15" as="geometry" />
        </mxCell>
        <mxCell id="OsPYvItqaUhdvfqM2pUW-190" value="" style="html=1;shadow=0;dashed=0;align=center;verticalAlign=middle;shape=mxgraph.arrows2.arrow;dy=0.6;dx=25;notch=0;fontSize=12;fillColor=#f8cecc;strokeColor=none;" parent="OsPYvItqaUhdvfqM2pUW-185" vertex="1">
          <mxGeometry y="80" width="50" height="15" as="geometry" />
        </mxCell>
        <mxCell id="OsPYvItqaUhdvfqM2pUW-191" value="" style="group;fontSize=12;" parent="ysA1bHsgNW33P3yiqPTN-49" vertex="1" connectable="0">
          <mxGeometry x="70" y="16" width="50" height="95" as="geometry" />
        </mxCell>
        <mxCell id="OsPYvItqaUhdvfqM2pUW-192" value="" style="html=1;shadow=0;dashed=0;align=center;verticalAlign=middle;shape=mxgraph.arrows2.arrow;dy=0.6;dx=25;notch=0;fontSize=12;fillColor=#f8cecc;strokeColor=none;" parent="OsPYvItqaUhdvfqM2pUW-191" vertex="1">
          <mxGeometry y="60" width="50" height="15" as="geometry" />
        </mxCell>
        <mxCell id="OsPYvItqaUhdvfqM2pUW-193" value="" style="html=1;shadow=0;dashed=0;align=center;verticalAlign=middle;shape=mxgraph.arrows2.arrow;dy=0.6;dx=25;notch=0;fontSize=12;fillColor=#f8cecc;strokeColor=none;" parent="OsPYvItqaUhdvfqM2pUW-191" vertex="1">
          <mxGeometry width="50" height="15" as="geometry" />
        </mxCell>
        <mxCell id="OsPYvItqaUhdvfqM2pUW-194" value="" style="html=1;shadow=0;dashed=0;align=center;verticalAlign=middle;shape=mxgraph.arrows2.arrow;dy=0.6;dx=25;notch=0;fontSize=12;fillColor=#f8cecc;strokeColor=none;" parent="OsPYvItqaUhdvfqM2pUW-191" vertex="1">
          <mxGeometry y="20" width="50" height="15" as="geometry" />
        </mxCell>
        <mxCell id="OsPYvItqaUhdvfqM2pUW-195" value="" style="html=1;shadow=0;dashed=0;align=center;verticalAlign=middle;shape=mxgraph.arrows2.arrow;dy=0.6;dx=25;notch=0;fontSize=12;fillColor=#f8cecc;strokeColor=none;" parent="OsPYvItqaUhdvfqM2pUW-191" vertex="1">
          <mxGeometry y="40" width="50" height="15" as="geometry" />
        </mxCell>
        <mxCell id="OsPYvItqaUhdvfqM2pUW-196" value="" style="html=1;shadow=0;dashed=0;align=center;verticalAlign=middle;shape=mxgraph.arrows2.arrow;dy=0.6;dx=25;notch=0;fontSize=12;fillColor=#f8cecc;strokeColor=none;" parent="OsPYvItqaUhdvfqM2pUW-191" vertex="1">
          <mxGeometry y="80" width="50" height="15" as="geometry" />
        </mxCell>
        <mxCell id="OsPYvItqaUhdvfqM2pUW-197" value="" style="group;fontSize=12;" parent="ysA1bHsgNW33P3yiqPTN-49" vertex="1" connectable="0">
          <mxGeometry x="20" y="16" width="50" height="95" as="geometry" />
        </mxCell>
        <mxCell id="OsPYvItqaUhdvfqM2pUW-198" value="" style="html=1;shadow=0;dashed=0;align=center;verticalAlign=middle;shape=mxgraph.arrows2.arrow;dy=0.6;dx=25;notch=0;fontSize=12;fillColor=#d5e8d4;strokeColor=none;" parent="OsPYvItqaUhdvfqM2pUW-197" vertex="1">
          <mxGeometry width="50" height="15" as="geometry" />
        </mxCell>
        <mxCell id="OsPYvItqaUhdvfqM2pUW-199" value="" style="html=1;shadow=0;dashed=0;align=center;verticalAlign=middle;shape=mxgraph.arrows2.arrow;dy=0.6;dx=25;notch=0;fontSize=12;fillColor=#d5e8d4;strokeColor=none;" parent="OsPYvItqaUhdvfqM2pUW-197" vertex="1">
          <mxGeometry y="20" width="50" height="15" as="geometry" />
        </mxCell>
        <mxCell id="OsPYvItqaUhdvfqM2pUW-200" value="" style="html=1;shadow=0;dashed=0;align=center;verticalAlign=middle;shape=mxgraph.arrows2.arrow;dy=0.6;dx=25;notch=0;fontSize=12;fillColor=#d5e8d4;strokeColor=none;" parent="OsPYvItqaUhdvfqM2pUW-197" vertex="1">
          <mxGeometry y="60" width="50" height="15" as="geometry" />
        </mxCell>
        <mxCell id="OsPYvItqaUhdvfqM2pUW-201" value="" style="html=1;shadow=0;dashed=0;align=center;verticalAlign=middle;shape=mxgraph.arrows2.arrow;dy=0.6;dx=25;notch=0;fontSize=12;fillColor=#d5e8d4;strokeColor=none;" parent="OsPYvItqaUhdvfqM2pUW-197" vertex="1">
          <mxGeometry y="40" width="50" height="15" as="geometry" />
        </mxCell>
        <mxCell id="OsPYvItqaUhdvfqM2pUW-202" value="" style="html=1;shadow=0;dashed=0;align=center;verticalAlign=middle;shape=mxgraph.arrows2.arrow;dy=0.6;dx=25;notch=0;fontSize=12;fillColor=#d5e8d4;strokeColor=none;" parent="OsPYvItqaUhdvfqM2pUW-197" vertex="1">
          <mxGeometry y="80" width="50" height="15" as="geometry" />
        </mxCell>
        <mxCell id="OsPYvItqaUhdvfqM2pUW-203" value="" style="group;fontSize=12;" parent="ysA1bHsgNW33P3yiqPTN-49" vertex="1" connectable="0">
          <mxGeometry x="120" y="16" width="50" height="95" as="geometry" />
        </mxCell>
        <mxCell id="OsPYvItqaUhdvfqM2pUW-204" value="" style="html=1;shadow=0;dashed=0;align=center;verticalAlign=middle;shape=mxgraph.arrows2.arrow;dy=0.6;dx=25;notch=0;fontSize=12;fillColor=#d5e8d4;strokeColor=none;" parent="OsPYvItqaUhdvfqM2pUW-203" vertex="1">
          <mxGeometry width="50" height="15" as="geometry" />
        </mxCell>
        <mxCell id="OsPYvItqaUhdvfqM2pUW-205" value="" style="html=1;shadow=0;dashed=0;align=center;verticalAlign=middle;shape=mxgraph.arrows2.arrow;dy=0.6;dx=25;notch=0;fontSize=12;fillColor=#d5e8d4;strokeColor=none;" parent="OsPYvItqaUhdvfqM2pUW-203" vertex="1">
          <mxGeometry y="20" width="50" height="15" as="geometry" />
        </mxCell>
        <mxCell id="OsPYvItqaUhdvfqM2pUW-206" value="" style="html=1;shadow=0;dashed=0;align=center;verticalAlign=middle;shape=mxgraph.arrows2.arrow;dy=0.6;dx=25;notch=0;fontSize=12;fillColor=#d5e8d4;strokeColor=none;" parent="OsPYvItqaUhdvfqM2pUW-203" vertex="1">
          <mxGeometry y="60" width="50" height="15" as="geometry" />
        </mxCell>
        <mxCell id="OsPYvItqaUhdvfqM2pUW-207" value="" style="html=1;shadow=0;dashed=0;align=center;verticalAlign=middle;shape=mxgraph.arrows2.arrow;dy=0.6;dx=25;notch=0;fontSize=12;fillColor=#d5e8d4;strokeColor=none;" parent="OsPYvItqaUhdvfqM2pUW-203" vertex="1">
          <mxGeometry y="40" width="50" height="15" as="geometry" />
        </mxCell>
        <mxCell id="OsPYvItqaUhdvfqM2pUW-208" value="" style="html=1;shadow=0;dashed=0;align=center;verticalAlign=middle;shape=mxgraph.arrows2.arrow;dy=0.6;dx=25;notch=0;fontSize=12;fillColor=#d5e8d4;strokeColor=none;" parent="OsPYvItqaUhdvfqM2pUW-203" vertex="1">
          <mxGeometry y="80" width="50" height="15" as="geometry" />
        </mxCell>
        <mxCell id="OsPYvItqaUhdvfqM2pUW-211" value="&lt;span style=&quot;font-size: 12px;&quot;&gt;&lt;font face=&quot;Arial, Helvetica, sans-serif&quot; style=&quot;font-size: 12px;&quot;&gt;&lt;span style=&quot;font-size: 12px;&quot;&gt;minor&lt;br style=&quot;font-size: 12px;&quot;&gt;&lt;/span&gt;&lt;/font&gt;&lt;div style=&quot;font-family: Arial, Helvetica, sans-serif; font-size: 12px;&quot;&gt;&lt;span style=&quot;background-color: initial; font-family: Helvetica; font-size: 12px;&quot;&gt;GC&lt;/span&gt;&lt;/div&gt;&lt;/span&gt;" style="text;html=1;strokeColor=none;fillColor=none;align=center;verticalAlign=middle;whiteSpace=wrap;rounded=0;fontSize=12;fontStyle=0" parent="ysA1bHsgNW33P3yiqPTN-49" vertex="1">
          <mxGeometry x="69.88" y="146" width="50" height="30" as="geometry" />
        </mxCell>
        <mxCell id="OsPYvItqaUhdvfqM2pUW-212" value="" style="endArrow=none;html=1;rounded=0;fontSize=12;fontColor=default;strokeColor=#D5E8D4;strokeWidth=4;exitX=0.159;exitY=0.68;exitDx=0;exitDy=0;exitPerimeter=0;entryX=0.273;entryY=0.68;entryDx=0;entryDy=0;entryPerimeter=0;" parent="ysA1bHsgNW33P3yiqPTN-49" edge="1">
          <mxGeometry width="50" height="50" relative="1" as="geometry">
            <mxPoint x="69.84000000000003" y="136" as="sourcePoint" />
            <mxPoint x="120.00000000000011" y="136" as="targetPoint" />
          </mxGeometry>
        </mxCell>
        <mxCell id="OsPYvItqaUhdvfqM2pUW-210" value="" style="endArrow=none;html=1;rounded=0;fontSize=12;fontColor=default;strokeColor=#FFE6CC;strokeWidth=4;" parent="ysA1bHsgNW33P3yiqPTN-49" edge="1">
          <mxGeometry width="50" height="50" relative="1" as="geometry">
            <mxPoint x="170" y="176" as="sourcePoint" />
            <mxPoint x="370" y="176" as="targetPoint" />
          </mxGeometry>
        </mxCell>
        <mxCell id="OsPYvItqaUhdvfqM2pUW-209" value="&lt;span style=&quot;font-size: 12px;&quot;&gt;major GC&lt;br style=&quot;font-size: 12px;&quot;&gt;&lt;/span&gt;" style="text;html=1;strokeColor=none;fillColor=none;align=center;verticalAlign=middle;whiteSpace=wrap;rounded=0;fontSize=12;fontStyle=0" parent="ysA1bHsgNW33P3yiqPTN-49" vertex="1">
          <mxGeometry x="170" y="180" width="200" height="16" as="geometry" />
        </mxCell>
        <mxCell id="OsPYvItqaUhdvfqM2pUW-215" value="" style="group;fontSize=12;" parent="ysA1bHsgNW33P3yiqPTN-49" vertex="1" connectable="0">
          <mxGeometry x="370" y="16" width="50" height="95" as="geometry" />
        </mxCell>
        <mxCell id="OsPYvItqaUhdvfqM2pUW-216" value="" style="html=1;shadow=0;dashed=0;align=center;verticalAlign=middle;shape=mxgraph.arrows2.arrow;dy=0.6;dx=25;notch=0;fontSize=12;fillColor=#d5e8d4;strokeColor=none;" parent="OsPYvItqaUhdvfqM2pUW-215" vertex="1">
          <mxGeometry width="50" height="15" as="geometry" />
        </mxCell>
        <mxCell id="OsPYvItqaUhdvfqM2pUW-217" value="" style="html=1;shadow=0;dashed=0;align=center;verticalAlign=middle;shape=mxgraph.arrows2.arrow;dy=0.6;dx=25;notch=0;fontSize=12;fillColor=#d5e8d4;strokeColor=none;" parent="OsPYvItqaUhdvfqM2pUW-215" vertex="1">
          <mxGeometry y="20" width="50" height="15" as="geometry" />
        </mxCell>
        <mxCell id="OsPYvItqaUhdvfqM2pUW-218" value="" style="html=1;shadow=0;dashed=0;align=center;verticalAlign=middle;shape=mxgraph.arrows2.arrow;dy=0.6;dx=25;notch=0;fontSize=12;fillColor=#d5e8d4;strokeColor=none;" parent="OsPYvItqaUhdvfqM2pUW-215" vertex="1">
          <mxGeometry y="60" width="50" height="15" as="geometry" />
        </mxCell>
        <mxCell id="OsPYvItqaUhdvfqM2pUW-219" value="" style="html=1;shadow=0;dashed=0;align=center;verticalAlign=middle;shape=mxgraph.arrows2.arrow;dy=0.6;dx=25;notch=0;fontSize=12;fillColor=#d5e8d4;strokeColor=none;" parent="OsPYvItqaUhdvfqM2pUW-215" vertex="1">
          <mxGeometry y="40" width="50" height="15" as="geometry" />
        </mxCell>
        <mxCell id="OsPYvItqaUhdvfqM2pUW-220" value="" style="html=1;shadow=0;dashed=0;align=center;verticalAlign=middle;shape=mxgraph.arrows2.arrow;dy=0.6;dx=25;notch=0;fontSize=12;fillColor=#d5e8d4;strokeColor=none;" parent="OsPYvItqaUhdvfqM2pUW-215" vertex="1">
          <mxGeometry y="80" width="50" height="15" as="geometry" />
        </mxCell>
        <mxCell id="ysA1bHsgNW33P3yiqPTN-58" value="&lt;font style=&quot;font-size: 12px;&quot;&gt;+ short STW&lt;br style=&quot;font-size: 12px;&quot;&gt;+ separate execution of minor and major GC&amp;nbsp;&lt;br style=&quot;font-size: 12px;&quot;&gt;&lt;/font&gt;" style="text;html=1;strokeColor=none;fillColor=none;align=left;verticalAlign=top;whiteSpace=wrap;rounded=0;fontSize=12;fontColor=#97D077;fontStyle=0;spacingTop=0;spacing=0;spacingLeft=8;spacingRight=8;" parent="ysA1bHsgNW33P3yiqPTN-38" vertex="1">
          <mxGeometry x="820" width="310" height="100" as="geometry" />
        </mxCell>
        <mxCell id="ysA1bHsgNW33P3yiqPTN-59" value="&lt;font style=&quot;font-size: 12px;&quot;&gt;- use some threads for GS in concurrent stages&lt;br style=&quot;font-size: 12px;&quot;&gt;- Old Gen fragmentation&lt;br style=&quot;font-size: 12px;&quot;&gt;- floating garbage&lt;br style=&quot;font-size: 12px;&quot;&gt;-&amp;nbsp;concurrent mode failure -&amp;gt; app stop &amp;amp; full GS&lt;br style=&quot;font-size: 12px;&quot;&gt;- need more memory&lt;br style=&quot;font-size: 12px;&quot;&gt;&lt;/font&gt;" style="text;html=1;strokeColor=none;fillColor=none;align=left;verticalAlign=top;whiteSpace=wrap;rounded=0;fontSize=12;fontColor=#EA6B66;fontStyle=0;spacing=0;spacingTop=0;spacingLeft=8;spacingRight=8;" parent="ysA1bHsgNW33P3yiqPTN-38" vertex="1">
          <mxGeometry x="820" y="100" width="310" height="100" as="geometry" />
        </mxCell>
        <mxCell id="OsPYvItqaUhdvfqM2pUW-355" value="" style="group" parent="ysA1bHsgNW33P3yiqPTN-38" vertex="1" connectable="0">
          <mxGeometry x="60" y="80" width="310" height="40" as="geometry" />
        </mxCell>
        <mxCell id="OsPYvItqaUhdvfqM2pUW-356" value="" style="rounded=0;whiteSpace=wrap;html=1;fontSize=16;horizontal=0;fillColor=#d5e8d4;strokeColor=none;" parent="OsPYvItqaUhdvfqM2pUW-355" vertex="1">
          <mxGeometry width="40" height="40" as="geometry" />
        </mxCell>
        <mxCell id="OsPYvItqaUhdvfqM2pUW-357" value="" style="rounded=0;whiteSpace=wrap;html=1;fontSize=16;horizontal=0;fillColor=#dae8fc;strokeColor=none;" parent="OsPYvItqaUhdvfqM2pUW-355" vertex="1">
          <mxGeometry x="50" width="20" height="40" as="geometry" />
        </mxCell>
        <mxCell id="OsPYvItqaUhdvfqM2pUW-358" value="" style="rounded=0;whiteSpace=wrap;html=1;fontSize=16;horizontal=0;fillColor=#dae8fc;strokeColor=none;" parent="OsPYvItqaUhdvfqM2pUW-355" vertex="1">
          <mxGeometry x="80" width="20" height="40" as="geometry" />
        </mxCell>
        <mxCell id="OsPYvItqaUhdvfqM2pUW-359" value="" style="rounded=0;whiteSpace=wrap;html=1;fontSize=16;horizontal=0;fillColor=#ffe6cc;strokeColor=none;" parent="OsPYvItqaUhdvfqM2pUW-355" vertex="1">
          <mxGeometry x="110" width="200" height="40" as="geometry" />
        </mxCell>
        <mxCell id="ysA1bHsgNW33P3yiqPTN-115" value="Garbage First&#xa;(G1 GC)" style="swimlane;horizontal=0;fontSize=16;startSize=50;" parent="1" vertex="1">
          <mxGeometry x="20" y="614" width="1130" height="200" as="geometry" />
        </mxCell>
        <mxCell id="ysA1bHsgNW33P3yiqPTN-116" value="" style="swimlane;startSize=0;fontSize=12;" parent="ysA1bHsgNW33P3yiqPTN-115" vertex="1">
          <mxGeometry x="380" width="440" height="200" as="geometry" />
        </mxCell>
        <mxCell id="ysA1bHsgNW33P3yiqPTN-117" value="&lt;span style=&quot;font-size: 12px;&quot;&gt;initial mark&lt;/span&gt;" style="text;html=1;strokeColor=none;fillColor=none;align=center;verticalAlign=middle;whiteSpace=wrap;rounded=0;fontSize=12;fontStyle=0" parent="ysA1bHsgNW33P3yiqPTN-116" vertex="1">
          <mxGeometry x="170" y="140" width="50" height="30" as="geometry" />
        </mxCell>
        <mxCell id="ysA1bHsgNW33P3yiqPTN-118" value="&lt;span style=&quot;font-size: 12px;&quot;&gt;remark&lt;/span&gt;" style="text;html=1;strokeColor=none;fillColor=none;align=center;verticalAlign=middle;whiteSpace=wrap;rounded=0;fontSize=12;fontStyle=0" parent="ysA1bHsgNW33P3yiqPTN-116" vertex="1">
          <mxGeometry x="270" y="140" width="50" height="30" as="geometry" />
        </mxCell>
        <mxCell id="ysA1bHsgNW33P3yiqPTN-119" value="&lt;span style=&quot;font-size: 12px;&quot;&gt;concurrent&lt;br style=&quot;font-size: 12px;&quot;&gt;mark&lt;/span&gt;" style="text;html=1;strokeColor=none;fillColor=none;align=center;verticalAlign=middle;whiteSpace=wrap;rounded=0;fontSize=12;fontStyle=0" parent="ysA1bHsgNW33P3yiqPTN-116" vertex="1">
          <mxGeometry x="215" y="116" width="60" height="30" as="geometry" />
        </mxCell>
        <mxCell id="ysA1bHsgNW33P3yiqPTN-133" value="&lt;span style=&quot;font-size: 12px;&quot;&gt;cleenup&lt;br style=&quot;font-size: 12px;&quot;&gt;&lt;/span&gt;" style="text;html=1;strokeColor=none;fillColor=none;align=center;verticalAlign=middle;whiteSpace=wrap;rounded=0;fontSize=12;fontStyle=0" parent="ysA1bHsgNW33P3yiqPTN-116" vertex="1">
          <mxGeometry x="320" y="116" width="50" height="30" as="geometry" />
        </mxCell>
        <mxCell id="OsPYvItqaUhdvfqM2pUW-105" value="minor&lt;br style=&quot;font-size: 12px;&quot;&gt;GC" style="text;html=1;strokeColor=none;fillColor=none;align=center;verticalAlign=middle;whiteSpace=wrap;rounded=0;fontSize=12;fontStyle=0" parent="ysA1bHsgNW33P3yiqPTN-116" vertex="1">
          <mxGeometry x="70" y="156" width="50" height="30" as="geometry" />
        </mxCell>
        <mxCell id="OsPYvItqaUhdvfqM2pUW-135" value="" style="group;fontSize=12;" parent="ysA1bHsgNW33P3yiqPTN-116" vertex="1" connectable="0">
          <mxGeometry x="370" y="20" width="50" height="95" as="geometry" />
        </mxCell>
        <mxCell id="OsPYvItqaUhdvfqM2pUW-89" value="" style="html=1;shadow=0;dashed=0;align=center;verticalAlign=middle;shape=mxgraph.arrows2.arrow;dy=0.6;dx=25;notch=0;fontSize=12;fillColor=#f8cecc;strokeColor=none;" parent="OsPYvItqaUhdvfqM2pUW-135" vertex="1">
          <mxGeometry y="40" width="50" height="15" as="geometry" />
        </mxCell>
        <mxCell id="OsPYvItqaUhdvfqM2pUW-90" value="" style="html=1;shadow=0;dashed=0;align=center;verticalAlign=middle;shape=mxgraph.arrows2.arrow;dy=0.6;dx=25;notch=0;fontSize=12;fillColor=#f8cecc;strokeColor=none;" parent="OsPYvItqaUhdvfqM2pUW-135" vertex="1">
          <mxGeometry width="50" height="15" as="geometry" />
        </mxCell>
        <mxCell id="OsPYvItqaUhdvfqM2pUW-91" value="" style="html=1;shadow=0;dashed=0;align=center;verticalAlign=middle;shape=mxgraph.arrows2.arrow;dy=0.6;dx=25;notch=0;fontSize=12;fillColor=#f8cecc;strokeColor=none;" parent="OsPYvItqaUhdvfqM2pUW-135" vertex="1">
          <mxGeometry y="20" width="50" height="15" as="geometry" />
        </mxCell>
        <mxCell id="OsPYvItqaUhdvfqM2pUW-120" value="" style="html=1;shadow=0;dashed=0;align=center;verticalAlign=middle;shape=mxgraph.arrows2.arrow;dy=0.6;dx=25;notch=0;fontSize=12;fillColor=#f8cecc;strokeColor=none;" parent="OsPYvItqaUhdvfqM2pUW-135" vertex="1">
          <mxGeometry y="60" width="50" height="15" as="geometry" />
        </mxCell>
        <mxCell id="OsPYvItqaUhdvfqM2pUW-122" value="" style="html=1;shadow=0;dashed=0;align=center;verticalAlign=middle;shape=mxgraph.arrows2.arrow;dy=0.6;dx=25;notch=0;fontSize=12;fillColor=#f8cecc;strokeColor=none;" parent="OsPYvItqaUhdvfqM2pUW-135" vertex="1">
          <mxGeometry y="80" width="50" height="15" as="geometry" />
        </mxCell>
        <mxCell id="OsPYvItqaUhdvfqM2pUW-136" value="" style="group;fontSize=12;" parent="ysA1bHsgNW33P3yiqPTN-116" vertex="1" connectable="0">
          <mxGeometry x="320" y="20" width="50" height="95" as="geometry" />
        </mxCell>
        <mxCell id="ysA1bHsgNW33P3yiqPTN-130" value="" style="html=1;shadow=0;dashed=0;align=center;verticalAlign=middle;shape=mxgraph.arrows2.arrow;dy=0.6;dx=25;notch=0;fontSize=12;fillColor=#d5e8d4;strokeColor=none;" parent="OsPYvItqaUhdvfqM2pUW-136" vertex="1">
          <mxGeometry width="50" height="15" as="geometry" />
        </mxCell>
        <mxCell id="ysA1bHsgNW33P3yiqPTN-131" value="" style="html=1;shadow=0;dashed=0;align=center;verticalAlign=middle;shape=mxgraph.arrows2.arrow;dy=0.6;dx=25;notch=0;fontSize=12;fillColor=#d5e8d4;strokeColor=none;" parent="OsPYvItqaUhdvfqM2pUW-136" vertex="1">
          <mxGeometry y="20" width="50" height="15" as="geometry" />
        </mxCell>
        <mxCell id="ysA1bHsgNW33P3yiqPTN-132" value="" style="html=1;shadow=0;dashed=0;align=center;verticalAlign=middle;shape=mxgraph.arrows2.arrow;dy=0.6;dx=25;notch=0;fontSize=12;fillColor=#f8cecc;strokeColor=none;" parent="OsPYvItqaUhdvfqM2pUW-136" vertex="1">
          <mxGeometry y="60" width="50" height="15" as="geometry" />
        </mxCell>
        <mxCell id="OsPYvItqaUhdvfqM2pUW-128" value="" style="html=1;shadow=0;dashed=0;align=center;verticalAlign=middle;shape=mxgraph.arrows2.arrow;dy=0.6;dx=25;notch=0;fontSize=12;fillColor=#d5e8d4;strokeColor=none;" parent="OsPYvItqaUhdvfqM2pUW-136" vertex="1">
          <mxGeometry y="40" width="50" height="15" as="geometry" />
        </mxCell>
        <mxCell id="OsPYvItqaUhdvfqM2pUW-134" value="" style="html=1;shadow=0;dashed=0;align=center;verticalAlign=middle;shape=mxgraph.arrows2.arrow;dy=0.6;dx=25;notch=0;fontSize=12;fillColor=#f8cecc;strokeColor=none;" parent="OsPYvItqaUhdvfqM2pUW-136" vertex="1">
          <mxGeometry y="80" width="50" height="15" as="geometry" />
        </mxCell>
        <mxCell id="OsPYvItqaUhdvfqM2pUW-138" value="" style="group;fontSize=12;" parent="ysA1bHsgNW33P3yiqPTN-116" vertex="1" connectable="0">
          <mxGeometry x="270" y="20" width="50" height="95" as="geometry" />
        </mxCell>
        <mxCell id="ysA1bHsgNW33P3yiqPTN-127" value="" style="html=1;shadow=0;dashed=0;align=center;verticalAlign=middle;shape=mxgraph.arrows2.arrow;dy=0.6;dx=25;notch=0;fontSize=12;fillColor=#f8cecc;strokeColor=none;" parent="OsPYvItqaUhdvfqM2pUW-138" vertex="1">
          <mxGeometry y="60" width="50" height="15" as="geometry" />
        </mxCell>
        <mxCell id="ysA1bHsgNW33P3yiqPTN-128" value="" style="html=1;shadow=0;dashed=0;align=center;verticalAlign=middle;shape=mxgraph.arrows2.arrow;dy=0.6;dx=25;notch=0;fontSize=12;fillColor=#f8cecc;strokeColor=none;" parent="OsPYvItqaUhdvfqM2pUW-138" vertex="1">
          <mxGeometry width="50" height="15" as="geometry" />
        </mxCell>
        <mxCell id="ysA1bHsgNW33P3yiqPTN-129" value="" style="html=1;shadow=0;dashed=0;align=center;verticalAlign=middle;shape=mxgraph.arrows2.arrow;dy=0.6;dx=25;notch=0;fontSize=12;fillColor=#f8cecc;strokeColor=none;" parent="OsPYvItqaUhdvfqM2pUW-138" vertex="1">
          <mxGeometry y="20" width="50" height="15" as="geometry" />
        </mxCell>
        <mxCell id="OsPYvItqaUhdvfqM2pUW-127" value="" style="html=1;shadow=0;dashed=0;align=center;verticalAlign=middle;shape=mxgraph.arrows2.arrow;dy=0.6;dx=25;notch=0;fontSize=12;fillColor=#f8cecc;strokeColor=none;" parent="OsPYvItqaUhdvfqM2pUW-138" vertex="1">
          <mxGeometry y="40" width="50" height="15" as="geometry" />
        </mxCell>
        <mxCell id="OsPYvItqaUhdvfqM2pUW-133" value="" style="html=1;shadow=0;dashed=0;align=center;verticalAlign=middle;shape=mxgraph.arrows2.arrow;dy=0.6;dx=25;notch=0;fontSize=12;fillColor=#f8cecc;strokeColor=none;" parent="OsPYvItqaUhdvfqM2pUW-138" vertex="1">
          <mxGeometry y="80" width="50" height="15" as="geometry" />
        </mxCell>
        <mxCell id="OsPYvItqaUhdvfqM2pUW-141" value="" style="group;fontSize=12;" parent="ysA1bHsgNW33P3yiqPTN-116" vertex="1" connectable="0">
          <mxGeometry x="220" y="20" width="50" height="95" as="geometry" />
        </mxCell>
        <mxCell id="ysA1bHsgNW33P3yiqPTN-124" value="" style="html=1;shadow=0;dashed=0;align=center;verticalAlign=middle;shape=mxgraph.arrows2.arrow;dy=0.6;dx=25;notch=0;fontSize=12;fillColor=#d5e8d4;strokeColor=none;" parent="OsPYvItqaUhdvfqM2pUW-141" vertex="1">
          <mxGeometry width="50" height="15" as="geometry" />
        </mxCell>
        <mxCell id="ysA1bHsgNW33P3yiqPTN-125" value="" style="html=1;shadow=0;dashed=0;align=center;verticalAlign=middle;shape=mxgraph.arrows2.arrow;dy=0.6;dx=25;notch=0;fontSize=12;fillColor=#d5e8d4;strokeColor=none;" parent="OsPYvItqaUhdvfqM2pUW-141" vertex="1">
          <mxGeometry y="20" width="50" height="15" as="geometry" />
        </mxCell>
        <mxCell id="ysA1bHsgNW33P3yiqPTN-126" value="" style="html=1;shadow=0;dashed=0;align=center;verticalAlign=middle;shape=mxgraph.arrows2.arrow;dy=0.6;dx=25;notch=0;fontSize=12;fillColor=#f8cecc;strokeColor=none;" parent="OsPYvItqaUhdvfqM2pUW-141" vertex="1">
          <mxGeometry y="60" width="50" height="15" as="geometry" />
        </mxCell>
        <mxCell id="OsPYvItqaUhdvfqM2pUW-126" value="" style="html=1;shadow=0;dashed=0;align=center;verticalAlign=middle;shape=mxgraph.arrows2.arrow;dy=0.6;dx=25;notch=0;fontSize=12;fillColor=#d5e8d4;strokeColor=none;" parent="OsPYvItqaUhdvfqM2pUW-141" vertex="1">
          <mxGeometry y="40" width="50" height="15" as="geometry" />
        </mxCell>
        <mxCell id="OsPYvItqaUhdvfqM2pUW-132" value="" style="html=1;shadow=0;dashed=0;align=center;verticalAlign=middle;shape=mxgraph.arrows2.arrow;dy=0.6;dx=25;notch=0;fontSize=12;fillColor=#f8cecc;strokeColor=none;" parent="OsPYvItqaUhdvfqM2pUW-141" vertex="1">
          <mxGeometry y="80" width="50" height="15" as="geometry" />
        </mxCell>
        <mxCell id="OsPYvItqaUhdvfqM2pUW-142" value="" style="group;fontSize=12;" parent="ysA1bHsgNW33P3yiqPTN-116" vertex="1" connectable="0">
          <mxGeometry x="170" y="20" width="50" height="95" as="geometry" />
        </mxCell>
        <mxCell id="OsPYvItqaUhdvfqM2pUW-112" value="" style="html=1;shadow=0;dashed=0;align=center;verticalAlign=middle;shape=mxgraph.arrows2.arrow;dy=0.6;dx=25;notch=0;fontSize=12;fillColor=#f8cecc;strokeColor=none;" parent="OsPYvItqaUhdvfqM2pUW-142" vertex="1">
          <mxGeometry y="60" width="50" height="15" as="geometry" />
        </mxCell>
        <mxCell id="OsPYvItqaUhdvfqM2pUW-113" value="" style="html=1;shadow=0;dashed=0;align=center;verticalAlign=middle;shape=mxgraph.arrows2.arrow;dy=0.6;dx=25;notch=0;fontSize=12;fillColor=#f8cecc;strokeColor=none;" parent="OsPYvItqaUhdvfqM2pUW-142" vertex="1">
          <mxGeometry width="50" height="15" as="geometry" />
        </mxCell>
        <mxCell id="OsPYvItqaUhdvfqM2pUW-114" value="" style="html=1;shadow=0;dashed=0;align=center;verticalAlign=middle;shape=mxgraph.arrows2.arrow;dy=0.6;dx=25;notch=0;fontSize=12;fillColor=#f8cecc;strokeColor=none;" parent="OsPYvItqaUhdvfqM2pUW-142" vertex="1">
          <mxGeometry y="20" width="50" height="15" as="geometry" />
        </mxCell>
        <mxCell id="OsPYvItqaUhdvfqM2pUW-125" value="" style="html=1;shadow=0;dashed=0;align=center;verticalAlign=middle;shape=mxgraph.arrows2.arrow;dy=0.6;dx=25;notch=0;fontSize=12;fillColor=#f8cecc;strokeColor=none;" parent="OsPYvItqaUhdvfqM2pUW-142" vertex="1">
          <mxGeometry y="40" width="50" height="15" as="geometry" />
        </mxCell>
        <mxCell id="OsPYvItqaUhdvfqM2pUW-131" value="" style="html=1;shadow=0;dashed=0;align=center;verticalAlign=middle;shape=mxgraph.arrows2.arrow;dy=0.6;dx=25;notch=0;fontSize=12;fillColor=#f8cecc;strokeColor=none;" parent="OsPYvItqaUhdvfqM2pUW-142" vertex="1">
          <mxGeometry y="80" width="50" height="15" as="geometry" />
        </mxCell>
        <mxCell id="OsPYvItqaUhdvfqM2pUW-143" value="" style="group;fontSize=12;" parent="ysA1bHsgNW33P3yiqPTN-116" vertex="1" connectable="0">
          <mxGeometry x="70" y="20" width="50" height="95" as="geometry" />
        </mxCell>
        <mxCell id="OsPYvItqaUhdvfqM2pUW-101" value="" style="html=1;shadow=0;dashed=0;align=center;verticalAlign=middle;shape=mxgraph.arrows2.arrow;dy=0.6;dx=25;notch=0;fontSize=12;fillColor=#f8cecc;strokeColor=none;" parent="OsPYvItqaUhdvfqM2pUW-143" vertex="1">
          <mxGeometry y="60" width="50" height="15" as="geometry" />
        </mxCell>
        <mxCell id="OsPYvItqaUhdvfqM2pUW-102" value="" style="html=1;shadow=0;dashed=0;align=center;verticalAlign=middle;shape=mxgraph.arrows2.arrow;dy=0.6;dx=25;notch=0;fontSize=12;fillColor=#f8cecc;strokeColor=none;" parent="OsPYvItqaUhdvfqM2pUW-143" vertex="1">
          <mxGeometry width="50" height="15" as="geometry" />
        </mxCell>
        <mxCell id="OsPYvItqaUhdvfqM2pUW-103" value="" style="html=1;shadow=0;dashed=0;align=center;verticalAlign=middle;shape=mxgraph.arrows2.arrow;dy=0.6;dx=25;notch=0;fontSize=12;fillColor=#f8cecc;strokeColor=none;" parent="OsPYvItqaUhdvfqM2pUW-143" vertex="1">
          <mxGeometry y="20" width="50" height="15" as="geometry" />
        </mxCell>
        <mxCell id="OsPYvItqaUhdvfqM2pUW-124" value="" style="html=1;shadow=0;dashed=0;align=center;verticalAlign=middle;shape=mxgraph.arrows2.arrow;dy=0.6;dx=25;notch=0;fontSize=12;fillColor=#f8cecc;strokeColor=none;" parent="OsPYvItqaUhdvfqM2pUW-143" vertex="1">
          <mxGeometry y="40" width="50" height="15" as="geometry" />
        </mxCell>
        <mxCell id="OsPYvItqaUhdvfqM2pUW-130" value="" style="html=1;shadow=0;dashed=0;align=center;verticalAlign=middle;shape=mxgraph.arrows2.arrow;dy=0.6;dx=25;notch=0;fontSize=12;fillColor=#f8cecc;strokeColor=none;" parent="OsPYvItqaUhdvfqM2pUW-143" vertex="1">
          <mxGeometry y="80" width="50" height="15" as="geometry" />
        </mxCell>
        <mxCell id="OsPYvItqaUhdvfqM2pUW-144" value="" style="group;fontSize=12;" parent="ysA1bHsgNW33P3yiqPTN-116" vertex="1" connectable="0">
          <mxGeometry x="20" y="20" width="50" height="95" as="geometry" />
        </mxCell>
        <mxCell id="ysA1bHsgNW33P3yiqPTN-120" value="" style="html=1;shadow=0;dashed=0;align=center;verticalAlign=middle;shape=mxgraph.arrows2.arrow;dy=0.6;dx=25;notch=0;fontSize=12;fillColor=#d5e8d4;strokeColor=none;" parent="OsPYvItqaUhdvfqM2pUW-144" vertex="1">
          <mxGeometry width="50" height="15" as="geometry" />
        </mxCell>
        <mxCell id="ysA1bHsgNW33P3yiqPTN-121" value="" style="html=1;shadow=0;dashed=0;align=center;verticalAlign=middle;shape=mxgraph.arrows2.arrow;dy=0.6;dx=25;notch=0;fontSize=12;fillColor=#d5e8d4;strokeColor=none;" parent="OsPYvItqaUhdvfqM2pUW-144" vertex="1">
          <mxGeometry y="20" width="50" height="15" as="geometry" />
        </mxCell>
        <mxCell id="ysA1bHsgNW33P3yiqPTN-122" value="" style="html=1;shadow=0;dashed=0;align=center;verticalAlign=middle;shape=mxgraph.arrows2.arrow;dy=0.6;dx=25;notch=0;fontSize=12;fillColor=#d5e8d4;strokeColor=none;" parent="OsPYvItqaUhdvfqM2pUW-144" vertex="1">
          <mxGeometry y="60" width="50" height="15" as="geometry" />
        </mxCell>
        <mxCell id="OsPYvItqaUhdvfqM2pUW-123" value="" style="html=1;shadow=0;dashed=0;align=center;verticalAlign=middle;shape=mxgraph.arrows2.arrow;dy=0.6;dx=25;notch=0;fontSize=12;fillColor=#d5e8d4;strokeColor=none;" parent="OsPYvItqaUhdvfqM2pUW-144" vertex="1">
          <mxGeometry y="40" width="50" height="15" as="geometry" />
        </mxCell>
        <mxCell id="OsPYvItqaUhdvfqM2pUW-129" value="" style="html=1;shadow=0;dashed=0;align=center;verticalAlign=middle;shape=mxgraph.arrows2.arrow;dy=0.6;dx=25;notch=0;fontSize=12;fillColor=#d5e8d4;strokeColor=none;" parent="OsPYvItqaUhdvfqM2pUW-144" vertex="1">
          <mxGeometry y="80" width="50" height="15" as="geometry" />
        </mxCell>
        <mxCell id="OsPYvItqaUhdvfqM2pUW-145" value="" style="group;fontSize=12;" parent="ysA1bHsgNW33P3yiqPTN-116" vertex="1" connectable="0">
          <mxGeometry x="120" y="20" width="50" height="95" as="geometry" />
        </mxCell>
        <mxCell id="OsPYvItqaUhdvfqM2pUW-146" value="" style="html=1;shadow=0;dashed=0;align=center;verticalAlign=middle;shape=mxgraph.arrows2.arrow;dy=0.6;dx=25;notch=0;fontSize=12;fillColor=#d5e8d4;strokeColor=none;" parent="OsPYvItqaUhdvfqM2pUW-145" vertex="1">
          <mxGeometry width="50" height="15" as="geometry" />
        </mxCell>
        <mxCell id="OsPYvItqaUhdvfqM2pUW-147" value="" style="html=1;shadow=0;dashed=0;align=center;verticalAlign=middle;shape=mxgraph.arrows2.arrow;dy=0.6;dx=25;notch=0;fontSize=12;fillColor=#d5e8d4;strokeColor=none;" parent="OsPYvItqaUhdvfqM2pUW-145" vertex="1">
          <mxGeometry y="20" width="50" height="15" as="geometry" />
        </mxCell>
        <mxCell id="OsPYvItqaUhdvfqM2pUW-148" value="" style="html=1;shadow=0;dashed=0;align=center;verticalAlign=middle;shape=mxgraph.arrows2.arrow;dy=0.6;dx=25;notch=0;fontSize=12;fillColor=#d5e8d4;strokeColor=none;" parent="OsPYvItqaUhdvfqM2pUW-145" vertex="1">
          <mxGeometry y="60" width="50" height="15" as="geometry" />
        </mxCell>
        <mxCell id="OsPYvItqaUhdvfqM2pUW-149" value="" style="html=1;shadow=0;dashed=0;align=center;verticalAlign=middle;shape=mxgraph.arrows2.arrow;dy=0.6;dx=25;notch=0;fontSize=12;fillColor=#d5e8d4;strokeColor=none;" parent="OsPYvItqaUhdvfqM2pUW-145" vertex="1">
          <mxGeometry y="40" width="50" height="15" as="geometry" />
        </mxCell>
        <mxCell id="OsPYvItqaUhdvfqM2pUW-150" value="" style="html=1;shadow=0;dashed=0;align=center;verticalAlign=middle;shape=mxgraph.arrows2.arrow;dy=0.6;dx=25;notch=0;fontSize=12;fillColor=#d5e8d4;strokeColor=none;" parent="OsPYvItqaUhdvfqM2pUW-145" vertex="1">
          <mxGeometry y="80" width="50" height="15" as="geometry" />
        </mxCell>
        <mxCell id="OsPYvItqaUhdvfqM2pUW-152" value="&lt;span style=&quot;font-size: 12px;&quot;&gt;mixed GC&lt;br style=&quot;font-size: 12px;&quot;&gt;&lt;/span&gt;" style="text;html=1;strokeColor=none;fillColor=none;align=center;verticalAlign=middle;whiteSpace=wrap;rounded=0;fontSize=12;fontStyle=0" parent="ysA1bHsgNW33P3yiqPTN-116" vertex="1">
          <mxGeometry x="370" y="156" width="50" height="30" as="geometry" />
        </mxCell>
        <mxCell id="OsPYvItqaUhdvfqM2pUW-157" value="marking cycle" style="text;html=1;strokeColor=none;fillColor=none;align=center;verticalAlign=middle;whiteSpace=wrap;rounded=0;fontSize=12;fontStyle=0" parent="ysA1bHsgNW33P3yiqPTN-116" vertex="1">
          <mxGeometry x="170" y="180" width="200" height="16" as="geometry" />
        </mxCell>
        <mxCell id="OsPYvItqaUhdvfqM2pUW-160" value="" style="endArrow=none;html=1;rounded=0;fontSize=12;fontColor=default;strokeColor=#FFE6CC;strokeWidth=4;exitX=1;exitY=1;exitDx=0;exitDy=0;entryX=0.955;entryY=0.68;entryDx=0;entryDy=0;entryPerimeter=0;" parent="ysA1bHsgNW33P3yiqPTN-116" edge="1">
          <mxGeometry width="50" height="50" relative="1" as="geometry">
            <mxPoint x="370" y="146" as="sourcePoint" />
            <mxPoint x="420.20000000000005" y="146" as="targetPoint" />
          </mxGeometry>
        </mxCell>
        <mxCell id="ysA1bHsgNW33P3yiqPTN-136" value="&lt;font style=&quot;font-size: 12px;&quot;&gt;&lt;br style=&quot;font-size: 12px;&quot;&gt;&lt;/font&gt;" style="text;html=1;strokeColor=none;fillColor=none;align=left;verticalAlign=top;whiteSpace=wrap;rounded=0;fontSize=12;fontColor=#97D077;fontStyle=0;spacingTop=0;spacing=0;spacingLeft=8;spacingRight=8;" parent="ysA1bHsgNW33P3yiqPTN-115" vertex="1">
          <mxGeometry x="820" width="310" height="100" as="geometry" />
        </mxCell>
        <mxCell id="ysA1bHsgNW33P3yiqPTN-137" value="&lt;font style=&quot;font-size: 12px;&quot;&gt;&lt;br style=&quot;font-size: 12px;&quot;&gt;&lt;/font&gt;" style="text;html=1;strokeColor=none;fillColor=none;align=left;verticalAlign=top;whiteSpace=wrap;rounded=0;fontSize=12;fontColor=#EA6B66;fontStyle=0;spacing=0;spacingTop=0;spacingLeft=8;spacingRight=8;" parent="ysA1bHsgNW33P3yiqPTN-115" vertex="1">
          <mxGeometry x="820" y="100" width="310" height="100" as="geometry" />
        </mxCell>
        <mxCell id="OsPYvItqaUhdvfqM2pUW-82" value="&lt;font style=&quot;font-size: 12px;&quot;&gt;- use some threads for GS in concurrent stages&lt;br style=&quot;font-size: 12px;&quot;&gt;- floating garbage&lt;br&gt;-&amp;nbsp;humongous objects&lt;br style=&quot;font-size: 12px;&quot;&gt;-&amp;nbsp;allocation (evacuation) failure -&amp;gt; app stop &amp;amp; full GS&lt;br style=&quot;font-size: 12px;&quot;&gt;- need more memory&lt;br style=&quot;font-size: 12px;&quot;&gt;&lt;/font&gt;" style="text;html=1;strokeColor=none;fillColor=none;align=left;verticalAlign=top;whiteSpace=wrap;rounded=0;fontSize=12;fontColor=#EA6B66;fontStyle=0;spacing=0;spacingTop=0;spacingLeft=8;spacingRight=8;" parent="ysA1bHsgNW33P3yiqPTN-115" vertex="1">
          <mxGeometry x="820" y="100" width="310" height="100" as="geometry" />
        </mxCell>
        <mxCell id="OsPYvItqaUhdvfqM2pUW-83" value="&lt;font style=&quot;font-size: 12px;&quot;&gt;+ short STW&lt;br style=&quot;font-size: 12px;&quot;&gt;+ separate execution of minor and major GC&amp;nbsp;&lt;br&gt;+ Heap &amp;gt;= 4 GB&lt;br&gt;+ no memory fragmentation&lt;br style=&quot;font-size: 12px;&quot;&gt;&lt;/font&gt;" style="text;html=1;strokeColor=none;fillColor=none;align=left;verticalAlign=top;whiteSpace=wrap;rounded=0;fontSize=12;fontColor=#97D077;fontStyle=0;spacingTop=0;spacing=0;spacingLeft=8;spacingRight=8;" parent="ysA1bHsgNW33P3yiqPTN-115" vertex="1">
          <mxGeometry x="820" width="310" height="100" as="geometry" />
        </mxCell>
        <mxCell id="OsPYvItqaUhdvfqM2pUW-84" value="" style="group" parent="ysA1bHsgNW33P3yiqPTN-115" vertex="1" connectable="0">
          <mxGeometry x="70" y="56" width="290" height="90" as="geometry" />
        </mxCell>
        <mxCell id="OsPYvItqaUhdvfqM2pUW-12" value="" style="rounded=0;whiteSpace=wrap;html=1;fontSize=16;horizontal=0;fillColor=#d5e8d4;strokeColor=none;" parent="OsPYvItqaUhdvfqM2pUW-84" vertex="1">
          <mxGeometry width="40" height="40" as="geometry" />
        </mxCell>
        <mxCell id="OsPYvItqaUhdvfqM2pUW-13" value="" style="rounded=0;whiteSpace=wrap;html=1;fontSize=16;horizontal=0;fillColor=#dae8fc;strokeColor=none;" parent="OsPYvItqaUhdvfqM2pUW-84" vertex="1">
          <mxGeometry x="50" width="40" height="40" as="geometry" />
        </mxCell>
        <mxCell id="OsPYvItqaUhdvfqM2pUW-14" value="" style="rounded=0;whiteSpace=wrap;html=1;fontSize=16;horizontal=0;fillColor=#dae8fc;strokeColor=none;" parent="OsPYvItqaUhdvfqM2pUW-84" vertex="1">
          <mxGeometry x="100" width="40" height="40" as="geometry" />
        </mxCell>
        <mxCell id="OsPYvItqaUhdvfqM2pUW-15" value="" style="rounded=0;whiteSpace=wrap;html=1;fontSize=16;horizontal=0;fillColor=#ffe6cc;strokeColor=none;" parent="OsPYvItqaUhdvfqM2pUW-84" vertex="1">
          <mxGeometry x="150" width="40" height="40" as="geometry" />
        </mxCell>
        <mxCell id="OsPYvItqaUhdvfqM2pUW-22" value="" style="rounded=0;whiteSpace=wrap;html=1;fontSize=16;horizontal=0;fillColor=#d5e8d4;strokeColor=none;" parent="OsPYvItqaUhdvfqM2pUW-84" vertex="1">
          <mxGeometry x="200" width="40" height="40" as="geometry" />
        </mxCell>
        <mxCell id="OsPYvItqaUhdvfqM2pUW-23" value="" style="rounded=0;whiteSpace=wrap;html=1;fontSize=16;horizontal=0;fillColor=#FFE6CC;strokeColor=none;" parent="OsPYvItqaUhdvfqM2pUW-84" vertex="1">
          <mxGeometry x="250" width="40" height="40" as="geometry" />
        </mxCell>
        <mxCell id="OsPYvItqaUhdvfqM2pUW-53" value="" style="rounded=0;whiteSpace=wrap;html=1;fontSize=16;horizontal=0;fillColor=#ffe6cc;strokeColor=none;" parent="OsPYvItqaUhdvfqM2pUW-84" vertex="1">
          <mxGeometry y="50" width="40" height="40" as="geometry" />
        </mxCell>
        <mxCell id="OsPYvItqaUhdvfqM2pUW-55" value="" style="rounded=0;whiteSpace=wrap;html=1;fontSize=16;horizontal=0;fillColor=#ffe6cc;strokeColor=none;" parent="OsPYvItqaUhdvfqM2pUW-84" vertex="1">
          <mxGeometry x="50" y="50" width="40" height="40" as="geometry" />
        </mxCell>
        <mxCell id="OsPYvItqaUhdvfqM2pUW-56" value="humongous" style="rounded=0;whiteSpace=wrap;html=1;fontSize=14;horizontal=1;fillColor=#ffe6cc;strokeColor=none;" parent="OsPYvItqaUhdvfqM2pUW-84" vertex="1">
          <mxGeometry x="150" y="50" width="90" height="40" as="geometry" />
        </mxCell>
        <mxCell id="OsPYvItqaUhdvfqM2pUW-57" value="" style="rounded=0;whiteSpace=wrap;html=1;fontSize=16;horizontal=0;fillColor=#d5e8d4;strokeColor=none;" parent="OsPYvItqaUhdvfqM2pUW-84" vertex="1">
          <mxGeometry x="100" y="50" width="40" height="40" as="geometry" />
        </mxCell>
        <mxCell id="OsPYvItqaUhdvfqM2pUW-58" value="" style="rounded=0;whiteSpace=wrap;html=1;fontSize=16;horizontal=0;fillColor=#dae8fc;strokeColor=none;" parent="OsPYvItqaUhdvfqM2pUW-84" vertex="1">
          <mxGeometry x="250" y="50" width="40" height="40" as="geometry" />
        </mxCell>
        <mxCell id="OsPYvItqaUhdvfqM2pUW-156" value="" style="endArrow=none;html=1;rounded=0;fontSize=12;fontColor=default;strokeColor=#DAE8FC;strokeWidth=4;exitX=0.386;exitY=0.83;exitDx=0;exitDy=0;exitPerimeter=0;entryX=0.841;entryY=0.83;entryDx=0;entryDy=0;entryPerimeter=0;" parent="ysA1bHsgNW33P3yiqPTN-115" edge="1">
          <mxGeometry width="50" height="50" relative="1" as="geometry">
            <mxPoint x="549.8400000000001" y="176" as="sourcePoint" />
            <mxPoint x="750.0399999999997" y="176" as="targetPoint" />
          </mxGeometry>
        </mxCell>
        <mxCell id="OsPYvItqaUhdvfqM2pUW-159" value="" style="endArrow=none;html=1;rounded=0;fontSize=12;fontColor=default;strokeColor=#D5E8D4;strokeWidth=4;exitX=0.159;exitY=0.68;exitDx=0;exitDy=0;exitPerimeter=0;entryX=0.273;entryY=0.68;entryDx=0;entryDy=0;entryPerimeter=0;" parent="ysA1bHsgNW33P3yiqPTN-115" edge="1">
          <mxGeometry width="50" height="50" relative="1" as="geometry">
            <mxPoint x="449.9599999999998" y="146" as="sourcePoint" />
            <mxPoint x="500.1200000000001" y="146" as="targetPoint" />
          </mxGeometry>
        </mxCell>
        <mxCell id="ysA1bHsgNW33P3yiqPTN-1" value="Serial GC" style="swimlane;horizontal=0;fontSize=16;startSize=50;" parent="1" vertex="1">
          <mxGeometry x="20" y="14" width="1130" height="200" as="geometry" />
        </mxCell>
        <mxCell id="ysA1bHsgNW33P3yiqPTN-21" value="" style="swimlane;startSize=0;fontSize=12;" parent="ysA1bHsgNW33P3yiqPTN-1" vertex="1">
          <mxGeometry x="380" width="440" height="200" as="geometry" />
        </mxCell>
        <mxCell id="OsPYvItqaUhdvfqM2pUW-283" value="&lt;span style=&quot;font-size: 12px;&quot;&gt;&lt;font face=&quot;Arial, Helvetica, sans-serif&quot; style=&quot;font-size: 12px;&quot;&gt;&lt;span style=&quot;font-size: 12px;&quot;&gt;minor&amp;nbsp;&lt;/span&gt;&lt;/font&gt;&lt;/span&gt;&lt;span style=&quot;background-color: initial; font-size: 12px;&quot;&gt;GC&lt;/span&gt;&lt;span style=&quot;font-size: 12px;&quot;&gt;&lt;font face=&quot;Arial, Helvetica, sans-serif&quot; style=&quot;font-size: 12px;&quot;&gt;&lt;span style=&quot;font-size: 12px;&quot;&gt;&lt;br style=&quot;font-size: 12px;&quot;&gt;&lt;/span&gt;&lt;/font&gt;&lt;/span&gt;" style="text;html=1;strokeColor=none;fillColor=none;align=center;verticalAlign=middle;whiteSpace=wrap;rounded=0;fontSize=12;fontStyle=0" parent="ysA1bHsgNW33P3yiqPTN-21" vertex="1">
          <mxGeometry x="135" y="132" width="70" height="24" as="geometry" />
        </mxCell>
        <mxCell id="OsPYvItqaUhdvfqM2pUW-284" value="" style="endArrow=none;html=1;rounded=0;fontSize=12;fontColor=default;strokeColor=#D5E8D4;strokeWidth=4;exitX=0.159;exitY=0.68;exitDx=0;exitDy=0;exitPerimeter=0;entryX=0.273;entryY=0.68;entryDx=0;entryDy=0;entryPerimeter=0;" parent="ysA1bHsgNW33P3yiqPTN-21" edge="1">
          <mxGeometry width="50" height="50" relative="1" as="geometry">
            <mxPoint x="145" y="132" as="sourcePoint" />
            <mxPoint x="195.15999999999985" y="132" as="targetPoint" />
          </mxGeometry>
        </mxCell>
        <mxCell id="OsPYvItqaUhdvfqM2pUW-285" value="" style="endArrow=none;html=1;rounded=0;fontSize=12;fontColor=default;strokeColor=#FFE6CC;strokeWidth=4;" parent="ysA1bHsgNW33P3yiqPTN-21" edge="1">
          <mxGeometry width="50" height="50" relative="1" as="geometry">
            <mxPoint x="145" y="162" as="sourcePoint" />
            <mxPoint x="195" y="162" as="targetPoint" />
          </mxGeometry>
        </mxCell>
        <mxCell id="OsPYvItqaUhdvfqM2pUW-286" value="&lt;span style=&quot;font-size: 12px;&quot;&gt;major GC&lt;br style=&quot;font-size: 12px;&quot;&gt;&lt;/span&gt;" style="text;html=1;strokeColor=none;fillColor=none;align=center;verticalAlign=middle;whiteSpace=wrap;rounded=0;fontSize=12;fontStyle=0" parent="ysA1bHsgNW33P3yiqPTN-21" vertex="1">
          <mxGeometry x="135" y="162" width="70" height="24" as="geometry" />
        </mxCell>
        <mxCell id="OsPYvItqaUhdvfqM2pUW-287" value="" style="group;fontSize=12;" parent="ysA1bHsgNW33P3yiqPTN-21" vertex="1" connectable="0">
          <mxGeometry x="245" y="26" width="50" height="95" as="geometry" />
        </mxCell>
        <mxCell id="OsPYvItqaUhdvfqM2pUW-291" value="" style="html=1;shadow=0;dashed=0;align=center;verticalAlign=middle;shape=mxgraph.arrows2.arrow;dy=0.6;dx=25;notch=0;fontSize=12;fillColor=#f8cecc;strokeColor=none;" parent="OsPYvItqaUhdvfqM2pUW-287" vertex="1">
          <mxGeometry y="40" width="50" height="15" as="geometry" />
        </mxCell>
        <mxCell id="OsPYvItqaUhdvfqM2pUW-293" value="" style="group;fontSize=12;" parent="ysA1bHsgNW33P3yiqPTN-21" vertex="1" connectable="0">
          <mxGeometry x="145" y="26" width="50" height="95" as="geometry" />
        </mxCell>
        <mxCell id="OsPYvItqaUhdvfqM2pUW-297" value="" style="html=1;shadow=0;dashed=0;align=center;verticalAlign=middle;shape=mxgraph.arrows2.arrow;dy=0.6;dx=25;notch=0;fontSize=12;fillColor=#f8cecc;strokeColor=none;" parent="OsPYvItqaUhdvfqM2pUW-293" vertex="1">
          <mxGeometry y="40" width="50" height="15" as="geometry" />
        </mxCell>
        <mxCell id="OsPYvItqaUhdvfqM2pUW-299" value="" style="group;fontSize=12;" parent="ysA1bHsgNW33P3yiqPTN-21" vertex="1" connectable="0">
          <mxGeometry x="95" y="26" width="50" height="95" as="geometry" />
        </mxCell>
        <mxCell id="OsPYvItqaUhdvfqM2pUW-300" value="" style="html=1;shadow=0;dashed=0;align=center;verticalAlign=middle;shape=mxgraph.arrows2.arrow;dy=0.6;dx=25;notch=0;fontSize=12;fillColor=#d5e8d4;strokeColor=none;" parent="OsPYvItqaUhdvfqM2pUW-299" vertex="1">
          <mxGeometry width="50" height="15" as="geometry" />
        </mxCell>
        <mxCell id="OsPYvItqaUhdvfqM2pUW-301" value="" style="html=1;shadow=0;dashed=0;align=center;verticalAlign=middle;shape=mxgraph.arrows2.arrow;dy=0.6;dx=25;notch=0;fontSize=12;fillColor=#d5e8d4;strokeColor=none;" parent="OsPYvItqaUhdvfqM2pUW-299" vertex="1">
          <mxGeometry y="20" width="50" height="15" as="geometry" />
        </mxCell>
        <mxCell id="OsPYvItqaUhdvfqM2pUW-302" value="" style="html=1;shadow=0;dashed=0;align=center;verticalAlign=middle;shape=mxgraph.arrows2.arrow;dy=0.6;dx=25;notch=0;fontSize=12;fillColor=#d5e8d4;strokeColor=none;" parent="OsPYvItqaUhdvfqM2pUW-299" vertex="1">
          <mxGeometry y="60" width="50" height="15" as="geometry" />
        </mxCell>
        <mxCell id="OsPYvItqaUhdvfqM2pUW-303" value="" style="html=1;shadow=0;dashed=0;align=center;verticalAlign=middle;shape=mxgraph.arrows2.arrow;dy=0.6;dx=25;notch=0;fontSize=12;fillColor=#d5e8d4;strokeColor=none;" parent="OsPYvItqaUhdvfqM2pUW-299" vertex="1">
          <mxGeometry y="40" width="50" height="15" as="geometry" />
        </mxCell>
        <mxCell id="OsPYvItqaUhdvfqM2pUW-304" value="" style="html=1;shadow=0;dashed=0;align=center;verticalAlign=middle;shape=mxgraph.arrows2.arrow;dy=0.6;dx=25;notch=0;fontSize=12;fillColor=#d5e8d4;strokeColor=none;" parent="OsPYvItqaUhdvfqM2pUW-299" vertex="1">
          <mxGeometry y="80" width="50" height="15" as="geometry" />
        </mxCell>
        <mxCell id="OsPYvItqaUhdvfqM2pUW-305" value="" style="group;fontSize=12;" parent="ysA1bHsgNW33P3yiqPTN-21" vertex="1" connectable="0">
          <mxGeometry x="195" y="26" width="50" height="95" as="geometry" />
        </mxCell>
        <mxCell id="OsPYvItqaUhdvfqM2pUW-306" value="" style="html=1;shadow=0;dashed=0;align=center;verticalAlign=middle;shape=mxgraph.arrows2.arrow;dy=0.6;dx=25;notch=0;fontSize=12;fillColor=#d5e8d4;strokeColor=none;" parent="OsPYvItqaUhdvfqM2pUW-305" vertex="1">
          <mxGeometry width="50" height="15" as="geometry" />
        </mxCell>
        <mxCell id="OsPYvItqaUhdvfqM2pUW-307" value="" style="html=1;shadow=0;dashed=0;align=center;verticalAlign=middle;shape=mxgraph.arrows2.arrow;dy=0.6;dx=25;notch=0;fontSize=12;fillColor=#d5e8d4;strokeColor=none;" parent="OsPYvItqaUhdvfqM2pUW-305" vertex="1">
          <mxGeometry y="20" width="50" height="15" as="geometry" />
        </mxCell>
        <mxCell id="OsPYvItqaUhdvfqM2pUW-308" value="" style="html=1;shadow=0;dashed=0;align=center;verticalAlign=middle;shape=mxgraph.arrows2.arrow;dy=0.6;dx=25;notch=0;fontSize=12;fillColor=#d5e8d4;strokeColor=none;" parent="OsPYvItqaUhdvfqM2pUW-305" vertex="1">
          <mxGeometry y="60" width="50" height="15" as="geometry" />
        </mxCell>
        <mxCell id="OsPYvItqaUhdvfqM2pUW-309" value="" style="html=1;shadow=0;dashed=0;align=center;verticalAlign=middle;shape=mxgraph.arrows2.arrow;dy=0.6;dx=25;notch=0;fontSize=12;fillColor=#d5e8d4;strokeColor=none;" parent="OsPYvItqaUhdvfqM2pUW-305" vertex="1">
          <mxGeometry y="40" width="50" height="15" as="geometry" />
        </mxCell>
        <mxCell id="OsPYvItqaUhdvfqM2pUW-310" value="" style="html=1;shadow=0;dashed=0;align=center;verticalAlign=middle;shape=mxgraph.arrows2.arrow;dy=0.6;dx=25;notch=0;fontSize=12;fillColor=#d5e8d4;strokeColor=none;" parent="OsPYvItqaUhdvfqM2pUW-305" vertex="1">
          <mxGeometry y="80" width="50" height="15" as="geometry" />
        </mxCell>
        <mxCell id="OsPYvItqaUhdvfqM2pUW-311" value="" style="group;fontSize=12;" parent="ysA1bHsgNW33P3yiqPTN-21" vertex="1" connectable="0">
          <mxGeometry x="295" y="26" width="50" height="95" as="geometry" />
        </mxCell>
        <mxCell id="OsPYvItqaUhdvfqM2pUW-312" value="" style="html=1;shadow=0;dashed=0;align=center;verticalAlign=middle;shape=mxgraph.arrows2.arrow;dy=0.6;dx=25;notch=0;fontSize=12;fillColor=#d5e8d4;strokeColor=none;" parent="OsPYvItqaUhdvfqM2pUW-311" vertex="1">
          <mxGeometry width="50" height="15" as="geometry" />
        </mxCell>
        <mxCell id="OsPYvItqaUhdvfqM2pUW-313" value="" style="html=1;shadow=0;dashed=0;align=center;verticalAlign=middle;shape=mxgraph.arrows2.arrow;dy=0.6;dx=25;notch=0;fontSize=12;fillColor=#d5e8d4;strokeColor=none;" parent="OsPYvItqaUhdvfqM2pUW-311" vertex="1">
          <mxGeometry y="20" width="50" height="15" as="geometry" />
        </mxCell>
        <mxCell id="OsPYvItqaUhdvfqM2pUW-314" value="" style="html=1;shadow=0;dashed=0;align=center;verticalAlign=middle;shape=mxgraph.arrows2.arrow;dy=0.6;dx=25;notch=0;fontSize=12;fillColor=#d5e8d4;strokeColor=none;" parent="OsPYvItqaUhdvfqM2pUW-311" vertex="1">
          <mxGeometry y="60" width="50" height="15" as="geometry" />
        </mxCell>
        <mxCell id="OsPYvItqaUhdvfqM2pUW-315" value="" style="html=1;shadow=0;dashed=0;align=center;verticalAlign=middle;shape=mxgraph.arrows2.arrow;dy=0.6;dx=25;notch=0;fontSize=12;fillColor=#d5e8d4;strokeColor=none;" parent="OsPYvItqaUhdvfqM2pUW-311" vertex="1">
          <mxGeometry y="40" width="50" height="15" as="geometry" />
        </mxCell>
        <mxCell id="OsPYvItqaUhdvfqM2pUW-316" value="" style="html=1;shadow=0;dashed=0;align=center;verticalAlign=middle;shape=mxgraph.arrows2.arrow;dy=0.6;dx=25;notch=0;fontSize=12;fillColor=#d5e8d4;strokeColor=none;" parent="OsPYvItqaUhdvfqM2pUW-311" vertex="1">
          <mxGeometry y="80" width="50" height="15" as="geometry" />
        </mxCell>
        <mxCell id="OsPYvItqaUhdvfqM2pUW-317" value="&lt;span style=&quot;font-size: 12px;&quot;&gt;&lt;font face=&quot;Arial, Helvetica, sans-serif&quot; style=&quot;font-size: 12px;&quot;&gt;&lt;span style=&quot;font-size: 12px;&quot;&gt;minor&amp;nbsp;&lt;/span&gt;&lt;/font&gt;&lt;/span&gt;&lt;span style=&quot;background-color: initial; font-size: 12px;&quot;&gt;GC&lt;/span&gt;&lt;span style=&quot;font-size: 12px;&quot;&gt;&lt;font face=&quot;Arial, Helvetica, sans-serif&quot; style=&quot;font-size: 12px;&quot;&gt;&lt;span style=&quot;font-size: 12px;&quot;&gt;&lt;br style=&quot;font-size: 12px;&quot;&gt;&lt;/span&gt;&lt;/font&gt;&lt;/span&gt;" style="text;html=1;strokeColor=none;fillColor=none;align=center;verticalAlign=middle;whiteSpace=wrap;rounded=0;fontSize=12;fontStyle=0" parent="ysA1bHsgNW33P3yiqPTN-21" vertex="1">
          <mxGeometry x="235" y="132" width="70" height="24" as="geometry" />
        </mxCell>
        <mxCell id="OsPYvItqaUhdvfqM2pUW-318" value="" style="endArrow=none;html=1;rounded=0;fontSize=12;fontColor=default;strokeColor=#D5E8D4;strokeWidth=4;exitX=0.159;exitY=0.68;exitDx=0;exitDy=0;exitPerimeter=0;entryX=0.273;entryY=0.68;entryDx=0;entryDy=0;entryPerimeter=0;" parent="ysA1bHsgNW33P3yiqPTN-21" edge="1">
          <mxGeometry width="50" height="50" relative="1" as="geometry">
            <mxPoint x="245.00000000000045" y="132" as="sourcePoint" />
            <mxPoint x="295.1600000000003" y="132" as="targetPoint" />
          </mxGeometry>
        </mxCell>
        <mxCell id="OsPYvItqaUhdvfqM2pUW-319" value="" style="endArrow=none;html=1;rounded=0;fontSize=12;fontColor=default;strokeColor=#FFE6CC;strokeWidth=4;" parent="ysA1bHsgNW33P3yiqPTN-21" edge="1">
          <mxGeometry width="50" height="50" relative="1" as="geometry">
            <mxPoint x="245" y="162" as="sourcePoint" />
            <mxPoint x="295" y="162" as="targetPoint" />
          </mxGeometry>
        </mxCell>
        <mxCell id="OsPYvItqaUhdvfqM2pUW-320" value="&lt;span style=&quot;font-size: 12px;&quot;&gt;major GC&lt;br style=&quot;font-size: 12px;&quot;&gt;&lt;/span&gt;" style="text;html=1;strokeColor=none;fillColor=none;align=center;verticalAlign=middle;whiteSpace=wrap;rounded=0;fontSize=12;fontStyle=0" parent="ysA1bHsgNW33P3yiqPTN-21" vertex="1">
          <mxGeometry x="235" y="162" width="70" height="24" as="geometry" />
        </mxCell>
        <mxCell id="v6ISCfUJBkIhkLPFKyvD-218" value="" style="html=1;shadow=0;dashed=0;align=center;verticalAlign=middle;shape=mxgraph.arrows2.arrow;dy=0.6;dx=25;notch=0;fontSize=12;fillColor=#d5e8d4;strokeColor=none;" parent="ysA1bHsgNW33P3yiqPTN-21" vertex="1">
          <mxGeometry x="10" y="147" width="50" height="15" as="geometry" />
        </mxCell>
        <mxCell id="v6ISCfUJBkIhkLPFKyvD-219" value="&lt;span style=&quot;font-size: 12px;&quot;&gt;&lt;font face=&quot;Arial, Helvetica, sans-serif&quot; style=&quot;font-size: 12px;&quot;&gt;&lt;span style=&quot;font-size: 12px;&quot;&gt;app&lt;br style=&quot;font-size: 12px;&quot;&gt;&lt;/span&gt;&lt;/font&gt;&lt;/span&gt;" style="text;html=1;strokeColor=none;fillColor=none;align=center;verticalAlign=middle;whiteSpace=wrap;rounded=0;fontSize=12;fontStyle=0" parent="ysA1bHsgNW33P3yiqPTN-21" vertex="1">
          <mxGeometry x="60" y="147" width="30" height="15" as="geometry" />
        </mxCell>
        <mxCell id="v6ISCfUJBkIhkLPFKyvD-220" value="" style="html=1;shadow=0;dashed=0;align=center;verticalAlign=middle;shape=mxgraph.arrows2.arrow;dy=0.6;dx=25;notch=0;fontSize=12;fillColor=#f8cecc;strokeColor=none;" parent="ysA1bHsgNW33P3yiqPTN-21" vertex="1">
          <mxGeometry x="10" y="168.5" width="50" height="15" as="geometry" />
        </mxCell>
        <mxCell id="v6ISCfUJBkIhkLPFKyvD-221" value="&lt;span style=&quot;font-size: 12px;&quot;&gt;&lt;font face=&quot;Arial, Helvetica, sans-serif&quot; style=&quot;font-size: 12px;&quot;&gt;&lt;span style=&quot;font-size: 12px;&quot;&gt;GC&lt;br style=&quot;font-size: 12px;&quot;&gt;&lt;/span&gt;&lt;/font&gt;&lt;/span&gt;" style="text;html=1;strokeColor=none;fillColor=none;align=center;verticalAlign=middle;whiteSpace=wrap;rounded=0;fontSize=12;fontStyle=0" parent="ysA1bHsgNW33P3yiqPTN-21" vertex="1">
          <mxGeometry x="60" y="168.5" width="30" height="15" as="geometry" />
        </mxCell>
        <mxCell id="ysA1bHsgNW33P3yiqPTN-54" value="&lt;font style=&quot;font-size: 12px;&quot;&gt;+ weak PCs with one core processor&lt;br style=&quot;font-size: 12px;&quot;&gt;+ Heap ~ 100 Mb&lt;br style=&quot;font-size: 12px;&quot;&gt;&lt;/font&gt;" style="text;html=1;strokeColor=none;fillColor=none;align=left;verticalAlign=top;whiteSpace=wrap;rounded=0;fontSize=12;fontColor=#97D077;fontStyle=0;spacingTop=0;spacing=0;spacingLeft=8;spacingRight=8;" parent="ysA1bHsgNW33P3yiqPTN-1" vertex="1">
          <mxGeometry x="820" width="310" height="100" as="geometry" />
        </mxCell>
        <mxCell id="ysA1bHsgNW33P3yiqPTN-55" value="&lt;font style=&quot;font-size: 12px;&quot;&gt;- always full app stop for GC&lt;br style=&quot;font-size: 12px;&quot;&gt;- long STW on huge data&lt;br style=&quot;font-size: 12px;&quot;&gt;&lt;/font&gt;" style="text;html=1;strokeColor=none;fillColor=none;align=left;verticalAlign=top;whiteSpace=wrap;rounded=0;fontSize=12;fontColor=#EA6B66;fontStyle=0;spacingTop=0;spacing=0;spacingLeft=8;spacingRight=8;" parent="ysA1bHsgNW33P3yiqPTN-1" vertex="1">
          <mxGeometry x="820" y="100" width="310" height="100" as="geometry" />
        </mxCell>
        <mxCell id="OsPYvItqaUhdvfqM2pUW-10" value="" style="group" parent="ysA1bHsgNW33P3yiqPTN-1" vertex="1" connectable="0">
          <mxGeometry x="60" y="46" width="310" height="80" as="geometry" />
        </mxCell>
        <mxCell id="ysA1bHsgNW33P3yiqPTN-103" value="" style="rounded=0;whiteSpace=wrap;html=1;fontSize=16;horizontal=0;fillColor=#d5e8d4;strokeColor=none;" parent="OsPYvItqaUhdvfqM2pUW-10" vertex="1">
          <mxGeometry y="40" width="40" height="40" as="geometry" />
        </mxCell>
        <mxCell id="ysA1bHsgNW33P3yiqPTN-104" value="" style="rounded=0;whiteSpace=wrap;html=1;fontSize=16;horizontal=0;fillColor=#dae8fc;strokeColor=none;" parent="OsPYvItqaUhdvfqM2pUW-10" vertex="1">
          <mxGeometry x="50" y="40" width="20" height="40" as="geometry" />
        </mxCell>
        <mxCell id="ysA1bHsgNW33P3yiqPTN-105" value="" style="rounded=0;whiteSpace=wrap;html=1;fontSize=16;horizontal=0;fillColor=#dae8fc;strokeColor=none;" parent="OsPYvItqaUhdvfqM2pUW-10" vertex="1">
          <mxGeometry x="80" y="40" width="20" height="40" as="geometry" />
        </mxCell>
        <mxCell id="ysA1bHsgNW33P3yiqPTN-106" value="" style="rounded=0;whiteSpace=wrap;html=1;fontSize=16;horizontal=0;fillColor=#ffe6cc;strokeColor=none;" parent="OsPYvItqaUhdvfqM2pUW-10" vertex="1">
          <mxGeometry x="110" y="40" width="200" height="40" as="geometry" />
        </mxCell>
        <mxCell id="OsPYvItqaUhdvfqM2pUW-2" value="&lt;b style=&quot;font-size: 14px;&quot;&gt;Young&lt;/b&gt;" style="text;html=1;strokeColor=none;fillColor=none;align=center;verticalAlign=middle;whiteSpace=wrap;rounded=0;fontSize=14;" parent="OsPYvItqaUhdvfqM2pUW-10" vertex="1">
          <mxGeometry width="100" height="30" as="geometry" />
        </mxCell>
        <mxCell id="OsPYvItqaUhdvfqM2pUW-3" value="&lt;b style=&quot;font-size: 14px;&quot;&gt;Old&lt;/b&gt;" style="text;html=1;strokeColor=none;fillColor=none;align=center;verticalAlign=middle;whiteSpace=wrap;rounded=0;fontSize=14;" parent="OsPYvItqaUhdvfqM2pUW-10" vertex="1">
          <mxGeometry x="110" width="200" height="30" as="geometry" />
        </mxCell>
        <mxCell id="OsPYvItqaUhdvfqM2pUW-5" value="" style="endArrow=none;html=1;rounded=0;fontColor=default;fillColor=#ffe6cc;strokeColor=#FFE6CC;strokeWidth=4;" parent="OsPYvItqaUhdvfqM2pUW-10" edge="1">
          <mxGeometry width="50" height="50" relative="1" as="geometry">
            <mxPoint x="110" y="30" as="sourcePoint" />
            <mxPoint x="310" y="30" as="targetPoint" />
          </mxGeometry>
        </mxCell>
        <mxCell id="OsPYvItqaUhdvfqM2pUW-4" value="" style="endArrow=none;html=1;rounded=0;fontColor=default;fillColor=#d5e8d4;strokeColor=#D5E8D4;strokeWidth=4;" parent="OsPYvItqaUhdvfqM2pUW-10" edge="1">
          <mxGeometry width="50" height="50" relative="1" as="geometry">
            <mxPoint y="29" as="sourcePoint" />
            <mxPoint x="100" y="29" as="targetPoint" />
          </mxGeometry>
        </mxCell>
        <mxCell id="OsPYvItqaUhdvfqM2pUW-339" value="" style="rounded=0;whiteSpace=wrap;html=1;fontSize=16;horizontal=0;fillColor=#d5e8d4;strokeColor=none;" parent="ysA1bHsgNW33P3yiqPTN-1" vertex="1">
          <mxGeometry x="60" y="166" width="20" height="20" as="geometry" />
        </mxCell>
        <mxCell id="OsPYvItqaUhdvfqM2pUW-340" value="Elder" style="text;html=1;strokeColor=none;fillColor=none;align=center;verticalAlign=middle;whiteSpace=wrap;rounded=0;shadow=0;glass=0;labelBackgroundColor=none;labelBorderColor=none;comic=0;sketch=0;fontSize=14;fontColor=default;" parent="ysA1bHsgNW33P3yiqPTN-1" vertex="1">
          <mxGeometry x="80" y="166" width="60" height="20" as="geometry" />
        </mxCell>
        <mxCell id="OsPYvItqaUhdvfqM2pUW-341" value="" style="rounded=0;whiteSpace=wrap;html=1;fontSize=16;horizontal=0;fillColor=#DAE8FC;strokeColor=none;" parent="ysA1bHsgNW33P3yiqPTN-1" vertex="1">
          <mxGeometry x="140" y="166" width="20" height="20" as="geometry" />
        </mxCell>
        <mxCell id="OsPYvItqaUhdvfqM2pUW-342" value="Suvivor" style="text;html=1;strokeColor=none;fillColor=none;align=center;verticalAlign=middle;whiteSpace=wrap;rounded=0;shadow=0;glass=0;labelBackgroundColor=none;labelBorderColor=none;comic=0;sketch=0;fontSize=14;fontColor=default;" parent="ysA1bHsgNW33P3yiqPTN-1" vertex="1">
          <mxGeometry x="160" y="166" width="60" height="20" as="geometry" />
        </mxCell>
        <mxCell id="OsPYvItqaUhdvfqM2pUW-343" value="" style="rounded=0;whiteSpace=wrap;html=1;fontSize=16;horizontal=0;fillColor=#FFE6CC;strokeColor=none;" parent="ysA1bHsgNW33P3yiqPTN-1" vertex="1">
          <mxGeometry x="230" y="166" width="20" height="20" as="geometry" />
        </mxCell>
        <mxCell id="OsPYvItqaUhdvfqM2pUW-344" value="Tenured" style="text;html=1;strokeColor=none;fillColor=none;align=center;verticalAlign=middle;whiteSpace=wrap;rounded=0;shadow=0;glass=0;labelBackgroundColor=none;labelBorderColor=none;comic=0;sketch=0;fontSize=14;fontColor=default;" parent="ysA1bHsgNW33P3yiqPTN-1" vertex="1">
          <mxGeometry x="250" y="166" width="60" height="20" as="geometry" />
        </mxCell>
        <mxCell id="GrgNrJ82PVt_7jwWLZF3-1" value="Z Garbage Collector&#xa;(ZGC)" style="swimlane;horizontal=0;fontSize=16;startSize=50;" parent="1" vertex="1">
          <mxGeometry x="20" y="840" width="1130" height="200" as="geometry" />
        </mxCell>
        <mxCell id="GrgNrJ82PVt_7jwWLZF3-2" value="" style="swimlane;startSize=0;fontSize=12;" parent="GrgNrJ82PVt_7jwWLZF3-1" vertex="1">
          <mxGeometry x="380" width="440" height="200" as="geometry" />
        </mxCell>
        <mxCell id="GrgNrJ82PVt_7jwWLZF3-3" value="&lt;span style=&quot;font-size: 12px;&quot;&gt;pause&lt;br&gt;mark&lt;br&gt;end&lt;br&gt;&lt;/span&gt;" style="text;html=1;strokeColor=none;fillColor=none;align=center;verticalAlign=middle;whiteSpace=wrap;rounded=0;fontSize=12;fontStyle=0" parent="GrgNrJ82PVt_7jwWLZF3-2" vertex="1">
          <mxGeometry x="170" y="150" width="50" height="40" as="geometry" />
        </mxCell>
        <mxCell id="GrgNrJ82PVt_7jwWLZF3-4" value="&lt;span style=&quot;font-size: 12px;&quot;&gt;pause&lt;br&gt;relocate&lt;br&gt;start&lt;br&gt;&lt;/span&gt;" style="text;html=1;strokeColor=none;fillColor=none;align=center;verticalAlign=middle;whiteSpace=wrap;rounded=0;fontSize=12;fontStyle=0" parent="GrgNrJ82PVt_7jwWLZF3-2" vertex="1">
          <mxGeometry x="270" y="150" width="50" height="40" as="geometry" />
        </mxCell>
        <mxCell id="GrgNrJ82PVt_7jwWLZF3-5" value="concurrent prepare for relocate" style="text;html=1;strokeColor=none;fillColor=none;align=center;verticalAlign=middle;whiteSpace=wrap;rounded=0;fontSize=12;fontStyle=0" parent="GrgNrJ82PVt_7jwWLZF3-2" vertex="1">
          <mxGeometry x="215" y="116" width="60" height="60" as="geometry" />
        </mxCell>
        <mxCell id="GrgNrJ82PVt_7jwWLZF3-6" value="&lt;span style=&quot;font-size: 12px;&quot;&gt;concurrent&lt;br&gt;relocate&lt;br style=&quot;font-size: 12px;&quot;&gt;&lt;/span&gt;" style="text;html=1;strokeColor=none;fillColor=none;align=center;verticalAlign=middle;whiteSpace=wrap;rounded=0;fontSize=12;fontStyle=0" parent="GrgNrJ82PVt_7jwWLZF3-2" vertex="1">
          <mxGeometry x="320" y="116" width="50" height="30" as="geometry" />
        </mxCell>
        <mxCell id="GrgNrJ82PVt_7jwWLZF3-7" value="pause mark start" style="text;html=1;strokeColor=none;fillColor=none;align=center;verticalAlign=middle;whiteSpace=wrap;rounded=0;fontSize=12;fontStyle=0" parent="GrgNrJ82PVt_7jwWLZF3-2" vertex="1">
          <mxGeometry x="70" y="150" width="50" height="40" as="geometry" />
        </mxCell>
        <mxCell id="GrgNrJ82PVt_7jwWLZF3-8" value="" style="group;fontSize=12;" parent="GrgNrJ82PVt_7jwWLZF3-2" vertex="1" connectable="0">
          <mxGeometry x="370" y="20" width="50" height="95" as="geometry" />
        </mxCell>
        <mxCell id="GrgNrJ82PVt_7jwWLZF3-9" value="" style="html=1;shadow=0;dashed=0;align=center;verticalAlign=middle;shape=mxgraph.arrows2.arrow;dy=0.6;dx=25;notch=0;fontSize=12;fillColor=#D5E8D4;strokeColor=none;" parent="GrgNrJ82PVt_7jwWLZF3-8" vertex="1">
          <mxGeometry y="40" width="50" height="15" as="geometry" />
        </mxCell>
        <mxCell id="GrgNrJ82PVt_7jwWLZF3-10" value="" style="html=1;shadow=0;dashed=0;align=center;verticalAlign=middle;shape=mxgraph.arrows2.arrow;dy=0.6;dx=25;notch=0;fontSize=12;fillColor=#D5E8D4;strokeColor=none;" parent="GrgNrJ82PVt_7jwWLZF3-8" vertex="1">
          <mxGeometry width="50" height="15" as="geometry" />
        </mxCell>
        <mxCell id="GrgNrJ82PVt_7jwWLZF3-11" value="" style="html=1;shadow=0;dashed=0;align=center;verticalAlign=middle;shape=mxgraph.arrows2.arrow;dy=0.6;dx=25;notch=0;fontSize=12;fillColor=#D5E8D4;strokeColor=none;" parent="GrgNrJ82PVt_7jwWLZF3-8" vertex="1">
          <mxGeometry y="20" width="50" height="15" as="geometry" />
        </mxCell>
        <mxCell id="GrgNrJ82PVt_7jwWLZF3-12" value="" style="html=1;shadow=0;dashed=0;align=center;verticalAlign=middle;shape=mxgraph.arrows2.arrow;dy=0.6;dx=25;notch=0;fontSize=12;fillColor=#f8cecc;strokeColor=none;" parent="GrgNrJ82PVt_7jwWLZF3-8" vertex="1">
          <mxGeometry y="60" width="50" height="15" as="geometry" />
        </mxCell>
        <mxCell id="GrgNrJ82PVt_7jwWLZF3-13" value="" style="html=1;shadow=0;dashed=0;align=center;verticalAlign=middle;shape=mxgraph.arrows2.arrow;dy=0.6;dx=25;notch=0;fontSize=12;fillColor=#f8cecc;strokeColor=none;" parent="GrgNrJ82PVt_7jwWLZF3-8" vertex="1">
          <mxGeometry y="80" width="50" height="15" as="geometry" />
        </mxCell>
        <mxCell id="GrgNrJ82PVt_7jwWLZF3-14" value="" style="group;fontSize=12;" parent="GrgNrJ82PVt_7jwWLZF3-2" vertex="1" connectable="0">
          <mxGeometry x="320" y="20" width="50" height="95" as="geometry" />
        </mxCell>
        <mxCell id="GrgNrJ82PVt_7jwWLZF3-15" value="" style="html=1;shadow=0;dashed=0;align=center;verticalAlign=middle;shape=mxgraph.arrows2.arrow;dy=0.6;dx=25;notch=0;fontSize=12;fillColor=#d5e8d4;strokeColor=none;" parent="GrgNrJ82PVt_7jwWLZF3-14" vertex="1">
          <mxGeometry width="50" height="15" as="geometry" />
        </mxCell>
        <mxCell id="GrgNrJ82PVt_7jwWLZF3-16" value="" style="html=1;shadow=0;dashed=0;align=center;verticalAlign=middle;shape=mxgraph.arrows2.arrow;dy=0.6;dx=25;notch=0;fontSize=12;fillColor=#d5e8d4;strokeColor=none;" parent="GrgNrJ82PVt_7jwWLZF3-14" vertex="1">
          <mxGeometry y="20" width="50" height="15" as="geometry" />
        </mxCell>
        <mxCell id="GrgNrJ82PVt_7jwWLZF3-17" value="" style="html=1;shadow=0;dashed=0;align=center;verticalAlign=middle;shape=mxgraph.arrows2.arrow;dy=0.6;dx=25;notch=0;fontSize=12;fillColor=#f8cecc;strokeColor=none;" parent="GrgNrJ82PVt_7jwWLZF3-14" vertex="1">
          <mxGeometry y="60" width="50" height="15" as="geometry" />
        </mxCell>
        <mxCell id="GrgNrJ82PVt_7jwWLZF3-18" value="" style="html=1;shadow=0;dashed=0;align=center;verticalAlign=middle;shape=mxgraph.arrows2.arrow;dy=0.6;dx=25;notch=0;fontSize=12;fillColor=#d5e8d4;strokeColor=none;" parent="GrgNrJ82PVt_7jwWLZF3-14" vertex="1">
          <mxGeometry y="40" width="50" height="15" as="geometry" />
        </mxCell>
        <mxCell id="GrgNrJ82PVt_7jwWLZF3-19" value="" style="html=1;shadow=0;dashed=0;align=center;verticalAlign=middle;shape=mxgraph.arrows2.arrow;dy=0.6;dx=25;notch=0;fontSize=12;fillColor=#f8cecc;strokeColor=none;" parent="GrgNrJ82PVt_7jwWLZF3-14" vertex="1">
          <mxGeometry y="80" width="50" height="15" as="geometry" />
        </mxCell>
        <mxCell id="GrgNrJ82PVt_7jwWLZF3-20" value="" style="group;fontSize=12;" parent="GrgNrJ82PVt_7jwWLZF3-2" vertex="1" connectable="0">
          <mxGeometry x="270" y="20" width="50" height="95" as="geometry" />
        </mxCell>
        <mxCell id="GrgNrJ82PVt_7jwWLZF3-21" value="" style="html=1;shadow=0;dashed=0;align=center;verticalAlign=middle;shape=mxgraph.arrows2.arrow;dy=0.6;dx=25;notch=0;fontSize=12;fillColor=#f8cecc;strokeColor=none;" parent="GrgNrJ82PVt_7jwWLZF3-20" vertex="1">
          <mxGeometry y="60" width="50" height="15" as="geometry" />
        </mxCell>
        <mxCell id="GrgNrJ82PVt_7jwWLZF3-22" value="" style="html=1;shadow=0;dashed=0;align=center;verticalAlign=middle;shape=mxgraph.arrows2.arrow;dy=0.6;dx=25;notch=0;fontSize=12;fillColor=#f8cecc;strokeColor=none;" parent="GrgNrJ82PVt_7jwWLZF3-20" vertex="1">
          <mxGeometry width="50" height="15" as="geometry" />
        </mxCell>
        <mxCell id="GrgNrJ82PVt_7jwWLZF3-23" value="" style="html=1;shadow=0;dashed=0;align=center;verticalAlign=middle;shape=mxgraph.arrows2.arrow;dy=0.6;dx=25;notch=0;fontSize=12;fillColor=#f8cecc;strokeColor=none;" parent="GrgNrJ82PVt_7jwWLZF3-20" vertex="1">
          <mxGeometry y="20" width="50" height="15" as="geometry" />
        </mxCell>
        <mxCell id="GrgNrJ82PVt_7jwWLZF3-24" value="" style="html=1;shadow=0;dashed=0;align=center;verticalAlign=middle;shape=mxgraph.arrows2.arrow;dy=0.6;dx=25;notch=0;fontSize=12;fillColor=#f8cecc;strokeColor=none;" parent="GrgNrJ82PVt_7jwWLZF3-20" vertex="1">
          <mxGeometry y="40" width="50" height="15" as="geometry" />
        </mxCell>
        <mxCell id="GrgNrJ82PVt_7jwWLZF3-25" value="" style="html=1;shadow=0;dashed=0;align=center;verticalAlign=middle;shape=mxgraph.arrows2.arrow;dy=0.6;dx=25;notch=0;fontSize=12;fillColor=#f8cecc;strokeColor=none;" parent="GrgNrJ82PVt_7jwWLZF3-20" vertex="1">
          <mxGeometry y="80" width="50" height="15" as="geometry" />
        </mxCell>
        <mxCell id="GrgNrJ82PVt_7jwWLZF3-26" value="" style="group;fontSize=12;" parent="GrgNrJ82PVt_7jwWLZF3-2" vertex="1" connectable="0">
          <mxGeometry x="220" y="20" width="50" height="95" as="geometry" />
        </mxCell>
        <mxCell id="GrgNrJ82PVt_7jwWLZF3-27" value="" style="html=1;shadow=0;dashed=0;align=center;verticalAlign=middle;shape=mxgraph.arrows2.arrow;dy=0.6;dx=25;notch=0;fontSize=12;fillColor=#d5e8d4;strokeColor=none;" parent="GrgNrJ82PVt_7jwWLZF3-26" vertex="1">
          <mxGeometry width="50" height="15" as="geometry" />
        </mxCell>
        <mxCell id="GrgNrJ82PVt_7jwWLZF3-28" value="" style="html=1;shadow=0;dashed=0;align=center;verticalAlign=middle;shape=mxgraph.arrows2.arrow;dy=0.6;dx=25;notch=0;fontSize=12;fillColor=#d5e8d4;strokeColor=none;" parent="GrgNrJ82PVt_7jwWLZF3-26" vertex="1">
          <mxGeometry y="20" width="50" height="15" as="geometry" />
        </mxCell>
        <mxCell id="GrgNrJ82PVt_7jwWLZF3-29" value="" style="html=1;shadow=0;dashed=0;align=center;verticalAlign=middle;shape=mxgraph.arrows2.arrow;dy=0.6;dx=25;notch=0;fontSize=12;fillColor=#f8cecc;strokeColor=none;" parent="GrgNrJ82PVt_7jwWLZF3-26" vertex="1">
          <mxGeometry y="60" width="50" height="15" as="geometry" />
        </mxCell>
        <mxCell id="GrgNrJ82PVt_7jwWLZF3-30" value="" style="html=1;shadow=0;dashed=0;align=center;verticalAlign=middle;shape=mxgraph.arrows2.arrow;dy=0.6;dx=25;notch=0;fontSize=12;fillColor=#d5e8d4;strokeColor=none;" parent="GrgNrJ82PVt_7jwWLZF3-26" vertex="1">
          <mxGeometry y="40" width="50" height="15" as="geometry" />
        </mxCell>
        <mxCell id="GrgNrJ82PVt_7jwWLZF3-31" value="" style="html=1;shadow=0;dashed=0;align=center;verticalAlign=middle;shape=mxgraph.arrows2.arrow;dy=0.6;dx=25;notch=0;fontSize=12;fillColor=#f8cecc;strokeColor=none;" parent="GrgNrJ82PVt_7jwWLZF3-26" vertex="1">
          <mxGeometry y="80" width="50" height="15" as="geometry" />
        </mxCell>
        <mxCell id="GrgNrJ82PVt_7jwWLZF3-32" value="" style="group;fontSize=12;" parent="GrgNrJ82PVt_7jwWLZF3-2" vertex="1" connectable="0">
          <mxGeometry x="170" y="20" width="50" height="95" as="geometry" />
        </mxCell>
        <mxCell id="GrgNrJ82PVt_7jwWLZF3-33" value="" style="html=1;shadow=0;dashed=0;align=center;verticalAlign=middle;shape=mxgraph.arrows2.arrow;dy=0.6;dx=25;notch=0;fontSize=12;fillColor=#f8cecc;strokeColor=none;" parent="GrgNrJ82PVt_7jwWLZF3-32" vertex="1">
          <mxGeometry y="60" width="50" height="15" as="geometry" />
        </mxCell>
        <mxCell id="GrgNrJ82PVt_7jwWLZF3-34" value="" style="html=1;shadow=0;dashed=0;align=center;verticalAlign=middle;shape=mxgraph.arrows2.arrow;dy=0.6;dx=25;notch=0;fontSize=12;fillColor=#f8cecc;strokeColor=none;" parent="GrgNrJ82PVt_7jwWLZF3-32" vertex="1">
          <mxGeometry width="50" height="15" as="geometry" />
        </mxCell>
        <mxCell id="GrgNrJ82PVt_7jwWLZF3-35" value="" style="html=1;shadow=0;dashed=0;align=center;verticalAlign=middle;shape=mxgraph.arrows2.arrow;dy=0.6;dx=25;notch=0;fontSize=12;fillColor=#f8cecc;strokeColor=none;" parent="GrgNrJ82PVt_7jwWLZF3-32" vertex="1">
          <mxGeometry y="20" width="50" height="15" as="geometry" />
        </mxCell>
        <mxCell id="GrgNrJ82PVt_7jwWLZF3-36" value="" style="html=1;shadow=0;dashed=0;align=center;verticalAlign=middle;shape=mxgraph.arrows2.arrow;dy=0.6;dx=25;notch=0;fontSize=12;fillColor=#f8cecc;strokeColor=none;" parent="GrgNrJ82PVt_7jwWLZF3-32" vertex="1">
          <mxGeometry y="40" width="50" height="15" as="geometry" />
        </mxCell>
        <mxCell id="GrgNrJ82PVt_7jwWLZF3-37" value="" style="html=1;shadow=0;dashed=0;align=center;verticalAlign=middle;shape=mxgraph.arrows2.arrow;dy=0.6;dx=25;notch=0;fontSize=12;fillColor=#f8cecc;strokeColor=none;" parent="GrgNrJ82PVt_7jwWLZF3-32" vertex="1">
          <mxGeometry y="80" width="50" height="15" as="geometry" />
        </mxCell>
        <mxCell id="GrgNrJ82PVt_7jwWLZF3-38" value="" style="group;fontSize=12;" parent="GrgNrJ82PVt_7jwWLZF3-2" vertex="1" connectable="0">
          <mxGeometry x="70" y="20" width="50" height="95" as="geometry" />
        </mxCell>
        <mxCell id="GrgNrJ82PVt_7jwWLZF3-39" value="" style="html=1;shadow=0;dashed=0;align=center;verticalAlign=middle;shape=mxgraph.arrows2.arrow;dy=0.6;dx=25;notch=0;fontSize=12;fillColor=#f8cecc;strokeColor=none;" parent="GrgNrJ82PVt_7jwWLZF3-38" vertex="1">
          <mxGeometry y="60" width="50" height="15" as="geometry" />
        </mxCell>
        <mxCell id="GrgNrJ82PVt_7jwWLZF3-40" value="" style="html=1;shadow=0;dashed=0;align=center;verticalAlign=middle;shape=mxgraph.arrows2.arrow;dy=0.6;dx=25;notch=0;fontSize=12;fillColor=#f8cecc;strokeColor=none;" parent="GrgNrJ82PVt_7jwWLZF3-38" vertex="1">
          <mxGeometry width="50" height="15" as="geometry" />
        </mxCell>
        <mxCell id="GrgNrJ82PVt_7jwWLZF3-41" value="" style="html=1;shadow=0;dashed=0;align=center;verticalAlign=middle;shape=mxgraph.arrows2.arrow;dy=0.6;dx=25;notch=0;fontSize=12;fillColor=#f8cecc;strokeColor=none;" parent="GrgNrJ82PVt_7jwWLZF3-38" vertex="1">
          <mxGeometry y="20" width="50" height="15" as="geometry" />
        </mxCell>
        <mxCell id="GrgNrJ82PVt_7jwWLZF3-42" value="" style="html=1;shadow=0;dashed=0;align=center;verticalAlign=middle;shape=mxgraph.arrows2.arrow;dy=0.6;dx=25;notch=0;fontSize=12;fillColor=#f8cecc;strokeColor=none;" parent="GrgNrJ82PVt_7jwWLZF3-38" vertex="1">
          <mxGeometry y="40" width="50" height="15" as="geometry" />
        </mxCell>
        <mxCell id="GrgNrJ82PVt_7jwWLZF3-43" value="" style="html=1;shadow=0;dashed=0;align=center;verticalAlign=middle;shape=mxgraph.arrows2.arrow;dy=0.6;dx=25;notch=0;fontSize=12;fillColor=#f8cecc;strokeColor=none;" parent="GrgNrJ82PVt_7jwWLZF3-38" vertex="1">
          <mxGeometry y="80" width="50" height="15" as="geometry" />
        </mxCell>
        <mxCell id="GrgNrJ82PVt_7jwWLZF3-44" value="" style="group;fontSize=12;" parent="GrgNrJ82PVt_7jwWLZF3-2" vertex="1" connectable="0">
          <mxGeometry x="20" y="20" width="50" height="95" as="geometry" />
        </mxCell>
        <mxCell id="GrgNrJ82PVt_7jwWLZF3-45" value="" style="html=1;shadow=0;dashed=0;align=center;verticalAlign=middle;shape=mxgraph.arrows2.arrow;dy=0.6;dx=25;notch=0;fontSize=12;fillColor=#d5e8d4;strokeColor=none;" parent="GrgNrJ82PVt_7jwWLZF3-44" vertex="1">
          <mxGeometry width="50" height="15" as="geometry" />
        </mxCell>
        <mxCell id="GrgNrJ82PVt_7jwWLZF3-46" value="" style="html=1;shadow=0;dashed=0;align=center;verticalAlign=middle;shape=mxgraph.arrows2.arrow;dy=0.6;dx=25;notch=0;fontSize=12;fillColor=#d5e8d4;strokeColor=none;" parent="GrgNrJ82PVt_7jwWLZF3-44" vertex="1">
          <mxGeometry y="20" width="50" height="15" as="geometry" />
        </mxCell>
        <mxCell id="GrgNrJ82PVt_7jwWLZF3-47" value="" style="html=1;shadow=0;dashed=0;align=center;verticalAlign=middle;shape=mxgraph.arrows2.arrow;dy=0.6;dx=25;notch=0;fontSize=12;fillColor=#d5e8d4;strokeColor=none;" parent="GrgNrJ82PVt_7jwWLZF3-44" vertex="1">
          <mxGeometry y="60" width="50" height="15" as="geometry" />
        </mxCell>
        <mxCell id="GrgNrJ82PVt_7jwWLZF3-48" value="" style="html=1;shadow=0;dashed=0;align=center;verticalAlign=middle;shape=mxgraph.arrows2.arrow;dy=0.6;dx=25;notch=0;fontSize=12;fillColor=#d5e8d4;strokeColor=none;" parent="GrgNrJ82PVt_7jwWLZF3-44" vertex="1">
          <mxGeometry y="40" width="50" height="15" as="geometry" />
        </mxCell>
        <mxCell id="GrgNrJ82PVt_7jwWLZF3-49" value="" style="html=1;shadow=0;dashed=0;align=center;verticalAlign=middle;shape=mxgraph.arrows2.arrow;dy=0.6;dx=25;notch=0;fontSize=12;fillColor=#d5e8d4;strokeColor=none;" parent="GrgNrJ82PVt_7jwWLZF3-44" vertex="1">
          <mxGeometry y="80" width="50" height="15" as="geometry" />
        </mxCell>
        <mxCell id="GrgNrJ82PVt_7jwWLZF3-56" value="&lt;span style=&quot;font-size: 12px;&quot;&gt;concurrent&lt;br&gt;remap&lt;br style=&quot;font-size: 12px;&quot;&gt;&lt;/span&gt;" style="text;html=1;strokeColor=none;fillColor=none;align=center;verticalAlign=middle;whiteSpace=wrap;rounded=0;fontSize=12;fontStyle=0" parent="GrgNrJ82PVt_7jwWLZF3-2" vertex="1">
          <mxGeometry x="370" y="150" width="50" height="40" as="geometry" />
        </mxCell>
        <mxCell id="GrgNrJ82PVt_7jwWLZF3-190" value="" style="group;fontSize=12;" parent="GrgNrJ82PVt_7jwWLZF3-2" vertex="1" connectable="0">
          <mxGeometry x="120" y="20" width="50" height="95" as="geometry" />
        </mxCell>
        <mxCell id="GrgNrJ82PVt_7jwWLZF3-191" value="" style="html=1;shadow=0;dashed=0;align=center;verticalAlign=middle;shape=mxgraph.arrows2.arrow;dy=0.6;dx=25;notch=0;fontSize=12;fillColor=#d5e8d4;strokeColor=none;" parent="GrgNrJ82PVt_7jwWLZF3-190" vertex="1">
          <mxGeometry width="50" height="15" as="geometry" />
        </mxCell>
        <mxCell id="GrgNrJ82PVt_7jwWLZF3-192" value="" style="html=1;shadow=0;dashed=0;align=center;verticalAlign=middle;shape=mxgraph.arrows2.arrow;dy=0.6;dx=25;notch=0;fontSize=12;fillColor=#d5e8d4;strokeColor=none;" parent="GrgNrJ82PVt_7jwWLZF3-190" vertex="1">
          <mxGeometry y="20" width="50" height="15" as="geometry" />
        </mxCell>
        <mxCell id="GrgNrJ82PVt_7jwWLZF3-193" value="" style="html=1;shadow=0;dashed=0;align=center;verticalAlign=middle;shape=mxgraph.arrows2.arrow;dy=0.6;dx=25;notch=0;fontSize=12;fillColor=#f8cecc;strokeColor=none;" parent="GrgNrJ82PVt_7jwWLZF3-190" vertex="1">
          <mxGeometry y="60" width="50" height="15" as="geometry" />
        </mxCell>
        <mxCell id="GrgNrJ82PVt_7jwWLZF3-194" value="" style="html=1;shadow=0;dashed=0;align=center;verticalAlign=middle;shape=mxgraph.arrows2.arrow;dy=0.6;dx=25;notch=0;fontSize=12;fillColor=#d5e8d4;strokeColor=none;" parent="GrgNrJ82PVt_7jwWLZF3-190" vertex="1">
          <mxGeometry y="40" width="50" height="15" as="geometry" />
        </mxCell>
        <mxCell id="GrgNrJ82PVt_7jwWLZF3-195" value="" style="html=1;shadow=0;dashed=0;align=center;verticalAlign=middle;shape=mxgraph.arrows2.arrow;dy=0.6;dx=25;notch=0;fontSize=12;fillColor=#f8cecc;strokeColor=none;" parent="GrgNrJ82PVt_7jwWLZF3-190" vertex="1">
          <mxGeometry y="80" width="50" height="15" as="geometry" />
        </mxCell>
        <mxCell id="GrgNrJ82PVt_7jwWLZF3-196" value="&lt;span style=&quot;font-size: 12px;&quot;&gt;concurrent&lt;br style=&quot;font-size: 12px;&quot;&gt;mark&lt;/span&gt;" style="text;html=1;strokeColor=none;fillColor=none;align=center;verticalAlign=middle;whiteSpace=wrap;rounded=0;fontSize=12;fontStyle=0" parent="GrgNrJ82PVt_7jwWLZF3-2" vertex="1">
          <mxGeometry x="115" y="116" width="60" height="30" as="geometry" />
        </mxCell>
        <mxCell id="GrgNrJ82PVt_7jwWLZF3-59" value="&lt;font style=&quot;font-size: 12px;&quot;&gt;&lt;br style=&quot;font-size: 12px;&quot;&gt;&lt;/font&gt;" style="text;html=1;strokeColor=none;fillColor=none;align=left;verticalAlign=top;whiteSpace=wrap;rounded=0;fontSize=12;fontColor=#97D077;fontStyle=0;spacingTop=0;spacing=0;spacingLeft=8;spacingRight=8;" parent="GrgNrJ82PVt_7jwWLZF3-1" vertex="1">
          <mxGeometry x="820" width="310" height="100" as="geometry" />
        </mxCell>
        <mxCell id="GrgNrJ82PVt_7jwWLZF3-60" value="&lt;font style=&quot;font-size: 12px;&quot;&gt;&lt;br style=&quot;font-size: 12px;&quot;&gt;&lt;/font&gt;" style="text;html=1;strokeColor=none;fillColor=none;align=left;verticalAlign=top;whiteSpace=wrap;rounded=0;fontSize=12;fontColor=#EA6B66;fontStyle=0;spacing=0;spacingTop=0;spacingLeft=8;spacingRight=8;" parent="GrgNrJ82PVt_7jwWLZF3-1" vertex="1">
          <mxGeometry x="820" y="100" width="310" height="100" as="geometry" />
        </mxCell>
        <mxCell id="GrgNrJ82PVt_7jwWLZF3-61" value="&lt;font style=&quot;font-size: 12px;&quot;&gt;- only 64-bit system&lt;br&gt;- take more processor resources&lt;br&gt;-&amp;nbsp;barriers can work long time&lt;br&gt;- not enough memory -&amp;gt; app stop &amp;amp; full GS&lt;br&gt;&lt;br style=&quot;font-size: 12px;&quot;&gt;&lt;/font&gt;" style="text;html=1;strokeColor=none;fillColor=none;align=left;verticalAlign=top;whiteSpace=wrap;rounded=0;fontSize=12;fontColor=#EA6B66;fontStyle=0;spacing=0;spacingTop=0;spacingLeft=8;spacingRight=8;" parent="GrgNrJ82PVt_7jwWLZF3-1" vertex="1">
          <mxGeometry x="820" y="100" width="310" height="100" as="geometry" />
        </mxCell>
        <mxCell id="GrgNrJ82PVt_7jwWLZF3-62" value="&lt;font style=&quot;font-size: 12px;&quot;&gt;+ Heap up to 16 TB&lt;br&gt;+ STW in microseconds&lt;br style=&quot;font-size: 12px;&quot;&gt;&lt;/font&gt;" style="text;html=1;strokeColor=none;fillColor=none;align=left;verticalAlign=top;whiteSpace=wrap;rounded=0;fontSize=12;fontColor=#97D077;fontStyle=0;spacingTop=0;spacing=0;spacingLeft=8;spacingRight=8;" parent="GrgNrJ82PVt_7jwWLZF3-1" vertex="1">
          <mxGeometry x="820" width="310" height="100" as="geometry" />
        </mxCell>
        <mxCell id="GrgNrJ82PVt_7jwWLZF3-65" value="Marked0" style="rounded=0;whiteSpace=wrap;html=1;fontSize=10;horizontal=1;fillColor=#DAE8FC;strokeColor=none;" parent="GrgNrJ82PVt_7jwWLZF3-1" vertex="1">
          <mxGeometry x="130" y="50" width="50" height="20" as="geometry" />
        </mxCell>
        <mxCell id="GrgNrJ82PVt_7jwWLZF3-78" value="Marked1" style="rounded=0;whiteSpace=wrap;html=1;fontSize=10;horizontal=1;fillColor=#DAE8FC;strokeColor=none;" parent="GrgNrJ82PVt_7jwWLZF3-1" vertex="1">
          <mxGeometry x="190" y="50" width="50" height="20" as="geometry" />
        </mxCell>
        <mxCell id="GrgNrJ82PVt_7jwWLZF3-154" value="Remapped" style="rounded=0;whiteSpace=wrap;html=1;fontSize=10;horizontal=1;fillColor=#DAE8FC;strokeColor=none;" parent="GrgNrJ82PVt_7jwWLZF3-1" vertex="1">
          <mxGeometry x="250" y="50" width="50" height="20" as="geometry" />
        </mxCell>
        <mxCell id="GrgNrJ82PVt_7jwWLZF3-155" value="Finalizable" style="rounded=0;whiteSpace=wrap;html=1;fontSize=10;horizontal=1;fillColor=#DAE8FC;strokeColor=none;" parent="GrgNrJ82PVt_7jwWLZF3-1" vertex="1">
          <mxGeometry x="310" y="50" width="50" height="20" as="geometry" />
        </mxCell>
        <mxCell id="GrgNrJ82PVt_7jwWLZF3-156" value="" style="endArrow=classic;html=1;rounded=0;fontSize=12;exitX=0.5;exitY=1;exitDx=0;exitDy=0;" parent="GrgNrJ82PVt_7jwWLZF3-1" source="GrgNrJ82PVt_7jwWLZF3-65" target="GrgNrJ82PVt_7jwWLZF3-180" edge="1">
          <mxGeometry width="50" height="50" relative="1" as="geometry">
            <mxPoint x="160" y="120" as="sourcePoint" />
            <mxPoint x="207.5" y="110" as="targetPoint" />
          </mxGeometry>
        </mxCell>
        <mxCell id="GrgNrJ82PVt_7jwWLZF3-157" value="" style="endArrow=classic;html=1;rounded=0;fontSize=12;exitX=0.5;exitY=1;exitDx=0;exitDy=0;" parent="GrgNrJ82PVt_7jwWLZF3-1" source="GrgNrJ82PVt_7jwWLZF3-78" target="GrgNrJ82PVt_7jwWLZF3-180" edge="1">
          <mxGeometry width="50" height="50" relative="1" as="geometry">
            <mxPoint x="160" y="160" as="sourcePoint" />
            <mxPoint x="200" y="90" as="targetPoint" />
          </mxGeometry>
        </mxCell>
        <mxCell id="GrgNrJ82PVt_7jwWLZF3-158" value="" style="endArrow=classic;html=1;rounded=0;fontSize=12;exitX=0.5;exitY=1;exitDx=0;exitDy=0;" parent="GrgNrJ82PVt_7jwWLZF3-1" source="GrgNrJ82PVt_7jwWLZF3-154" target="GrgNrJ82PVt_7jwWLZF3-180" edge="1">
          <mxGeometry width="50" height="50" relative="1" as="geometry">
            <mxPoint x="160" y="160" as="sourcePoint" />
            <mxPoint x="240" y="80" as="targetPoint" />
          </mxGeometry>
        </mxCell>
        <mxCell id="GrgNrJ82PVt_7jwWLZF3-159" value="" style="endArrow=classic;html=1;rounded=0;fontSize=12;exitX=0.5;exitY=1;exitDx=0;exitDy=0;" parent="GrgNrJ82PVt_7jwWLZF3-1" source="GrgNrJ82PVt_7jwWLZF3-155" target="GrgNrJ82PVt_7jwWLZF3-180" edge="1">
          <mxGeometry width="50" height="50" relative="1" as="geometry">
            <mxPoint x="160" y="160" as="sourcePoint" />
            <mxPoint x="242.4999999999999" y="110" as="targetPoint" />
          </mxGeometry>
        </mxCell>
        <mxCell id="GrgNrJ82PVt_7jwWLZF3-160" value="virtual memory" style="text;html=1;strokeColor=none;fillColor=none;align=center;verticalAlign=middle;whiteSpace=wrap;rounded=0;fontSize=12;" parent="GrgNrJ82PVt_7jwWLZF3-1" vertex="1">
          <mxGeometry x="70" y="20" width="290" height="20" as="geometry" />
        </mxCell>
        <mxCell id="GrgNrJ82PVt_7jwWLZF3-161" value="" style="endArrow=none;html=1;rounded=0;fontSize=14;fontColor=default;strokeColor=#D5E8D4;strokeWidth=4;entryX=1;entryY=1;entryDx=0;entryDy=0;exitX=0;exitY=1;exitDx=0;exitDy=0;" parent="GrgNrJ82PVt_7jwWLZF3-1" source="GrgNrJ82PVt_7jwWLZF3-160" target="GrgNrJ82PVt_7jwWLZF3-160" edge="1">
          <mxGeometry width="50" height="50" relative="1" as="geometry">
            <mxPoint x="100" as="sourcePoint" />
            <mxPoint x="140.16000000000014" y="39.809999999999945" as="targetPoint" />
          </mxGeometry>
        </mxCell>
        <mxCell id="GrgNrJ82PVt_7jwWLZF3-163" value="physical memory" style="text;html=1;strokeColor=none;fillColor=none;align=center;verticalAlign=middle;whiteSpace=wrap;rounded=0;fontSize=12;" parent="GrgNrJ82PVt_7jwWLZF3-1" vertex="1">
          <mxGeometry x="70" y="170" width="290" height="20" as="geometry" />
        </mxCell>
        <mxCell id="GrgNrJ82PVt_7jwWLZF3-164" value="" style="endArrow=none;html=1;rounded=0;fontSize=14;fontColor=default;strokeColor=#FFE6CC;strokeWidth=4;exitX=0;exitY=0;exitDx=0;exitDy=0;entryX=1;entryY=0;entryDx=0;entryDy=0;" parent="GrgNrJ82PVt_7jwWLZF3-1" source="GrgNrJ82PVt_7jwWLZF3-163" target="GrgNrJ82PVt_7jwWLZF3-163" edge="1">
          <mxGeometry width="50" height="50" relative="1" as="geometry">
            <mxPoint x="304.9" y="180" as="sourcePoint" />
            <mxPoint x="355.1" y="180" as="targetPoint" />
          </mxGeometry>
        </mxCell>
        <mxCell id="GrgNrJ82PVt_7jwWLZF3-181" value="" style="group;strokeColor=default;container=0;" parent="GrgNrJ82PVt_7jwWLZF3-1" vertex="1" connectable="0">
          <mxGeometry x="150" y="110" width="130" height="50" as="geometry" />
        </mxCell>
        <mxCell id="GrgNrJ82PVt_7jwWLZF3-188" value="" style="rounded=0;whiteSpace=wrap;html=1;fontSize=10;horizontal=1;fillColor=#DAE8FC;strokeColor=none;" parent="GrgNrJ82PVt_7jwWLZF3-1" vertex="1">
          <mxGeometry x="70" y="50" width="50" height="20" as="geometry" />
        </mxCell>
        <mxCell id="GrgNrJ82PVt_7jwWLZF3-189" value="" style="endArrow=classic;html=1;rounded=0;fontSize=10;exitX=0.5;exitY=1;exitDx=0;exitDy=0;" parent="GrgNrJ82PVt_7jwWLZF3-1" source="GrgNrJ82PVt_7jwWLZF3-188" target="GrgNrJ82PVt_7jwWLZF3-180" edge="1">
          <mxGeometry width="50" height="50" relative="1" as="geometry">
            <mxPoint x="310" y="130" as="sourcePoint" />
            <mxPoint x="360" y="80" as="targetPoint" />
          </mxGeometry>
        </mxCell>
        <mxCell id="GrgNrJ82PVt_7jwWLZF3-180" value="" style="rounded=0;whiteSpace=wrap;html=1;labelBorderColor=none;fontSize=12;strokeColor=#DAE8FC;fillColor=none;" parent="GrgNrJ82PVt_7jwWLZF3-1" vertex="1">
          <mxGeometry x="150" y="110" width="130" height="50" as="geometry" />
        </mxCell>
        <mxCell id="GrgNrJ82PVt_7jwWLZF3-177" value="Heap" style="group;labelBorderColor=none;" parent="GrgNrJ82PVt_7jwWLZF3-1" vertex="1" connectable="0">
          <mxGeometry x="160" y="120" width="110" height="30" as="geometry" />
        </mxCell>
        <mxCell id="GrgNrJ82PVt_7jwWLZF3-169" value="" style="rounded=0;whiteSpace=wrap;html=1;fontSize=16;horizontal=0;fillColor=none;strokeColor=#DAE8FC;" parent="GrgNrJ82PVt_7jwWLZF3-177" vertex="1">
          <mxGeometry x="60" width="10" height="10" as="geometry" />
        </mxCell>
        <mxCell id="GrgNrJ82PVt_7jwWLZF3-170" value="" style="rounded=0;whiteSpace=wrap;html=1;fontSize=16;horizontal=0;fillColor=none;strokeColor=#DAE8FC;" parent="GrgNrJ82PVt_7jwWLZF3-177" vertex="1">
          <mxGeometry x="80" width="10" height="10" as="geometry" />
        </mxCell>
        <mxCell id="GrgNrJ82PVt_7jwWLZF3-171" value="" style="rounded=0;whiteSpace=wrap;html=1;fontSize=16;horizontal=0;fillColor=none;strokeColor=#DAE8FC;" parent="GrgNrJ82PVt_7jwWLZF3-177" vertex="1">
          <mxGeometry x="100" width="10" height="10" as="geometry" />
        </mxCell>
        <mxCell id="GrgNrJ82PVt_7jwWLZF3-172" value="" style="rounded=0;whiteSpace=wrap;html=1;fontSize=16;horizontal=0;fillColor=none;strokeColor=#DAE8FC;" parent="GrgNrJ82PVt_7jwWLZF3-177" vertex="1">
          <mxGeometry y="20" width="10" height="10" as="geometry" />
        </mxCell>
        <mxCell id="GrgNrJ82PVt_7jwWLZF3-173" value="" style="rounded=0;whiteSpace=wrap;html=1;fontSize=16;horizontal=0;fillColor=none;strokeColor=#DAE8FC;" parent="GrgNrJ82PVt_7jwWLZF3-177" vertex="1">
          <mxGeometry x="20" y="20" width="10" height="10" as="geometry" />
        </mxCell>
        <mxCell id="GrgNrJ82PVt_7jwWLZF3-174" value="" style="rounded=0;whiteSpace=wrap;html=1;fontSize=14;horizontal=1;fillColor=none;strokeColor=#DAE8FC;" parent="GrgNrJ82PVt_7jwWLZF3-177" vertex="1">
          <mxGeometry x="60" y="20" width="10" height="10" as="geometry" />
        </mxCell>
        <mxCell id="GrgNrJ82PVt_7jwWLZF3-175" value="" style="rounded=0;whiteSpace=wrap;html=1;fontSize=16;horizontal=0;fillColor=none;strokeColor=#DAE8FC;" parent="GrgNrJ82PVt_7jwWLZF3-177" vertex="1">
          <mxGeometry x="40" y="20" width="10" height="10" as="geometry" />
        </mxCell>
        <mxCell id="GrgNrJ82PVt_7jwWLZF3-176" value="" style="rounded=0;whiteSpace=wrap;html=1;fontSize=16;horizontal=0;fillColor=none;strokeColor=#DAE8FC;" parent="GrgNrJ82PVt_7jwWLZF3-177" vertex="1">
          <mxGeometry x="100" y="20" width="10" height="10" as="geometry" />
        </mxCell>
        <mxCell id="GrgNrJ82PVt_7jwWLZF3-183" value="" style="rounded=0;whiteSpace=wrap;html=1;fontSize=14;horizontal=1;fillColor=none;strokeColor=#DAE8FC;" parent="GrgNrJ82PVt_7jwWLZF3-177" vertex="1">
          <mxGeometry x="80" y="20" width="10" height="10" as="geometry" />
        </mxCell>
        <mxCell id="GrgNrJ82PVt_7jwWLZF3-186" value="" style="rounded=0;whiteSpace=wrap;html=1;fontSize=16;horizontal=0;fillColor=none;strokeColor=#DAE8FC;" parent="GrgNrJ82PVt_7jwWLZF3-177" vertex="1">
          <mxGeometry x="20" width="10" height="10" as="geometry" />
        </mxCell>
        <mxCell id="GrgNrJ82PVt_7jwWLZF3-187" value="" style="rounded=0;whiteSpace=wrap;html=1;fontSize=16;horizontal=0;fillColor=none;strokeColor=#DAE8FC;" parent="GrgNrJ82PVt_7jwWLZF3-177" vertex="1">
          <mxGeometry width="10" height="10" as="geometry" />
        </mxCell>
        <mxCell id="GrgNrJ82PVt_7jwWLZF3-168" value="" style="rounded=0;whiteSpace=wrap;html=1;fontSize=16;horizontal=0;fillColor=none;strokeColor=#DAE8FC;" parent="GrgNrJ82PVt_7jwWLZF3-177" vertex="1">
          <mxGeometry x="40" width="10" height="10" as="geometry" />
        </mxCell>
        <mxCell id="v6ISCfUJBkIhkLPFKyvD-1" value="Epsilon GC" style="swimlane;horizontal=0;fontSize=16;startSize=50;" parent="1" vertex="1">
          <mxGeometry x="20" y="1040" width="1130" height="200" as="geometry" />
        </mxCell>
        <mxCell id="v6ISCfUJBkIhkLPFKyvD-2" value="" style="swimlane;startSize=0;fontSize=12;" parent="v6ISCfUJBkIhkLPFKyvD-1" vertex="1">
          <mxGeometry x="380" width="440" height="200" as="geometry" />
        </mxCell>
        <mxCell id="v6ISCfUJBkIhkLPFKyvD-91" value="&lt;font style=&quot;font-size: 27px;&quot;&gt;Simply no garbage collected&lt;br&gt;&lt;font color=&quot;#97d077&quot;&gt;Only app threads&lt;/font&gt;&lt;br&gt;&lt;/font&gt;" style="text;html=1;strokeColor=none;fillColor=none;align=center;verticalAlign=middle;whiteSpace=wrap;rounded=0;fontStyle=1;fontColor=#EA6B66;" parent="v6ISCfUJBkIhkLPFKyvD-2" vertex="1">
          <mxGeometry width="440" height="200" as="geometry" />
        </mxCell>
        <mxCell id="v6ISCfUJBkIhkLPFKyvD-58" value="&lt;font style=&quot;font-size: 12px;&quot;&gt;&lt;br style=&quot;font-size: 12px;&quot;&gt;&lt;/font&gt;" style="text;html=1;strokeColor=none;fillColor=none;align=left;verticalAlign=top;whiteSpace=wrap;rounded=0;fontSize=12;fontColor=#97D077;fontStyle=0;spacingTop=0;spacing=0;spacingLeft=8;spacingRight=8;" parent="v6ISCfUJBkIhkLPFKyvD-1" vertex="1">
          <mxGeometry x="820" width="310" height="100" as="geometry" />
        </mxCell>
        <mxCell id="v6ISCfUJBkIhkLPFKyvD-59" value="&lt;font style=&quot;font-size: 12px;&quot;&gt;&lt;br style=&quot;font-size: 12px;&quot;&gt;&lt;/font&gt;" style="text;html=1;strokeColor=none;fillColor=none;align=left;verticalAlign=top;whiteSpace=wrap;rounded=0;fontSize=12;fontColor=#EA6B66;fontStyle=0;spacing=0;spacingTop=0;spacingLeft=8;spacingRight=8;" parent="v6ISCfUJBkIhkLPFKyvD-1" vertex="1">
          <mxGeometry x="820" y="100" width="310" height="100" as="geometry" />
        </mxCell>
        <mxCell id="v6ISCfUJBkIhkLPFKyvD-60" value="&lt;font style=&quot;font-size: 12px;&quot;&gt;-&amp;nbsp;memory fragmentation&lt;br&gt;- no GC&lt;br style=&quot;font-size: 12px;&quot;&gt;&lt;/font&gt;" style="text;html=1;strokeColor=none;fillColor=none;align=left;verticalAlign=top;whiteSpace=wrap;rounded=0;fontSize=12;fontColor=#EA6B66;fontStyle=0;spacing=0;spacingTop=0;spacingLeft=8;spacingRight=8;" parent="v6ISCfUJBkIhkLPFKyvD-1" vertex="1">
          <mxGeometry x="820" y="100" width="310" height="100" as="geometry" />
        </mxCell>
        <mxCell id="v6ISCfUJBkIhkLPFKyvD-61" value="&lt;font style=&quot;font-size: 12px;&quot;&gt;+&amp;nbsp;no waste of resources on garbage collection&lt;br&gt;+&amp;nbsp;short-lived applications&lt;br&gt;+ all objects are created on app start&lt;br&gt;+&amp;nbsp;good to compare metrics with other GC&lt;br style=&quot;font-size: 12px;&quot;&gt;&lt;/font&gt;" style="text;html=1;strokeColor=none;fillColor=none;align=left;verticalAlign=top;whiteSpace=wrap;rounded=0;fontSize=12;fontColor=#97D077;fontStyle=0;spacingTop=0;spacing=0;spacingLeft=8;spacingRight=8;" parent="v6ISCfUJBkIhkLPFKyvD-1" vertex="1">
          <mxGeometry x="820" width="310" height="100" as="geometry" />
        </mxCell>
        <mxCell id="v6ISCfUJBkIhkLPFKyvD-92" value="Shenandoah GC" style="swimlane;horizontal=0;fontSize=16;startSize=50;" parent="1" vertex="1">
          <mxGeometry x="20" y="1240" width="1130" height="200" as="geometry" />
        </mxCell>
        <mxCell id="v6ISCfUJBkIhkLPFKyvD-93" value="" style="swimlane;startSize=0;fontSize=12;" parent="v6ISCfUJBkIhkLPFKyvD-92" vertex="1">
          <mxGeometry x="380" width="440" height="200" as="geometry" />
        </mxCell>
        <mxCell id="v6ISCfUJBkIhkLPFKyvD-94" value="&lt;span style=&quot;font-size: 12px;&quot;&gt;final mark&lt;br&gt;&lt;/span&gt;" style="text;html=1;strokeColor=none;fillColor=none;align=center;verticalAlign=middle;whiteSpace=wrap;rounded=0;fontSize=12;fontStyle=0" parent="v6ISCfUJBkIhkLPFKyvD-93" vertex="1">
          <mxGeometry x="170" y="150" width="50" height="40" as="geometry" />
        </mxCell>
        <mxCell id="v6ISCfUJBkIhkLPFKyvD-95" value="&lt;span style=&quot;font-size: 12px;&quot;&gt;init update refs&lt;br&gt;&lt;/span&gt;" style="text;html=1;strokeColor=none;fillColor=none;align=center;verticalAlign=middle;whiteSpace=wrap;rounded=0;fontSize=12;fontStyle=0" parent="v6ISCfUJBkIhkLPFKyvD-93" vertex="1">
          <mxGeometry x="270" y="150" width="50" height="40" as="geometry" />
        </mxCell>
        <mxCell id="v6ISCfUJBkIhkLPFKyvD-96" value="concurrent evacuation" style="text;html=1;strokeColor=none;fillColor=none;align=center;verticalAlign=middle;whiteSpace=wrap;rounded=0;fontSize=12;fontStyle=0" parent="v6ISCfUJBkIhkLPFKyvD-93" vertex="1">
          <mxGeometry x="215" y="120" width="60" height="30" as="geometry" />
        </mxCell>
        <mxCell id="v6ISCfUJBkIhkLPFKyvD-97" value="&lt;span style=&quot;font-size: 12px;&quot;&gt;concurrent&lt;br&gt;update refs&lt;br style=&quot;font-size: 12px;&quot;&gt;&lt;/span&gt;" style="text;html=1;strokeColor=none;fillColor=none;align=center;verticalAlign=middle;whiteSpace=wrap;rounded=0;fontSize=12;fontStyle=0" parent="v6ISCfUJBkIhkLPFKyvD-93" vertex="1">
          <mxGeometry x="315" y="120" width="60" height="40" as="geometry" />
        </mxCell>
        <mxCell id="v6ISCfUJBkIhkLPFKyvD-98" value="init mark" style="text;html=1;strokeColor=none;fillColor=none;align=center;verticalAlign=middle;whiteSpace=wrap;rounded=0;fontSize=12;fontStyle=0" parent="v6ISCfUJBkIhkLPFKyvD-93" vertex="1">
          <mxGeometry x="70" y="150" width="50" height="40" as="geometry" />
        </mxCell>
        <mxCell id="v6ISCfUJBkIhkLPFKyvD-105" value="" style="group;fontSize=12;" parent="v6ISCfUJBkIhkLPFKyvD-93" vertex="1" connectable="0">
          <mxGeometry x="320" y="20" width="50" height="95" as="geometry" />
        </mxCell>
        <mxCell id="v6ISCfUJBkIhkLPFKyvD-106" value="" style="html=1;shadow=0;dashed=0;align=center;verticalAlign=middle;shape=mxgraph.arrows2.arrow;dy=0.6;dx=25;notch=0;fontSize=12;fillColor=#d5e8d4;strokeColor=none;" parent="v6ISCfUJBkIhkLPFKyvD-105" vertex="1">
          <mxGeometry width="50" height="15" as="geometry" />
        </mxCell>
        <mxCell id="v6ISCfUJBkIhkLPFKyvD-107" value="" style="html=1;shadow=0;dashed=0;align=center;verticalAlign=middle;shape=mxgraph.arrows2.arrow;dy=0.6;dx=25;notch=0;fontSize=12;fillColor=#d5e8d4;strokeColor=none;" parent="v6ISCfUJBkIhkLPFKyvD-105" vertex="1">
          <mxGeometry y="20" width="50" height="15" as="geometry" />
        </mxCell>
        <mxCell id="v6ISCfUJBkIhkLPFKyvD-108" value="" style="html=1;shadow=0;dashed=0;align=center;verticalAlign=middle;shape=mxgraph.arrows2.arrow;dy=0.6;dx=25;notch=0;fontSize=12;fillColor=#f8cecc;strokeColor=none;" parent="v6ISCfUJBkIhkLPFKyvD-105" vertex="1">
          <mxGeometry y="60" width="50" height="15" as="geometry" />
        </mxCell>
        <mxCell id="v6ISCfUJBkIhkLPFKyvD-109" value="" style="html=1;shadow=0;dashed=0;align=center;verticalAlign=middle;shape=mxgraph.arrows2.arrow;dy=0.6;dx=25;notch=0;fontSize=12;fillColor=#d5e8d4;strokeColor=none;" parent="v6ISCfUJBkIhkLPFKyvD-105" vertex="1">
          <mxGeometry y="40" width="50" height="15" as="geometry" />
        </mxCell>
        <mxCell id="v6ISCfUJBkIhkLPFKyvD-110" value="" style="html=1;shadow=0;dashed=0;align=center;verticalAlign=middle;shape=mxgraph.arrows2.arrow;dy=0.6;dx=25;notch=0;fontSize=12;fillColor=#f8cecc;strokeColor=none;" parent="v6ISCfUJBkIhkLPFKyvD-105" vertex="1">
          <mxGeometry y="80" width="50" height="15" as="geometry" />
        </mxCell>
        <mxCell id="v6ISCfUJBkIhkLPFKyvD-111" value="" style="group;fontSize=12;" parent="v6ISCfUJBkIhkLPFKyvD-93" vertex="1" connectable="0">
          <mxGeometry x="270" y="20" width="50" height="95" as="geometry" />
        </mxCell>
        <mxCell id="v6ISCfUJBkIhkLPFKyvD-112" value="" style="html=1;shadow=0;dashed=0;align=center;verticalAlign=middle;shape=mxgraph.arrows2.arrow;dy=0.6;dx=25;notch=0;fontSize=12;fillColor=#f8cecc;strokeColor=none;" parent="v6ISCfUJBkIhkLPFKyvD-111" vertex="1">
          <mxGeometry y="60" width="50" height="15" as="geometry" />
        </mxCell>
        <mxCell id="v6ISCfUJBkIhkLPFKyvD-113" value="" style="html=1;shadow=0;dashed=0;align=center;verticalAlign=middle;shape=mxgraph.arrows2.arrow;dy=0.6;dx=25;notch=0;fontSize=12;fillColor=#f8cecc;strokeColor=none;" parent="v6ISCfUJBkIhkLPFKyvD-111" vertex="1">
          <mxGeometry width="50" height="15" as="geometry" />
        </mxCell>
        <mxCell id="v6ISCfUJBkIhkLPFKyvD-114" value="" style="html=1;shadow=0;dashed=0;align=center;verticalAlign=middle;shape=mxgraph.arrows2.arrow;dy=0.6;dx=25;notch=0;fontSize=12;fillColor=#f8cecc;strokeColor=none;" parent="v6ISCfUJBkIhkLPFKyvD-111" vertex="1">
          <mxGeometry y="20" width="50" height="15" as="geometry" />
        </mxCell>
        <mxCell id="v6ISCfUJBkIhkLPFKyvD-115" value="" style="html=1;shadow=0;dashed=0;align=center;verticalAlign=middle;shape=mxgraph.arrows2.arrow;dy=0.6;dx=25;notch=0;fontSize=12;fillColor=#f8cecc;strokeColor=none;" parent="v6ISCfUJBkIhkLPFKyvD-111" vertex="1">
          <mxGeometry y="40" width="50" height="15" as="geometry" />
        </mxCell>
        <mxCell id="v6ISCfUJBkIhkLPFKyvD-116" value="" style="html=1;shadow=0;dashed=0;align=center;verticalAlign=middle;shape=mxgraph.arrows2.arrow;dy=0.6;dx=25;notch=0;fontSize=12;fillColor=#f8cecc;strokeColor=none;" parent="v6ISCfUJBkIhkLPFKyvD-111" vertex="1">
          <mxGeometry y="80" width="50" height="15" as="geometry" />
        </mxCell>
        <mxCell id="v6ISCfUJBkIhkLPFKyvD-117" value="" style="group;fontSize=12;" parent="v6ISCfUJBkIhkLPFKyvD-93" vertex="1" connectable="0">
          <mxGeometry x="220" y="20" width="50" height="95" as="geometry" />
        </mxCell>
        <mxCell id="v6ISCfUJBkIhkLPFKyvD-118" value="" style="html=1;shadow=0;dashed=0;align=center;verticalAlign=middle;shape=mxgraph.arrows2.arrow;dy=0.6;dx=25;notch=0;fontSize=12;fillColor=#d5e8d4;strokeColor=none;" parent="v6ISCfUJBkIhkLPFKyvD-117" vertex="1">
          <mxGeometry width="50" height="15" as="geometry" />
        </mxCell>
        <mxCell id="v6ISCfUJBkIhkLPFKyvD-119" value="" style="html=1;shadow=0;dashed=0;align=center;verticalAlign=middle;shape=mxgraph.arrows2.arrow;dy=0.6;dx=25;notch=0;fontSize=12;fillColor=#d5e8d4;strokeColor=none;" parent="v6ISCfUJBkIhkLPFKyvD-117" vertex="1">
          <mxGeometry y="20" width="50" height="15" as="geometry" />
        </mxCell>
        <mxCell id="v6ISCfUJBkIhkLPFKyvD-120" value="" style="html=1;shadow=0;dashed=0;align=center;verticalAlign=middle;shape=mxgraph.arrows2.arrow;dy=0.6;dx=25;notch=0;fontSize=12;fillColor=#f8cecc;strokeColor=none;" parent="v6ISCfUJBkIhkLPFKyvD-117" vertex="1">
          <mxGeometry y="60" width="50" height="15" as="geometry" />
        </mxCell>
        <mxCell id="v6ISCfUJBkIhkLPFKyvD-121" value="" style="html=1;shadow=0;dashed=0;align=center;verticalAlign=middle;shape=mxgraph.arrows2.arrow;dy=0.6;dx=25;notch=0;fontSize=12;fillColor=#d5e8d4;strokeColor=none;" parent="v6ISCfUJBkIhkLPFKyvD-117" vertex="1">
          <mxGeometry y="40" width="50" height="15" as="geometry" />
        </mxCell>
        <mxCell id="v6ISCfUJBkIhkLPFKyvD-122" value="" style="html=1;shadow=0;dashed=0;align=center;verticalAlign=middle;shape=mxgraph.arrows2.arrow;dy=0.6;dx=25;notch=0;fontSize=12;fillColor=#f8cecc;strokeColor=none;" parent="v6ISCfUJBkIhkLPFKyvD-117" vertex="1">
          <mxGeometry y="80" width="50" height="15" as="geometry" />
        </mxCell>
        <mxCell id="v6ISCfUJBkIhkLPFKyvD-123" value="" style="group;fontSize=12;" parent="v6ISCfUJBkIhkLPFKyvD-93" vertex="1" connectable="0">
          <mxGeometry x="170" y="20" width="50" height="95" as="geometry" />
        </mxCell>
        <mxCell id="v6ISCfUJBkIhkLPFKyvD-124" value="" style="html=1;shadow=0;dashed=0;align=center;verticalAlign=middle;shape=mxgraph.arrows2.arrow;dy=0.6;dx=25;notch=0;fontSize=12;fillColor=#f8cecc;strokeColor=none;" parent="v6ISCfUJBkIhkLPFKyvD-123" vertex="1">
          <mxGeometry y="60" width="50" height="15" as="geometry" />
        </mxCell>
        <mxCell id="v6ISCfUJBkIhkLPFKyvD-125" value="" style="html=1;shadow=0;dashed=0;align=center;verticalAlign=middle;shape=mxgraph.arrows2.arrow;dy=0.6;dx=25;notch=0;fontSize=12;fillColor=#f8cecc;strokeColor=none;" parent="v6ISCfUJBkIhkLPFKyvD-123" vertex="1">
          <mxGeometry width="50" height="15" as="geometry" />
        </mxCell>
        <mxCell id="v6ISCfUJBkIhkLPFKyvD-126" value="" style="html=1;shadow=0;dashed=0;align=center;verticalAlign=middle;shape=mxgraph.arrows2.arrow;dy=0.6;dx=25;notch=0;fontSize=12;fillColor=#f8cecc;strokeColor=none;" parent="v6ISCfUJBkIhkLPFKyvD-123" vertex="1">
          <mxGeometry y="20" width="50" height="15" as="geometry" />
        </mxCell>
        <mxCell id="v6ISCfUJBkIhkLPFKyvD-127" value="" style="html=1;shadow=0;dashed=0;align=center;verticalAlign=middle;shape=mxgraph.arrows2.arrow;dy=0.6;dx=25;notch=0;fontSize=12;fillColor=#f8cecc;strokeColor=none;" parent="v6ISCfUJBkIhkLPFKyvD-123" vertex="1">
          <mxGeometry y="40" width="50" height="15" as="geometry" />
        </mxCell>
        <mxCell id="v6ISCfUJBkIhkLPFKyvD-128" value="" style="html=1;shadow=0;dashed=0;align=center;verticalAlign=middle;shape=mxgraph.arrows2.arrow;dy=0.6;dx=25;notch=0;fontSize=12;fillColor=#f8cecc;strokeColor=none;" parent="v6ISCfUJBkIhkLPFKyvD-123" vertex="1">
          <mxGeometry y="80" width="50" height="15" as="geometry" />
        </mxCell>
        <mxCell id="v6ISCfUJBkIhkLPFKyvD-129" value="" style="group;fontSize=12;" parent="v6ISCfUJBkIhkLPFKyvD-93" vertex="1" connectable="0">
          <mxGeometry x="70" y="20" width="50" height="95" as="geometry" />
        </mxCell>
        <mxCell id="v6ISCfUJBkIhkLPFKyvD-130" value="" style="html=1;shadow=0;dashed=0;align=center;verticalAlign=middle;shape=mxgraph.arrows2.arrow;dy=0.6;dx=25;notch=0;fontSize=12;fillColor=#f8cecc;strokeColor=none;" parent="v6ISCfUJBkIhkLPFKyvD-129" vertex="1">
          <mxGeometry y="60" width="50" height="15" as="geometry" />
        </mxCell>
        <mxCell id="v6ISCfUJBkIhkLPFKyvD-131" value="" style="html=1;shadow=0;dashed=0;align=center;verticalAlign=middle;shape=mxgraph.arrows2.arrow;dy=0.6;dx=25;notch=0;fontSize=12;fillColor=#f8cecc;strokeColor=none;" parent="v6ISCfUJBkIhkLPFKyvD-129" vertex="1">
          <mxGeometry width="50" height="15" as="geometry" />
        </mxCell>
        <mxCell id="v6ISCfUJBkIhkLPFKyvD-132" value="" style="html=1;shadow=0;dashed=0;align=center;verticalAlign=middle;shape=mxgraph.arrows2.arrow;dy=0.6;dx=25;notch=0;fontSize=12;fillColor=#f8cecc;strokeColor=none;" parent="v6ISCfUJBkIhkLPFKyvD-129" vertex="1">
          <mxGeometry y="20" width="50" height="15" as="geometry" />
        </mxCell>
        <mxCell id="v6ISCfUJBkIhkLPFKyvD-133" value="" style="html=1;shadow=0;dashed=0;align=center;verticalAlign=middle;shape=mxgraph.arrows2.arrow;dy=0.6;dx=25;notch=0;fontSize=12;fillColor=#f8cecc;strokeColor=none;" parent="v6ISCfUJBkIhkLPFKyvD-129" vertex="1">
          <mxGeometry y="40" width="50" height="15" as="geometry" />
        </mxCell>
        <mxCell id="v6ISCfUJBkIhkLPFKyvD-134" value="" style="html=1;shadow=0;dashed=0;align=center;verticalAlign=middle;shape=mxgraph.arrows2.arrow;dy=0.6;dx=25;notch=0;fontSize=12;fillColor=#f8cecc;strokeColor=none;" parent="v6ISCfUJBkIhkLPFKyvD-129" vertex="1">
          <mxGeometry y="80" width="50" height="15" as="geometry" />
        </mxCell>
        <mxCell id="v6ISCfUJBkIhkLPFKyvD-135" value="" style="group;fontSize=12;" parent="v6ISCfUJBkIhkLPFKyvD-93" vertex="1" connectable="0">
          <mxGeometry x="20" y="20" width="50" height="95" as="geometry" />
        </mxCell>
        <mxCell id="v6ISCfUJBkIhkLPFKyvD-136" value="" style="html=1;shadow=0;dashed=0;align=center;verticalAlign=middle;shape=mxgraph.arrows2.arrow;dy=0.6;dx=25;notch=0;fontSize=12;fillColor=#d5e8d4;strokeColor=none;" parent="v6ISCfUJBkIhkLPFKyvD-135" vertex="1">
          <mxGeometry width="50" height="15" as="geometry" />
        </mxCell>
        <mxCell id="v6ISCfUJBkIhkLPFKyvD-137" value="" style="html=1;shadow=0;dashed=0;align=center;verticalAlign=middle;shape=mxgraph.arrows2.arrow;dy=0.6;dx=25;notch=0;fontSize=12;fillColor=#d5e8d4;strokeColor=none;" parent="v6ISCfUJBkIhkLPFKyvD-135" vertex="1">
          <mxGeometry y="20" width="50" height="15" as="geometry" />
        </mxCell>
        <mxCell id="v6ISCfUJBkIhkLPFKyvD-138" value="" style="html=1;shadow=0;dashed=0;align=center;verticalAlign=middle;shape=mxgraph.arrows2.arrow;dy=0.6;dx=25;notch=0;fontSize=12;fillColor=#d5e8d4;strokeColor=none;" parent="v6ISCfUJBkIhkLPFKyvD-135" vertex="1">
          <mxGeometry y="60" width="50" height="15" as="geometry" />
        </mxCell>
        <mxCell id="v6ISCfUJBkIhkLPFKyvD-139" value="" style="html=1;shadow=0;dashed=0;align=center;verticalAlign=middle;shape=mxgraph.arrows2.arrow;dy=0.6;dx=25;notch=0;fontSize=12;fillColor=#d5e8d4;strokeColor=none;" parent="v6ISCfUJBkIhkLPFKyvD-135" vertex="1">
          <mxGeometry y="40" width="50" height="15" as="geometry" />
        </mxCell>
        <mxCell id="v6ISCfUJBkIhkLPFKyvD-140" value="" style="html=1;shadow=0;dashed=0;align=center;verticalAlign=middle;shape=mxgraph.arrows2.arrow;dy=0.6;dx=25;notch=0;fontSize=12;fillColor=#d5e8d4;strokeColor=none;" parent="v6ISCfUJBkIhkLPFKyvD-135" vertex="1">
          <mxGeometry y="80" width="50" height="15" as="geometry" />
        </mxCell>
        <mxCell id="v6ISCfUJBkIhkLPFKyvD-141" value="&lt;span style=&quot;font-size: 12px;&quot;&gt;final update refs&lt;br style=&quot;font-size: 12px;&quot;&gt;&lt;/span&gt;" style="text;html=1;strokeColor=none;fillColor=none;align=center;verticalAlign=middle;whiteSpace=wrap;rounded=0;fontSize=12;fontStyle=0" parent="v6ISCfUJBkIhkLPFKyvD-93" vertex="1">
          <mxGeometry x="370" y="150" width="50" height="40" as="geometry" />
        </mxCell>
        <mxCell id="v6ISCfUJBkIhkLPFKyvD-142" value="" style="group;fontSize=12;" parent="v6ISCfUJBkIhkLPFKyvD-93" vertex="1" connectable="0">
          <mxGeometry x="120" y="20" width="50" height="95" as="geometry" />
        </mxCell>
        <mxCell id="v6ISCfUJBkIhkLPFKyvD-143" value="" style="html=1;shadow=0;dashed=0;align=center;verticalAlign=middle;shape=mxgraph.arrows2.arrow;dy=0.6;dx=25;notch=0;fontSize=12;fillColor=#d5e8d4;strokeColor=none;" parent="v6ISCfUJBkIhkLPFKyvD-142" vertex="1">
          <mxGeometry width="50" height="15" as="geometry" />
        </mxCell>
        <mxCell id="v6ISCfUJBkIhkLPFKyvD-144" value="" style="html=1;shadow=0;dashed=0;align=center;verticalAlign=middle;shape=mxgraph.arrows2.arrow;dy=0.6;dx=25;notch=0;fontSize=12;fillColor=#d5e8d4;strokeColor=none;" parent="v6ISCfUJBkIhkLPFKyvD-142" vertex="1">
          <mxGeometry y="20" width="50" height="15" as="geometry" />
        </mxCell>
        <mxCell id="v6ISCfUJBkIhkLPFKyvD-145" value="" style="html=1;shadow=0;dashed=0;align=center;verticalAlign=middle;shape=mxgraph.arrows2.arrow;dy=0.6;dx=25;notch=0;fontSize=12;fillColor=#f8cecc;strokeColor=none;" parent="v6ISCfUJBkIhkLPFKyvD-142" vertex="1">
          <mxGeometry y="60" width="50" height="15" as="geometry" />
        </mxCell>
        <mxCell id="v6ISCfUJBkIhkLPFKyvD-146" value="" style="html=1;shadow=0;dashed=0;align=center;verticalAlign=middle;shape=mxgraph.arrows2.arrow;dy=0.6;dx=25;notch=0;fontSize=12;fillColor=#d5e8d4;strokeColor=none;" parent="v6ISCfUJBkIhkLPFKyvD-142" vertex="1">
          <mxGeometry y="40" width="50" height="15" as="geometry" />
        </mxCell>
        <mxCell id="v6ISCfUJBkIhkLPFKyvD-147" value="" style="html=1;shadow=0;dashed=0;align=center;verticalAlign=middle;shape=mxgraph.arrows2.arrow;dy=0.6;dx=25;notch=0;fontSize=12;fillColor=#f8cecc;strokeColor=none;" parent="v6ISCfUJBkIhkLPFKyvD-142" vertex="1">
          <mxGeometry y="80" width="50" height="15" as="geometry" />
        </mxCell>
        <mxCell id="v6ISCfUJBkIhkLPFKyvD-148" value="&lt;span style=&quot;font-size: 12px;&quot;&gt;concurrent&lt;br style=&quot;font-size: 12px;&quot;&gt;marking&lt;/span&gt;" style="text;html=1;strokeColor=none;fillColor=none;align=center;verticalAlign=middle;whiteSpace=wrap;rounded=0;fontSize=12;fontStyle=0" parent="v6ISCfUJBkIhkLPFKyvD-93" vertex="1">
          <mxGeometry x="115" y="120" width="60" height="30" as="geometry" />
        </mxCell>
        <mxCell id="v6ISCfUJBkIhkLPFKyvD-212" value="" style="group;fontSize=12;" parent="v6ISCfUJBkIhkLPFKyvD-93" vertex="1" connectable="0">
          <mxGeometry x="370" y="20" width="50" height="95" as="geometry" />
        </mxCell>
        <mxCell id="v6ISCfUJBkIhkLPFKyvD-213" value="" style="html=1;shadow=0;dashed=0;align=center;verticalAlign=middle;shape=mxgraph.arrows2.arrow;dy=0.6;dx=25;notch=0;fontSize=12;fillColor=#f8cecc;strokeColor=none;" parent="v6ISCfUJBkIhkLPFKyvD-212" vertex="1">
          <mxGeometry y="60" width="50" height="15" as="geometry" />
        </mxCell>
        <mxCell id="v6ISCfUJBkIhkLPFKyvD-214" value="" style="html=1;shadow=0;dashed=0;align=center;verticalAlign=middle;shape=mxgraph.arrows2.arrow;dy=0.6;dx=25;notch=0;fontSize=12;fillColor=#f8cecc;strokeColor=none;" parent="v6ISCfUJBkIhkLPFKyvD-212" vertex="1">
          <mxGeometry width="50" height="15" as="geometry" />
        </mxCell>
        <mxCell id="v6ISCfUJBkIhkLPFKyvD-215" value="" style="html=1;shadow=0;dashed=0;align=center;verticalAlign=middle;shape=mxgraph.arrows2.arrow;dy=0.6;dx=25;notch=0;fontSize=12;fillColor=#f8cecc;strokeColor=none;" parent="v6ISCfUJBkIhkLPFKyvD-212" vertex="1">
          <mxGeometry y="20" width="50" height="15" as="geometry" />
        </mxCell>
        <mxCell id="v6ISCfUJBkIhkLPFKyvD-216" value="" style="html=1;shadow=0;dashed=0;align=center;verticalAlign=middle;shape=mxgraph.arrows2.arrow;dy=0.6;dx=25;notch=0;fontSize=12;fillColor=#f8cecc;strokeColor=none;" parent="v6ISCfUJBkIhkLPFKyvD-212" vertex="1">
          <mxGeometry y="40" width="50" height="15" as="geometry" />
        </mxCell>
        <mxCell id="v6ISCfUJBkIhkLPFKyvD-217" value="" style="html=1;shadow=0;dashed=0;align=center;verticalAlign=middle;shape=mxgraph.arrows2.arrow;dy=0.6;dx=25;notch=0;fontSize=12;fillColor=#f8cecc;strokeColor=none;" parent="v6ISCfUJBkIhkLPFKyvD-212" vertex="1">
          <mxGeometry y="80" width="50" height="15" as="geometry" />
        </mxCell>
        <mxCell id="v6ISCfUJBkIhkLPFKyvD-149" value="&lt;font style=&quot;font-size: 12px;&quot;&gt;&lt;br style=&quot;font-size: 12px;&quot;&gt;&lt;/font&gt;" style="text;html=1;strokeColor=none;fillColor=none;align=left;verticalAlign=top;whiteSpace=wrap;rounded=0;fontSize=12;fontColor=#97D077;fontStyle=0;spacingTop=0;spacing=0;spacingLeft=8;spacingRight=8;" parent="v6ISCfUJBkIhkLPFKyvD-92" vertex="1">
          <mxGeometry x="820" width="310" height="100" as="geometry" />
        </mxCell>
        <mxCell id="v6ISCfUJBkIhkLPFKyvD-150" value="&lt;font style=&quot;font-size: 12px;&quot;&gt;&lt;br style=&quot;font-size: 12px;&quot;&gt;&lt;/font&gt;" style="text;html=1;strokeColor=none;fillColor=none;align=left;verticalAlign=top;whiteSpace=wrap;rounded=0;fontSize=12;fontColor=#EA6B66;fontStyle=0;spacing=0;spacingTop=0;spacingLeft=8;spacingRight=8;" parent="v6ISCfUJBkIhkLPFKyvD-92" vertex="1">
          <mxGeometry x="820" y="100" width="310" height="100" as="geometry" />
        </mxCell>
        <mxCell id="v6ISCfUJBkIhkLPFKyvD-151" value="&lt;font style=&quot;font-size: 12px;&quot;&gt;- redirection pointer -&amp;gt; more memory for meta data&lt;br&gt;-&amp;nbsp;Pacing -&amp;gt;&amp;nbsp;slow down the most active app threads&lt;br&gt;-&amp;nbsp;Degenerated GC -&amp;gt; all concurrent stages go in STW&lt;br&gt;- not enough memory -&amp;gt; app stop &amp;amp; full GS&lt;br style=&quot;font-size: 12px;&quot;&gt;&lt;/font&gt;" style="text;html=1;strokeColor=none;fillColor=none;align=left;verticalAlign=top;whiteSpace=wrap;rounded=0;fontSize=12;fontColor=#EA6B66;fontStyle=0;spacing=0;spacingTop=0;spacingLeft=8;spacingRight=8;" parent="v6ISCfUJBkIhkLPFKyvD-92" vertex="1">
          <mxGeometry x="820" y="100" width="310" height="100" as="geometry" />
        </mxCell>
        <mxCell id="v6ISCfUJBkIhkLPFKyvD-152" value="&lt;font style=&quot;font-size: 12px;&quot;&gt;+ short STW&lt;br&gt;+ Pacing and Degenerated GS before full app stop&lt;br&gt;&lt;br style=&quot;font-size: 12px;&quot;&gt;&lt;/font&gt;" style="text;html=1;strokeColor=none;fillColor=none;align=left;verticalAlign=top;whiteSpace=wrap;rounded=0;fontSize=12;fontColor=#97D077;fontStyle=0;spacingTop=0;spacing=0;spacingLeft=8;spacingRight=8;" parent="v6ISCfUJBkIhkLPFKyvD-92" vertex="1">
          <mxGeometry x="820" width="310" height="100" as="geometry" />
        </mxCell>
        <mxCell id="v6ISCfUJBkIhkLPFKyvD-163" value="Heap" style="text;html=1;strokeColor=none;fillColor=none;align=center;verticalAlign=middle;whiteSpace=wrap;rounded=0;fontSize=12;" parent="v6ISCfUJBkIhkLPFKyvD-92" vertex="1">
          <mxGeometry x="60" y="170" width="310" height="20" as="geometry" />
        </mxCell>
        <mxCell id="v6ISCfUJBkIhkLPFKyvD-164" value="" style="endArrow=none;html=1;rounded=0;fontSize=14;fontColor=default;strokeColor=#DAE8FC;strokeWidth=4;exitX=0;exitY=0;exitDx=0;exitDy=0;entryX=1;entryY=0;entryDx=0;entryDy=0;" parent="v6ISCfUJBkIhkLPFKyvD-92" source="v6ISCfUJBkIhkLPFKyvD-163" target="v6ISCfUJBkIhkLPFKyvD-163" edge="1">
          <mxGeometry width="50" height="50" relative="1" as="geometry">
            <mxPoint x="304.9" y="180" as="sourcePoint" />
            <mxPoint x="355.1" y="180" as="targetPoint" />
          </mxGeometry>
        </mxCell>
        <mxCell id="v6ISCfUJBkIhkLPFKyvD-192" value="" style="edgeStyle=orthogonalEdgeStyle;rounded=0;orthogonalLoop=1;jettySize=auto;html=1;fontSize=10;fontColor=#000000;entryX=0;entryY=0.5;entryDx=0;entryDy=0;endArrow=classicThin;endFill=1;" parent="v6ISCfUJBkIhkLPFKyvD-92" source="v6ISCfUJBkIhkLPFKyvD-156" target="v6ISCfUJBkIhkLPFKyvD-190" edge="1">
          <mxGeometry relative="1" as="geometry" />
        </mxCell>
        <mxCell id="v6ISCfUJBkIhkLPFKyvD-183" value="old location" style="text;html=1;strokeColor=none;fillColor=none;align=center;verticalAlign=middle;whiteSpace=wrap;rounded=0;fontSize=10;fontColor=#000000;" parent="v6ISCfUJBkIhkLPFKyvD-92" vertex="1">
          <mxGeometry x="130" y="10" width="60" height="30" as="geometry" />
        </mxCell>
        <mxCell id="v6ISCfUJBkIhkLPFKyvD-187" value="" style="rounded=0;whiteSpace=wrap;html=1;fontSize=10;fillColor=none;strokeColor=#DAE8FC;" parent="v6ISCfUJBkIhkLPFKyvD-92" vertex="1">
          <mxGeometry x="220" y="40" width="100" height="110" as="geometry" />
        </mxCell>
        <mxCell id="v6ISCfUJBkIhkLPFKyvD-194" value="new location" style="text;html=1;strokeColor=none;fillColor=none;align=center;verticalAlign=middle;whiteSpace=wrap;rounded=0;fontSize=10;fontColor=#000000;" parent="v6ISCfUJBkIhkLPFKyvD-92" vertex="1">
          <mxGeometry x="240" y="10" width="60" height="30" as="geometry" />
        </mxCell>
        <mxCell id="v6ISCfUJBkIhkLPFKyvD-196" value="" style="group" parent="v6ISCfUJBkIhkLPFKyvD-92" vertex="1" connectable="0">
          <mxGeometry x="240" y="50" width="60" height="80" as="geometry" />
        </mxCell>
        <mxCell id="v6ISCfUJBkIhkLPFKyvD-188" value="data" style="rounded=0;whiteSpace=wrap;html=1;fontSize=10;horizontal=1;fillColor=#b1ddf0;strokeColor=none;" parent="v6ISCfUJBkIhkLPFKyvD-196" vertex="1">
          <mxGeometry y="60" width="60" height="20" as="geometry" />
        </mxCell>
        <mxCell id="v6ISCfUJBkIhkLPFKyvD-189" value="class pointer" style="rounded=0;whiteSpace=wrap;html=1;fontSize=10;horizontal=1;fillColor=#FFE6CC;strokeColor=none;" parent="v6ISCfUJBkIhkLPFKyvD-196" vertex="1">
          <mxGeometry y="40" width="60" height="20" as="geometry" />
        </mxCell>
        <mxCell id="v6ISCfUJBkIhkLPFKyvD-190" value="mark word" style="rounded=0;whiteSpace=wrap;html=1;fontSize=10;horizontal=1;fillColor=#fff2cc;strokeColor=none;" parent="v6ISCfUJBkIhkLPFKyvD-196" vertex="1">
          <mxGeometry y="20" width="60" height="20" as="geometry" />
        </mxCell>
        <mxCell id="v6ISCfUJBkIhkLPFKyvD-191" value="redirection pointer" style="rounded=0;whiteSpace=wrap;html=1;fontSize=10;horizontal=1;fillColor=#d5e8d4;strokeColor=none;" parent="v6ISCfUJBkIhkLPFKyvD-196" vertex="1">
          <mxGeometry width="60" height="20" as="geometry" />
        </mxCell>
        <mxCell id="v6ISCfUJBkIhkLPFKyvD-193" value="" style="edgeStyle=orthogonalEdgeStyle;rounded=0;orthogonalLoop=1;jettySize=auto;html=1;fontSize=10;fontColor=#000000;entryX=1;entryY=0.5;entryDx=0;entryDy=0;exitX=1;exitY=0.5;exitDx=0;exitDy=0;endArrow=classicThin;endFill=1;" parent="v6ISCfUJBkIhkLPFKyvD-196" source="v6ISCfUJBkIhkLPFKyvD-191" target="v6ISCfUJBkIhkLPFKyvD-190" edge="1">
          <mxGeometry relative="1" as="geometry">
            <Array as="points">
              <mxPoint x="70" y="10" />
              <mxPoint x="70" y="30" />
            </Array>
          </mxGeometry>
        </mxCell>
        <mxCell id="v6ISCfUJBkIhkLPFKyvD-200" value="" style="rounded=0;whiteSpace=wrap;html=1;fontSize=16;horizontal=0;fillColor=#dae8fc;strokeColor=none;" parent="v6ISCfUJBkIhkLPFKyvD-92" vertex="1">
          <mxGeometry x="330" y="120" width="40" height="40" as="geometry" />
        </mxCell>
        <mxCell id="v6ISCfUJBkIhkLPFKyvD-201" value="" style="rounded=0;whiteSpace=wrap;html=1;fontSize=16;horizontal=0;fillColor=#dae8fc;strokeColor=none;" parent="v6ISCfUJBkIhkLPFKyvD-92" vertex="1">
          <mxGeometry x="330" y="70" width="40" height="40" as="geometry" />
        </mxCell>
        <mxCell id="v6ISCfUJBkIhkLPFKyvD-202" value="" style="rounded=0;whiteSpace=wrap;html=1;fontSize=16;horizontal=0;fillColor=#dae8fc;strokeColor=none;" parent="v6ISCfUJBkIhkLPFKyvD-92" vertex="1">
          <mxGeometry x="330" y="20" width="40" height="40" as="geometry" />
        </mxCell>
        <mxCell id="v6ISCfUJBkIhkLPFKyvD-186" value="" style="rounded=0;whiteSpace=wrap;html=1;fontSize=10;fillColor=none;strokeColor=#DAE8FC;container=0;" parent="v6ISCfUJBkIhkLPFKyvD-92" vertex="1">
          <mxGeometry x="110" y="40" width="100" height="110" as="geometry">
            <mxRectangle x="70" y="50" width="50" height="40" as="alternateBounds" />
          </mxGeometry>
        </mxCell>
        <mxCell id="v6ISCfUJBkIhkLPFKyvD-195" value="" style="group" parent="v6ISCfUJBkIhkLPFKyvD-92" vertex="1" connectable="0">
          <mxGeometry x="130" y="50" width="60" height="80" as="geometry" />
        </mxCell>
        <mxCell id="v6ISCfUJBkIhkLPFKyvD-153" value="data" style="rounded=0;whiteSpace=wrap;html=1;fontSize=10;horizontal=1;fillColor=#b1ddf0;strokeColor=none;" parent="v6ISCfUJBkIhkLPFKyvD-195" vertex="1">
          <mxGeometry y="60" width="60" height="20" as="geometry" />
        </mxCell>
        <mxCell id="v6ISCfUJBkIhkLPFKyvD-154" value="class pointer" style="rounded=0;whiteSpace=wrap;html=1;fontSize=10;horizontal=1;fillColor=#FFE6CC;strokeColor=none;" parent="v6ISCfUJBkIhkLPFKyvD-195" vertex="1">
          <mxGeometry y="40" width="60" height="20" as="geometry" />
        </mxCell>
        <mxCell id="v6ISCfUJBkIhkLPFKyvD-155" value="mark word" style="rounded=0;whiteSpace=wrap;html=1;fontSize=10;horizontal=1;fillColor=#fff2cc;strokeColor=none;" parent="v6ISCfUJBkIhkLPFKyvD-195" vertex="1">
          <mxGeometry y="20" width="60" height="20" as="geometry" />
        </mxCell>
        <mxCell id="v6ISCfUJBkIhkLPFKyvD-156" value="redirection pointer" style="rounded=0;whiteSpace=wrap;html=1;fontSize=10;horizontal=1;fillColor=#d5e8d4;strokeColor=none;" parent="v6ISCfUJBkIhkLPFKyvD-195" vertex="1">
          <mxGeometry width="60" height="20" as="geometry" />
        </mxCell>
        <mxCell id="v6ISCfUJBkIhkLPFKyvD-203" value="" style="rounded=0;whiteSpace=wrap;html=1;fontSize=16;horizontal=0;fillColor=#dae8fc;strokeColor=none;" parent="v6ISCfUJBkIhkLPFKyvD-92" vertex="1">
          <mxGeometry x="60" y="120" width="40" height="40" as="geometry" />
        </mxCell>
        <mxCell id="v6ISCfUJBkIhkLPFKyvD-207" value="" style="rounded=0;whiteSpace=wrap;html=1;fontSize=16;horizontal=0;fillColor=#dae8fc;strokeColor=none;" parent="v6ISCfUJBkIhkLPFKyvD-92" vertex="1">
          <mxGeometry x="60" y="70" width="40" height="40" as="geometry" />
        </mxCell>
        <mxCell id="v6ISCfUJBkIhkLPFKyvD-208" value="" style="rounded=0;whiteSpace=wrap;html=1;fontSize=16;horizontal=0;fillColor=#dae8fc;strokeColor=none;" parent="v6ISCfUJBkIhkLPFKyvD-92" vertex="1">
          <mxGeometry x="60" y="20" width="40" height="40" as="geometry" />
        </mxCell>
        <mxCell id="v6ISCfUJBkIhkLPFKyvD-209" value="object" style="text;html=1;strokeColor=none;fillColor=none;align=center;verticalAlign=middle;whiteSpace=wrap;rounded=0;fontSize=10;fontColor=#000000;horizontal=1;" parent="v6ISCfUJBkIhkLPFKyvD-92" vertex="1">
          <mxGeometry x="130" y="130" width="60" height="20" as="geometry" />
        </mxCell>
        <mxCell id="v6ISCfUJBkIhkLPFKyvD-211" value="object" style="text;html=1;strokeColor=none;fillColor=none;align=center;verticalAlign=middle;whiteSpace=wrap;rounded=0;fontSize=10;fontColor=#000000;horizontal=1;" parent="v6ISCfUJBkIhkLPFKyvD-92" vertex="1">
          <mxGeometry x="240" y="130" width="60" height="20" as="geometry" />
        </mxCell>
      </root>
    </mxGraphModel>
  </diagram>
</mxfile>
